<svg xmlns="http://www.w3.org/2000/svg" viewBox="0 0 512 512"><title>Artboard 115</title><g id="Female_Farmer" data-name="Female Farmer"><ellipse cx="256" cy="192" rx="192" ry="85.33333" style="fill:#df8d00"/><path d="M117.59342,205.95215a21.33621,21.33621,0,0,0-10.23567,40.0651,190.53428,190.53428,0,0,0,19.33073,9.061l.00488.00211.10189.04126.00521.00212.10286.04158.00033.00008c.21321.0861.42187.17009.63606.2557l.00814.00334.10124.04053.00521.00211.09928.03955.01563.00627c.2054.082.42024.16732.6263.24886l.01107.00431.09537.03776.01563.00627.0918.03613.02311.00912.09049.03564.00879.0035c.17969.07072.35254.13851.53255.209l.0013.00041.10222.04.00944.00366.09342.03638.02312.009.09244.036.012.00472.09733.03792.01139.0044c.13574.05265.2806.10889.41667.16138l.01139.00439.08626.03328.0293.01132.07389.02848.0472.01815.07064.0271.03646.01408.07975.03068.03256.01237.08235.03165.02181.00839c.1364.05224.26563.10156.402.15364l.02181.00822.07585.02889.04394.01676.07324.02784.04.01521.07259.02751.04265.0162.07552.02864.04.01506.07129.027.04817.01822.15951.06014.01986.00749.07812.02946.03418.01294.06869.02572.05436.0205.06022.02255.05306.02.06445.02408.055.02068.06413.024.04753.01774.069.0258.04948.01847.06836.02556.03841.01432.1543.05746.03287.0122.06608.02458.05144.019.06933.0258.0472.0175.06543.02425.05436.02.06283.02327.05827.02165.056.02067.06087.02238.0625.023.05436.02.06022.02222.097.03564.03516.01294.10644.03906.02865.01042.08366.03076.05533.02026.06706.0245.04981.01815.07128.026.04623.01693.07617.02783.0472.01709.06511.02376.056.02043.08073.02929.03549.01286.12011.04362.02214.008.096.03475.05273.019.0625.0227.0638.023.05892.02116.05274.019.07129.02572.0498.018.07031.02514.05013.01807.07162.02563.04915.01774.11263.04029a.03145.03145,0,0,0,.00391.00138l.12239.04387.03028.01082.09049.03231.04655.01652.06966.02482.056.01994.068.02425.05241.01863.06608.02344.055.01953.06868.02442.05209.01839.07389.0262.04525.016.10156.036.028.00985.11.03874.04916.01741.07226.02539.04948.01742.07064.02482.057.02.06641.02336.04883.01708.07617.0267.0472.01652.08626.03011.0306.01074.09864.03442.02734.00953.24349.08479.03743.013.08724.03027.041.01424.07617.02637.05111.01774.07715.02669.043.01489.08269.02849.03841.01326.09668.03337.026.00895.111.03825.013.00439.12631.04346.00748.0026.11589.03972.0306.0105.09049.031.04069.01392.08171.02791.04687.016.083.02832.0332.0114.09571.03255.03125.01066.10416.0354.01823.00618q.18994.06457.38021.12883l.01758.00594.11035.03727.01856.00627.10286.03475.02962.00993.10547.03548.01628.00545.11914.04.00618.00211c.17318.05811.34278.11483.5166.17269l.00847.00285.11881.03955.01335.00448.11035.0367.02441.00814.109.03621.01433.00464.12272.04069.00423.0013c.17415.0577.3457.11426.52051.17172l.00521.00179.12435.04077.00813.00268.11328.03711.02344.00773.11426.03728.00977.00325c.26237.08578.5192.16919.78255.25448l.00748.00236.11849.03833.01628.00529q.45751.14758.918.29435l.0013.00041.12956.04142.00325.001c.2653.08439.528.16756.79427.25138.00489.00155-.0013-.00033.00358.00122l.26042.08179.00586.00187a334.06681,334.06681,0,0,0,56.67774,12.15885l.0026.00041q3.688.47863,7.4349.89274l.00032.00008q1.14063.126,2.28646.24593v.00008l.16211.01693.0039.00041.15625.01627.0101.001.15234.01579.01042.00114.1582.01627.00228.00033c.21875.02246.43652.04476.6556.067.00586.00057-.00554-.00057.00065,0l.16113.01635c.00619.00057-.00032-.00008.00553.00057l.1517.0153.0166.00163q.65186.06555,1.30534.12915l.00521.00049q1.729.16821,3.46744.32226h0l.16211.01433.00782.00073c.442.039.87793.07674,1.32128.11442l.00554.00049.16146.01367.00325.00024.16048.01351.00619.00057c.222.01864.44043.03687.66243.05518l.00456.00041.15918.0131.01107.00089.14974.01229.01823.00147c.32975.02693.66146.05363.99186.07983.00586.00049-.00358-.00024.00228.00024l.15657.01237.01921.00147.14128.01115.02832.0022.1429.01123.01562.00122.15853.01229c.00619.00048-.001-.00009.00521.0004.11133.00863.2181.01693.32975.02547l.01791.00139.15169.01163.00391.00033.154.01172.02767.002.13737.01042.027.00212.13379.01009.03191.00236.13736.01033.02507.00187c.21647.0162.43685.03248.65365.04834l.03092.00228.13119.00961.03645.0026.12761.00928.03385.00244.13184.00952.03288.00236.14127.01017.01856.0013c.16438.0118.32812.02336.49251.035l.03157.0022.13119.00919.03711.00261.12532.0087.03874.00269.12663.00879.03841.00268.12695.00879.03353.00228c.21745.01489.44011.03.65755.04468l.02344.00155.13705.00919.0345.00228.12988.00863.03842.00252.12239.00814.04232.00276.12207.00806.04264.00277.14388.00936.01335.00089.33431.02165.00651.00041.14746.00944.05371.00341.11231.00716.04817.0031.11328.00716.05046.00317.11458.00725.04818.003.12663.00789.03125.00195c.16536.01026.32877.02035.49446.03044l.027.00171.13249.00806.0498.003.11263.00683.04883.00293.11556.00692.04883.00293.127.00757.0293.00171.13249.00789.03743.0022c.16244.0096.32878.01928.49121.02872l.03744.0022.11523.00659.06739.00391.098.00562.05989.00341.10873.00611.04752.00276.13151.00741.029.00163.13249.0074.03548.002c.10938.00618.22006.01228.32976.01831l.0153.00081.14322.00789.05176.00285.10677.00578.06381.0035.10612.0057.04654.00252.12012.00643.0485.0026.11882.00635.04134.0022.12175.00643.04655.00244.32128.01676.05176.00269.11166.00578.06022.00309.09668.005.069.0035.09961.005.06185.00309.097.00488.06706.00342.10709.00537.05144.00252.13574.00676.02539.0013.3291.01611.04069.002.125.006.04037.00195.12076.00586.05437.00261.11295.00537.04557.00211.12175.00578.04492.00212.14583.00683.01205.00057c.1709.0079.33431.01546.50521.0232l.0192.00089.14681.00667.02963.00131.12662.00569.05111.00228.11784.00521.04557.002.125.00546.03744.00171.1403.0061.02539.00106c.11393.005.2207.00952.33463.0144l.01335.00057.15169.00643.03353.00146.127.00529.04981.00212.111.00456.0599.00252.11165.00456.0459.002.12825.00521.03679.00146q.252.01026.50325.02019c.00651.00024-.00032,0,.00586.00024l.1556.0061.03678.00139.12533.00488.05273.002.10515.00407.06185.00236.11035.00415.05273.002.11133.00415.05436.002.14356.00537.01725.00066.16894.00618.01107.00041.14974.00545.05339.00195.109.00391.0625.00228.10384.00366.05631.002.11166.00391.05436.00187.12142.00423.03906.00139.14421.005.02018.00065c.11458.004.22168.00757.33659.0114l.02409.00081.14127.00472.04037.0013.12239.00407.05274.00171.1123.00366.05827.00187.098.0031.07162.00228.099.00317.06153.002.1416.0044.0166.00049c.11133.00349.22168.00683.333.01025l.05078.00146.11556.0035.05143.00155.11361.00334.05762.00171.10709.00309.06022.00179.10059.00293.06738.00187.11361.00325.04427.00131.1403.0039.027.00074.16471.00455.04264.00114.1198.00326.06412.00179.10092.00268.07194.002.08789.00227.07714.002.0892.00236.07584.00195.08594.0022.07747.002.09506.00244.068.00171.11589.00285.04687.00114.16374.00407.03548.00081.12923.0031.05436.0013.113.00268.05176.00122.11426.00261.05631.0013.11361.0026.0498.00114.11458.00261.05665.00122.11946.00268.04362.001.13965.003.05371.00114.13574.00293.06673.00138.09441.002.07747.00163.08952.00179.07129.00146.096.00187.0677.00139.09864.00195.07031.00138.08691.00163.07976.00155.08821.00171.07552.00138.15821.00293.05761.00106.1058.00187.068.00122.09929.00179.0677.00114.099.00171.06446.00114.10123.00171.07064.00114.08952.00154.0765.00122.08756.00139.07878.0013.10188.00154.05892.001.16146.00244.05078.00073.11849.00179.05664.00082.10385.00154.07063.001.09994.00147.06413.00081.09635.00138.07682.001.08431.00114.08138.00106.08269.00114.08105.001.10677.00139.0765.00089.141.00171.05989.00073.1071.00131.05892.00065.11.00122.06184.00073.10092.00106.06738.00073.10156.00106.06576.00073.10286.001.06185.00065.11.00106.05794.00057.16406.00154.012.00008.15332.00139.05143.00048.11588.001.06218.00049.099.00081.07324.00057.09538.00074.07.00056.10059.00074.06315.0004.10807.00082.0599.0004.11.00066.05761.0004.16407.00106.02669.00008.14192.00082.04558.00032.11849.00057.06315.00033.09961.00048.07552.00041.08887.00041.07454.00032.09635.00041.071.00025.09277.0004.0752.00025.08593.00032.11459.00033.12662.0004.04916.00009.11719.00032.05957.00016.1097.00025.06152.00008.10124.00016.07.00017.10026.00008.068.00008.09635.00016h.07032l.10807.00008.05729.00008H256l.25521-.00008h.03l.24056-.00024.04362-.00008.2399-.00033.03614-.00008.24837-.00057h.01465l.2487-.00073.02181-.00008.24479-.00082.03939-.00016c.08138-.00024.16308-.00057.24414-.001l.03027-.00008.25293-.00122.01139-.00008q.26514-.00122.53028-.00293l.01562-.00008.26367-.00171.00782-.00008q7.24853-.04968,14.36067-.33464.293-.01172.584-.03117.29052-.00452.58333-.01692l.01823-.00074.03776-.00162.10807-.00464.055-.00236.09212-.004.06771-.00293L275,276.92074l.07812-.00342.07325-.00318.07682-.00341.06348-.00277.08951-.004.05665-.00252.09407-.00423.04785-.00212.0944-.00431.0612-.00277.084-.00382.06054-.00277.08529-.00391.06608-.003.082-.00382.06055-.00277.08366-.00391.07226-.00333.07552-.00358.06413-.003.084-.004.07324-.00342.07031-.00334.10091-.00488.04557-.00212.29428-.01424.05078-.00252.09895-.0048.044-.00212.10254-.00512.05631-.00277.09278-.00456.05208-.0026.0944-.00472.0599-.003.08691-.0044.05892-.00293.08757-.00447.07031-.00358.07422-.00375.06868-.0035.07976-.00415.06933-.00358.08008-.00415.0612-.00317.08886-.00456.06023-.00317.09212-.00481.05078-.00268.09407-.005.0573-.003.10286-.00545.03744-.002.09668-.00513.06217-.00334.08236-.00447.05892-.00318.11165-.006.03451-.00187.27473-.01506.04883-.00268c.09375-.00521.17285-.00952.2666-.01481l.0472-.00261.10157-.00569.05859-.00326.08138-.00464.07585-.00423.07454-.00423.06511-.00374.082-.00464.057-.00326.09766-.00561.04655-.00269.09342-.00545.06055-.0035.08919-.00513.05632-.00333.09277-.00538.04883-.00292.10417-.00611.04524-.00268.0892-.00521.06315-.00375.09017-.00537.05338-.00317.10254-.00619.04-.00236.11914-.00724.02735-.00163.11686-.00708.0319-.002.14355-.00871.001-.00008c.14974-.00911.29818-.01831.44759-.02759l.01042-.00065.13965-.0087.0039-.00025.14291-.00895.0192-.00122.12663-.008.026-.00162.12272-.00782.02637-.00171.12435-.00789.01693-.00114.13053-.00838.02213-.00138.12468-.00806.02409-.00155.11881-.00773.03516-.00228.12012-.00781.01985-.0013.12077-.008.03483-.00228.11361-.00748.03125-.002.10775-.00716.04589-.003.11719-.00781.02116-.00147.11849-.00789.03451-.00236.111-.00741.03483-.00236.09863-.00667.05176-.0035c.19857-.01351.38867-.02661.58724-.04036l.00879-.00057.28711-.02.01237-.0009.13606-.00952.01335-.001.1263-.00887.03353-.00244.11719-.0083.02865-.002.11132-.0079.04134-.003.1084-.00773.03679-.00268.1084-.00782.03613-.0026.12142-.00879.02083-.00147.125-.00911.02246-.00163.13054-.00952.015-.00114.1276-.00936.02116-.00154c.39551-.02914.78386-.05827,1.17871-.08855l.00847-.00056.2845-.0219.0166-.0013.12924-.01.0192-.00146.1224-.00952.0358-.00277.109-.00855.03483-.00276.10743-.00839.04362-.00341.10872-.00863.03-.00236.10807-.00854.0472-.00375.10189-.00814.03646-.00293.13086-.01041.00846-.00065c.59082-.04737,1.17643-.09554,1.7653-.14527l.00423-.00032.14063-.01188.01009-.0009.13216-.01123.0179-.00155.13477-.01147.00586-.00049c.68652-.05876,1.36491-.11849,2.0485-.18042l.01432-.0013.127-.01148.02571-.00236.127-.01155.00748-.00065.138-.0127.00879-.00081.138-.01262.00717-.00065.13346-.01237.01725-.00154.13347-.01237.00781-.00073.14062-.013.00391-.0004.14258-.01335.00325-.00024.137-.01286.01106-.00106c.63347-.05941,1.26237-.12,1.89323-.18213l.00033-.00008c12.95931-1.27751,25.42448-3.1368,37.25228-5.51351l.00163-.00032c.66471-.13355,1.32389-.26807,1.98437-.40487l.00553-.00114.12338-.02555.01106-.00236c.70443-.14608,1.39746-.29224,2.097-.44206l.00814-.00171.38639-.083.00358-.00073.126-.02726.00521-.00106q2.22608-.48046,4.41666-.98478l.00163-.00041.25033-.05778.01367-.00309.11751-.02718.00846-.002.11882-.02758.00977-.0022.123-.02856.00293-.00074.12044-.028.01042-.00244.12272-.02857.00358-.00081.38412-.08985.00065-.00016c.17122-.04012.34049-.08.51172-.12044l.01074-.00252.11849-.02808.00195-.00041.12435-.02954.00912-.00211.11751-.02784.01432-.00341.10449-.02482.03939-.00944.08789-.02092.03321-.00789.0944-.02255.03255-.00781.0931-.02222.03222-.00773.09245-.02213.03581-.00855.097-.02327.02279-.00554.09929-.02384.0332-.008.08626-.02076.04069-.00984.0752-.01815.05468-.0131.08952-.02173.027-.00651.09994-.02417.02864-.00692c.24935-.06047.50033-.12158.749-.18254l.04265-.01033.08463-.02083.04037-.00993.07943-.01945.0485-.012.08105-.01993.04037-.00993.08138-.0201.04231-.01042.0879-.02173.0358-.00879.082-.02034.04786-.0118.07845-.01945.04427-.011.0778-.01929.04752-.0118.07943-.01977.0446-.01115.07389-.01831.05241-.0131.071-.01766.05306-.01327.07357-.01847.04753-.0118.08528-.0214.03906-.00977.09017-.02262.03256-.00822.24674-.062.04655-.01172.0778-.0197.03516-.00887.09016-.0227.03191-.00814.09407-.02376.02376-.00611.09929-.02514.0345-.00879.08659-.022.04362-.01106.07585-.01929.05664-.01449.06445-.01635.05892-.01514.05957-.01514.071-.01814.05045-.01286.06543-.01677.06087-.01562.06185-.01579.0638-.01644.055-.01416.06282-.01611.06673-.01725.04818-.01237.07324-.01888.04558-.01172.0778-.02.04882-.0127.068-.01758.05045-.0131.195-.05054.03711-.0096.14323-.03727.06217-.0162.09571-.025.02018-.00521.08105-.02116.0433-.01131.09017-.0236.02571-.00675.083-.02173.04264-.01123.08594-.02246.02832-.00749.0905-.02376.03418-.00895.08007-.02108.042-.01107.07064-.01872.057-.015.07031-.01856.03972-.01049.08268-.0219.042-.01106.0765-.02035.04232-.01123.07747-.02059.04492-.01188.0791-.02108.029-.00765.09375-.0249.02213-.006.097-.0258.02278-.0061.09278-.02482.03743-.01c.30176-.08073.59766-.16032.89844-.24178l.014-.00383.10449-.02832.013-.00358.10058-.02726.01986-.00537.0957-.026.02637-.00717.083-.02262.04-.0109.084-.02295.03125-.00847.08757-.02392.02995-.00822.09212-.02523.02539-.007.08594-.02352.03938-.01074.08529-.02352.02474-.00675.09245-.02539.02279-.00627.21549-.05941.00911-.0026c.30632-.08456.61329-.16984.91862-.25521l.00749-.00212.11328-.03165c.00521-.00147-.0039.001.0013-.00041l.1058-.02962.01562-.00448.10515-.02946.00879-.00244.10156-.02856.02083-.00586.10091-.02849.01075-.00293.10319-.02913.01692-.0048.10612-.03h0l.11556-.03263.0013-.00033a234.56546,234.56546,0,0,0,39.57813-14.88411,21.3333,21.3333,0,1,0-18.8597-38.27206c-26.6696,13.14217-65.67871,21.69-107.02441,23.45174q-.26514.01135-.528.029c-.17448.00269-.35124.00757-.52669.01457q-7.74658.30909-15.67969.311c-50.15007,0-98.09473-9.76766-128.25228-26.12867a21.23382,21.23382,0,0,0-10.1543-2.58585Z" style="fill:#cc7006"/><path d="M168.05115,298.66667H343.94926a42.48347,42.48347,0,0,0,19.60779-4.76238c18.506-9.59255,24.97652-33.11054,17.23461-52.46385l-39.45833-92.10417H170.66667L131.2078,241.44145c-7.7411,19.35307-1.27029,42.87007,17.2351,52.4626A42.48343,42.48343,0,0,0,168.05115,298.66667Z" style="fill:#ae2b00"/><rect x="298.66667" y="192" width="64" height="106.66667" rx="31.99997" ry="31.99997" style="fill:#8e1600"/><path d="M181.3333,170.66667H192a0,0,0,0,1,0,0v64a0,0,0,0,1,0,0H181.3333a32,32,0,0,1-32-32v-.00006A32,32,0,0,1,181.3333,170.66667Z" style="fill:#69341c"/><path d="M352,170.66667h10.6667a0,0,0,0,1,0,0v64a0,0,0,0,1,0,0H352a32,32,0,0,1-32-32v-.00006A32,32,0,0,1,352,170.66667Z" transform="translate(682.66667 405.33333) rotate(180)" style="fill:#5b2c06"/><path d="M256,298.66667,84.214,345.5174a85.33332,85.33332,0,0,0-62.88065,82.32651V448A42.66667,42.66667,0,0,0,64,490.66667H448A42.66667,42.66667,0,0,0,490.66667,448V427.84391A85.33332,85.33332,0,0,0,427.786,345.5174Z" style="fill:#99cefa"/><path d="M378.56966,335.62a21.34178,21.34178,0,0,0-20.41243,15.16456,105.95005,105.95005,0,0,1-5.39779,14.16935l-.00065.001c-.05827.12541-.11784.25285-.17676.37793v.00057c-.2526.53711-.50683,1.06608-.7679,1.59823l-.00228.0048-.0446.09058-.00065.001c-.02962.06047-.05989.12191-.08984.1823l-.00554.01163-.04134.08317-.0026.00554-.13639.27392-.00424.00847c-.04524.09033-.09017.1805-.13574.27075l-.00618.01229-.03874.077-.00684.01343-.09017.17855-.0052.01017c-.01368.027-.026.05176-.04.07878l-.00651.01277q-.06837.135-.13737.26962l-.00391.00765-.0446.08724-.0013.00236c-.0306.05989-.0625.12182-.09342.18164l-.00423.00805-.04232.08236-.00488.00928-.09278.17928-.00358.00675-.043.08285-.00521.01025-.04134.07886-.00586.01164c-.02962.05664-.06152.11792-.09147.17447l-.00944.01815-.03776.072-.00716.014c-.03158.05949-.06315.11987-.09473.17928v.00008l-.04459.08456-.00749.01432-.0446.08407-.001.00171c-.02995.05639-.06348.12-.09375.17626l-.00879.01677-.03841.0717-.00879.01684c-.0319.05933-.0612.1145-.0931.17375l-.00619.01131-.041.07682-.00749.01392-.04492.08333-.0013.00236c-.016.02962-.03288.06112-.04916.09066l-.001.00212-.04492.08308-.00847.01539-.043.07958-.00293.005c-.0319.059-.06412.118-.096.17692l-.00716.01294-.04069.07471-.00748.01375c-.03256.05892-.06381.116-.096.17489l-.00489.00887-.04264.07739-.00781.01432-.04167.07544-.00683.01261-.04818.08708h0l-.04557.08228-.012.02164-.03711.06706-.01009.01831c-.03255.05868-.06347.114-.09635.17269l-.00358.00659-.04265.07642-.01139.02-.03971.07088-.00716.01286-.04786.0852L349.043,372.2l-.041.073-.01269.02262-.03353.05909-.01563.02758-.043.07626-.00293.00512-.04786.08448-.00976.01733-.03776.06657-.0127.02189-.03711.06559-.01106.01954-.04786.08341-.00586.01074-.04069.0708-.01367.02368-.03711.06478-.01074.019c-.0319.05533-.06478.113-.09668.16821l-.00944.01644-.03841.06616-.01335.0236-.04329.07454-.00358.00627-.04753.082-.01465.02515-.0345.05957-.01465.02506-.03516.06014-.01334.02336-.04753.08138-.00683.01156-.03972.06779-.01855.0319-.03125.05306-.0153.02636-.03776.06405-.0114.01978-.04687.07959-.01335.02221-.03515.05949-.0153.02621-.03711.06258-.012.02042-.04785.08065-.00976.01644-.03841.06462-.016.02685-.03222.05436-.01888.03133-.03972.0669-.00716.01172-.04752.07951-.014.0236-.03711.06209-.01367.0227-.03744.06218-.01237.02067-.04785.07959-.012.01969-.03776.0625-.016.02645-.03386.05624-.01595.0262-.04492.07414-.00977.01627-.04329.07137-.01335.02165-.0358.059-.01628.02678-.03841.06282-.01107.01815-.04818.07861-.0153.02531-.03385.0555-.01823.02922-.03288.05379-.01692.02759-.04851.07861-.00944.01522-.03711.06055-.02246.03629-.02929.0472-.01921.031-.03841.06209-.01042.017-.04785.07691-.01855.03019-.03093.04956-.02051.03279-.03548.05673-.01269.02059-.04851.07763-.0179.02857-.0319.05094-.02148.03418-.02832.04517-.02181.03466-.03809.061-.0127.01986-.04589.07308-.01954.03076-.03125.04956-.01888.03-.0345.05428-.01725.02726-.04851.0765-.01237.01969-.03776.05916-.01823.02873-.03515.05534-.01563.0245-.04817.07519-.00912.01432-.04394.06853-.01465.02327-.03841.05982-.015.02343-.043.0669-.00813.01237-.05046.07845-.0153.024-.03711.05746-.01693.026-.03483.05412-.0179.02734-.04948.07625-.01107.01726-.03906.06006-.02148.03336-.03028.04647-.02051.03133-.03645.05583-.015.023-.0498.07625-.01595.02425-.03548.054-.01888.02921-.03809.058-.013.01961-.05241.07975-.00749.01115-.04362.06657-.0179.02686-.0332.05029-.02116.03223-.04655.07039-.00293.00448-.05209.07812-.01627.02474-.03679.05526-.01725.02588-.04069.06136-.01139.017-.05274.07877-.01074.01644-.042.0625-.0166.02482-.03874.058-.014.02083-.04915.07316-.01139.0166-.0459.06844-.01367.02035-.042.06209-.012.01782-.05078.07528-.00293.00456-.05469.08056-.01172.01718-.04231.06241-.01433.02124-.04166.061-.01368.02-.05371.07877-.00325.00513-.04818.07015-.01823.0271-.03808.0555-.01628.02344-.04492.06559-.00847.01229-.05273.07707-.0153.02221-.03809.055-.01985.02905-.03744.054-.0153.02246-.05241.07568-.01237.01815-.04264.0612-.01758.02531-.03418.04956-.02181.03116-.04362.06267-.00878.01277-.05274.07561-.01758.025-.03711.05314-.01855.02661-.03776.05388-.01758.025-.05339.07625-.00878.01237-.04428.06324-.01822.02555-.03907.05566-.01627.02287-.05339.076-.00456.00635-.05078.07161-.015.02108-.04.05688-.01725.02426-.04948.06933-.00391.00586-.055.07723-.01725.02384-.03842.05412-.01855.02588-.03939.05534L342.80762,382l-.05436.07576-.01042.01473-.043.0599-.02181.03027-.03613.05-.01758.02442-.04525.0629-.01074.0149-.054.07487-.01692.02343-.03776.05192-.02019.02792-.04069.05639-.01432.01954-.056.07723-.00553.00765-.04981.06819-.01595.02181-.04036.05558-.01823.02515-.1097.1499-.0166.02263-.04135.05607-.01725.02344-.04069.05558-.016.02173-.055.07446-.012.01619-.04492.061-.01692.02319-.04037.05444-.01725.0232-.04525.06128-.02214.02986-.04427.05941-.01725.02311-.04069.05461-.0166.02238-.05273.071-.00293.00366-.06023.08073-.00455.00611-.05339.071-.01139.01522-.04753.06364-.01237.01644-.1136.15079-.01823.024-.04069.0542-.01726.023-.054.07129-.00163.00236-.05859.07723-.01335.01741-.04329.0573-.01921.0249-.04492.05916-.01107.01432-.05859.077-.00716.0096-.05046.06608-.01595.02051-.0433.05648-.01562.02075-.11621.15121-.01432.01863-.04493.05843-.01464.01872-.04883.06348-.01074.01383-.05958.077-.00488.00635-.05273.068-.01465.01912-.0459.05892-.015.01953-.055.0704-.00879.01147-.0524.067-.0153.01969-.04395.05656-.0179.02271-.04688.05973-.01107.01432-.05761.07349-.01433.01839-.04654.05908-.01563.01986-.04362.05534-.01693.02156-.05664.072-.01432.01774-.04329.05477-.02409.03059-.03614.0455-.02018.02571-.0485.06112-.01009.01269-.05957.075-.01172.01449-.0459.05778-.01953.02433-.0446.056-.01432.01782-.05957.07471-.00586.00724-.05241.06527-.0179.02246-.04265.05323-.01822.02262q-.05958.0741-.11947.14811l-.012.01489-.04818.05974-.01628.02026-.04818.05941-.01139.01432-.06152.07552-.00586.00749-.05371.06584-.01628.02-.04818.05933-.01106.01359-.06153.0756-.00228.00244c-.02083.02588-.03776.04639-.05891.07219l-.01368.0166-.0485.05957-.01335.01611c-.04.049-.08431.10279-.12467.1517l-.00488.00594-.05892.07169-.00651.00765-.05827.07089-.00619.00732c-.04264.05143-.082.099-.12434.15039l-.01368.01644-.05045.06063-.0127.0153-.05761.06941-.00391.00448-.0625.07511-.01009.012-.05143.06168-.01563.01848-.05469.06526-.0052.00627-.06348.07585-.00716.00871-.05567.066-.01334.016-.04688.05566-.01823.02148-.124.14714-.00814.00968-.05436.06381-.01335.01587-.05078.06014-.01269.015-.06283.07357-.00586.00683-.05469.06446-.0166.0192-.0511.06006-.01042.01213-.12663.148-.01237.01432-.05111.05973-.014.01628-.12793.14852-.00423.00488-.0599.06934-.00977.01131-.05761.06689-.00651.00733c-.04362.05037-.08431.09741-.12826.1477l-.01465.017-.05045.05811-.013.01481-.12924.14811-.00618.00716-.057.06478-.013.01505-.05859.06666-.00456.0052-.13021.1482-.01172.01334-.05306.06-.014.01587c-.04167.04744-.08561.09692-.12761.14437l-.01106.01261-.05567.0625-.01074.01229-.05762.06478-.00781.00879-.06608.07422-.00326.0035-.05957.06665-.01627.01839-.04851.05412-.0166.01847-.06119.0686-.00521.00562-.06153.06844-.01334.015-.04981.0555-.0179.01986-.05567.06177-.00716.00806-.06608.07291-.00814.009-.05631.06241-.01367.01514-.05664.06234-.00814.00911-.13249.14559-.01074.012-.05794.06356-.00847.0092c-.04492.04923-.08951.09806-.13476.14722l-.00488.00553-.06023.06559-.01172.01294c-.06542.07121-.13476.1464-.20019.21745l-.01009.01082-.05664.0612-.0114.01237-.13509.146-.00423.00431-.0638.06868-.00651.00717-.06608.071-.002.00179q-.06788.07324-.1364.14632l-.00911.00961-.05957.0638-.00912.00968-.13541.14421-.00782.008-.06087.06462-.00911.00985c-.0459.0485-.0905.09594-.1364.14437l-.00553.00561-.06218.06567-.01041.01124-.06022.06307-.00749.00821-.13639.14307-.01075.01148-.05826.06087-.01009.01058c-.0459.04817-.09213.09619-.138.14428l-.00325.00326-.0625.0651-.01335.01384-.06217.06453-.00391.00415-.13769.14266-.01172.012-.05664.05875-.013.01327c-.04623.04785-.08952.09237-.13607.14014l-.00944.00984-.06022.06193-.00977.01009-.208.21265-.00976.01017-.06413.06535-.00391.00374c-.04655.04761-.09505.09677-.14192.14421l-.00521.00553-.06445.06543-.00782.00757c-.04655.04745-.09472.09611-.14192.14348l-.001.00122-.06934.06966-.00553.00553-.06836.06885-.00228.00228c-.04687.04728-.096.09643-.14323.14363l-.00488.005-.069.06909-.00163.00163c-.071.07064-.14323.1429-.21419.21338l-.00977.0096c-.071.07047-.1416.14046-.21256.21069l-.00684.00651-.06087.06022-.01335.01311-.1403.13794-.00683.00691-.06511.06364-.00716.00708-.069.06771-.00195.00179c-.04753.04663-.0957.09343-.14323.13989l-.00944.00912-.0651.06331-.00554.00554-.14485.14038-.00456.00447-.06706.065-.00716.007c-.04785.04631-.09733.09392-.14551.14014l-.001.00106-.07031.06763-.00716.00683c-.07194.06926-.14486.13908-.21712.20817l-.00749.00716-.06966.06674-.00033.00016c-.07226.069-.14778.14071-.22005.20947l-.00846.0079c-.07259.06876-.14779.14-.2207.20865l-.001.00106-.071.06665-.00619.00594c-.0485.04566-.09766.09188-.14648.13754l-.00521.00488-.06869.06437-.00586.00562c-.07324.06827-.14811.13826-.22135.20638l-.00586.00561-.07227.06706v.00008l-.15136.14014-.00065.00081-.07129.06567-.00716.00676-.223.20524-.00423.00382c-.07357.06755-.151.13827-.22461.20565l-.00455.004c-.09831.08984-.2002.18245-.29916.27189l-.00814.00741c-.07421.06714-.14876.1346-.223.20149l-.00716.00627-.06836.06144-.00651.006c-.0498.0446-.10091.09058-.15072.135l-.00292.00261-.0739.06616-.002.00171c-.07715.06885-.15235.136-.22982.20459l-.002.00179c-.10449.09294-.20313.18018-.30827.27279l-.00033.00024c-.15234.13444-.31022.27254-.46354.40609l-.00716.00635-.07259.06315-.0013.00114c-.07813.06787-.15365.1333-.23177.20092l-.00391.00342c-.07845.06763-.154.1329-.23242.2002l-.0013.00122-.07487.06429-.00456.00366c-.07585.0651-.15658.13411-.23275.19906l-.00228.00211c-.34277.29208-.68033.57617-1.02636.86393l-.00131.00106c-.21028.17481-.42252.34986-.63411.523l-.00521.00407q-.39893.3263-.80111.64909l-.00065.00057c-.08073.0647-.16048.1285-.24121.193l-.00162.00122c-.07813.06242-.16179.12883-.24024.191l-.00521.00407-.07715.06128-.00065.00057q-.28271.22352-.567.44539l-.00359.00277c-.16308.12728-.32486.25277-.48893.37915l-.00032.00041c-.1084.08358-.2181.1678-.32683.251l-.00195.00155c-.16439.12573-.32812.25-.49316.37476l-.001.00073c-.21842.165-.44206.33268-.66178.49609v.00008c-.36166.269-.7194.5315-1.08464.796l-.00065.00049c-.084.06071-.167.12061-.251.18107l-.00195.00139c-.111.08-.223.16032-.33464.23991l-.0013.00114q-1.603,1.1444-3.24544,2.22794l-.00033.00033c-.08658.057-.17285.11377-.25976.17065l-.00033.00033c-.084.055-.17382.11377-.25781.16853l-.00651.00407c-.11491.07487-.22721.14779-.34245.22225l-.00325.002c-.20215.13077-.40593.26131-.60938.3907l-.00065.00057c-.08756.05575-.17383.11044-.26172.16586l-.00228.00154-.08431.05314-.00325.00212c-.085.05355-.17448.10986-.25944.16317l-.00521.00325c-.08529.05339-.17578.11-.26107.16309l-.00162.00114-.08594.05322-.00228.00146c-.05664.03532-.11654.07235-.1735.10759l-.00586.00374-.08073.04989-.00651.004c-.08561.05281-.17351.10685-.25912.15942l-.00716.00439c-.08854.05437-.17318.106-.26172.16l-.0013.00065c-.2946.1796-.5918.3588-.88835.53556l-.00162.00082-.08529.05078-.00553.00341c-.08659.05136-.17676.105-.26335.15609l-.00521.003-.083.04891-.0052.00326-.17318.1018-.01237.00733-.07585.04443-.00944.00554q-.13036.07617-.26107.15226l-.00976.00561c-.08985.05225-.1735.10083-.26367.15284l-.00293.00179-.08464.04882-.00586.00342c-.09017.05192-.17676.10165-.26692.15332l-.00261.00147c-.09049.05167-.17741.1014-.2679.15283l-.00456.00252c-.08756.04981-.181.1027-.26855.15226l-.001.00057-.08659.04867-.00618.0035c-.08757.04948-.18034.10148-.26823.15063l-.00261.00147c-.08789.04915-.18066.10091-.26855.14982l-.00716.00407-.08334.04614-.00553.00317c-.09115.05046-.17676.09774-.2679.148l-.00652.00358c-.09114.05022-.179.09839-.2705.14836v.00008l-.08594.04688-.00879.0048c-.08822.04818-.181.09863-.26953.14665l-.00293.00138c-.09147.04964-.18034.09757-.27181.14689l-.00391.002c-.12109.06527-.24088.1294-.36263.19418l-.00488.00268c-.0918.049-.18131.09652-.27344.14527l-.00065.00024c-.08919.04712-.18392.09717-.27311.14412l-.00846.0044-.08529.04476-.0026.00138c-.08952.0468-.182.09514-.27149.14168l-.00944.005c-.09245.04809-.17838.09269-.27083.14054l-.00521.00261-.083.04272-.01107.00586c-.08984.04622-.18164.09343-.27148.1394l-.00456.00237-.08886.04541-.00228.00113-.17871.091-.01628.0083-.07552.03833-.012.00594-.17968.091-.00782.00383-.0791.03987-.01562.0079c-.09017.04533-.17936.09-.26953.13509l-.00716.00366-.08659.043-.00456.00244-.182.09041-.00944.00464-.08235.04077-.00912.00448q-.13574.06714-.27148.13387l-.0114.00553q-.13623.06678-.27278.13331l-.00781.00382-.08106.03947-.01269.00618-.183.08871-.00065.00024-.09082.04387-.00521.0026c-.09407.04541-.18164.0874-.276.13249l-.00976.00472-.083.03979-.00879.00407-.18327.08724-.00651.00318-.085.04028-.00977.00456-.18326.08667-.00489.00227-.08463.04-.01368.00635-.07975.03752-.01074.005c-.06087.02865-.11979.05615-.181.08464l-.0153.00724-.07487.03483-.01627.00757c-.058.027-.1237.05753-.182.08447l-.00456.0022-.08235.038-.01856.00855-.08138.03759-.00586.00269c-.0612.02824-.123.05664-.18457.0848l-.01074.00488-.07585.03483-.02051.00928c-.05826.02661-.12044.055-.179.08154l-.01074.005-.082.03727-.01106.005c-.09245.04183-.18262.08261-.27507.12419l-.014.00635-.07975.03581-.01172.0052c-.06152.02767-.12109.05437-.18294.08195l-.01237.00546-.07715.03434-.01823.00814c-.06152.0275-.12011.05346-.182.08081l-.00619.00276-.08431.03728-.014.00626-.07877.03475-.01465.00635-.18132.07967-.01464.00643-.07878.03442-.014.00627-.18424.08016-.00749.00325-.0804.03492-.02084.00911-.07617.033-.013.00545-.182.07862-.01758.00756-.07064.03028-.02441.01041c-.05892.02531-.12012.05144-.17937.07666l-.013.00562-.07877.03345-.01661.00708-.0817.03467-.00912.0039c-.05891.02507-.12369.05241-.18294.07739l-.01855.00782-.07487.03157-.01726.00724c-.0625.02621-.12076.0507-.18326.07675l-.01237.00529-.07845.03279-.01823.00757-.18229.07577-.014.00585-.0765.03166-.02116.00879-.07422.0306-.01627.00675-.18067.0743-.02376.00969-.07064.029-.01823.00741-.085.03475-.00651.00268-.09245.0376-.014.00569-.07422.0302-.02507.01-.07226.02938-.01791.00716c-.05957.02409-.12142.04907-.18131.07308l-.02084.00846-.07.02808-.02474.00984-.083.03329-.00521.00211-.08952.03573-.02376.00944-.06836.02718-.02539.01017-.06966.02759-.02051.00814-.09049.03589-.00944.00358-.082.03239-.02083.00822-.07259.02856-.01986.00781-.0791.03109-.01758.00692-.08365.03271-.027.0105-.06153.024-.03157.01229-.068.02645-.02083.00805-.08919.03459-.02018.00773-.06771.02629-.03158.01212-.06022.02319-.03092.012-.08692.03336-.00781.0031-.07943.03035-.03288.01253-.06022.023-.02929.01115-.08008.03052-.00716.00277-.09278.03515-.01888.00716-.069.02613-.03157.012-.0638.02409-.02507.00944-.08854.03328-.01791.00668-.07259.02734-.02962.01115-.05957.02222-.03288.0122-.07031.02629-.0192.00716-.08627.03206-.0306.0114-.06185.02287-.02864.01066-.06771.02506-.02441.00887-.09017.03329-.01075.004-.07812.02865-.02767.01017-.068.02482-.02474.009-.07292.02669-.02832.01033-.0765.02784-.03222.01163-.05827.02116-.03581.01294-.0625.02263-.02572.00936-.085.03059-.03385.01213-.05892.02124-.03516.01253-.05306.019-.03808.01367-.06673.02384-.04655.0166-.05827.02067-.04395.01563-.0459.01627-.041.01449-.05371.019-.03646.01294-.08529.03011-.0306.01066-.05468.01929-.04362.0153-.04883.01709-.03971.01392-.07487.0262-.042.01449-.055.01928-.041.01416-.04752.01661-.04492.01554-.05306.01831-.03321.01147-.08333.02873-.041.01408-.04915.017-.043.01465-.04752.01627-.041.01408-.083.02832-.0345.0118-.05567.01888-.03938.01343-.054.01831-.03581.01213-.05469.01855-.07291.02458-.04558.0153-.04557.01538-.04329.01457-.04558.0153-.0485.01619-.04134.01383-.08008.0267-.04655.01546-.04362.01457-.04394.01456-.04818.016-.04394.01457-.0472.01554-.08431.02784-.03484.01147-.05175.017-.04.01318-.04883.016-.03906.01269-.07455.02441-.05468.01775-.0446.01456-.04525.01465-.04883.01579-.03906.01269-.04915.01587-.03614.01164-.09765.03149-.03353.01075-.054.01733-.03222.01034-.05632.01806-.02995.00961-.10123.03214-.03451.011-.05111.01627-.03743.01188-.05078.016-.03906.01237-.05144.01627-.04134.01294-.08366.02637-.043.01343-.04687.01473-.0472.01473-.04167.013-.05664.01766-.05827.01806-.05892.01831-.04264.01327-.0485.01505-.044.01351-.04948.01522-.041.01262-.08106.025-.04785.01465-.043.01318-.04785.01449-.043.01318-.04655.01416-.04817.01473-.09147.02767-.028.00854-.05892.01775-.03027.00911-.05469.01652-.03776.01131-.10807.03239-.02181.00659-.054.01612-.03548.01066-.05111.01513-.043.01286-.0472.014-.04036.01188-.09245.02743-.03678.0109-.05111.01506-.03744.011-.05631.01644-.026.00773-.11719.03426-.02083.00611-.05339.01546-.03906.01139-.05208.01506-.03288.00952-.19271.05574-.03027.00871-.05957.017-.026.00741-.06315.01814-.012.00342-.06706.01913a21.33335,21.33335,0,1,0,11.68913,41.03426A148.64036,148.64036,0,0,0,399.00456,363.11084,21.35021,21.35021,0,0,0,378.56966,335.62Z" style="fill:#64aef7"/><path d="M148.42676,350.89608a21.36016,21.36016,0,0,0-5.626.75708L89.8125,366.10409h0l-.08008.022-.03515.0096-.04525.01253-.03744.01026-.043.01188-.03938.0109-.04037.01132-.04459.01245-.03549.00984-.043.01213-.03744.01042-.04362.01237-.03613.01017-.04362.01237-.03613.01025-.04493.0127-.03548.01017-.04427.0127-.03483.00992-.04883.014-.0306.00887-.04752.01367-.03223.00944-.04883.01408-.0306.00895-.0498.01449-.029.00846-.05274.01547-.02636.00773-.05274.01554-.026.00773-.05729.01685-.02084.00618-.05729.01709-.02213.00659-.05827.01734-.02051.00618-.05794.01742-.02116.00626-.05892.01791-.01986.00594-.05761.01741-.02246.00684-.05762.01758-.02051.00626-.057.01734-.02246.00692-.05957.01822-.01692.00521-.06088.0188-.01855.00578-.06087.0188-.01791.00553-.05957.01864-.01953.006-.06185.01937-.01334.00415-.06446.02034-.01432.00448-.06576.02075-.01009.00326-.06738.02124-.01237.004-.068.02164-.00554.00171-.07291.02336-.00424.00138-.07454.02393-.001.00032-.07649.02466-.00326.00106a64.19935,64.19935,0,0,0-41.69726,42.83683l-.00033.00049-.02246.07568v.001l-.02214.07487-.00065.00252-.02148.07341-.0013.0039-.02084.07235-.00162.005-.02084.07268-.00065.002-.02148.07446-.00065.00253-.02149.0743-.00032.002-.02149.07422-.001.00358-.02083.074-.00032.00041-.02149.07626v.00048l-.02148.07634-.00033.00024-.02116.07642-.00032.00106-.02116.07592v.00017c-.09929.35685-.195.7124-.28809,1.07153l-.00195.00822-.01693.0647-.00325.01342-.0166.0634-.00359.01432-.01692.06641-.00261.01058-.01692.06543-.00326.01286-.01465.05891-.00553.02076-.01367.05485-.00586.02352-.01367.05371-.00586.02449-.01368.054-.00585.02409-.0127.05086-.00716.02913-.01172.04794-.00749.03059-.01172.04672-.00748.03165-.01172.04753-.00749.03109-.01107.04492-.00846.03483-.01042.044-.00813.03385-.01075.04411-.00846.03548-.01009.04256-.00879.03622-.00977.04117-.00911.03882-.00944.03988-.00912.03857-.00911.0398-.00911.03906-.00944.04-.00944.04044-.00814.03589-.01042.0446-.00814.03483-.01009.04395-.00781.03426-.01042.045-.00781.03467-.01042.0463-.00683.0306-.01107.04777-.00749.03361-.00976.04395-.00782.03467-.01009.04516-.00748.03377-.01107.05-.00619.027-.01139.05282-.00618.0275-.01172.053-.00554.02539-.01172.05453-.00553.02523-.01367.06266-.00293.01448-.014.06438-.00325.01619-.015.06966-.002.00879-.01432.06771-.00261.013c-.13574.64144-.26139,1.28394-.3776,1.9314l-.00033.00065a63.67607,63.67607,0,0,0-.97558,9.47859,21.33315,21.33315,0,0,0,20.71191,21.87175c.21.00618.417.00911.62565.00911a21.33477,21.33477,0,0,0,21.31315-20.71923,21.47989,21.47989,0,0,1,15.69629-19.96289l52.98861-14.451a21.33645,21.33645,0,0,0-5.60026-41.92033Z" style="fill:#b8ddfb"/><path d="M341.14323,321.88672,256,298.66667l-85.14323,23.22005a85.16048,85.16048,0,0,0,170.28646,0Z" style="fill:#69341c"/><path d="M341.14323,321.88672,256,298.66667l-85.14323,23.22005a85.16048,85.16048,0,0,0,170.28646,0Z" style="fill:#69341c"/><path d="M341.07585,300.14453a10.6682,10.6682,0,0,0-2.80013,20.96012l2.57552.70248.0026.00065.04785.013.00586.00163.00163.00049.00618.00171.013.00349.00716.002.00358.001.012.00326.00749.002.00325.001.00261.00065.05306.01449.00586.00163.02409.00651.00065.00016.09505.026h0a85.16048,85.16048,0,0,1-170.28646,0h0l1.72266-.46981a10.66673,10.66673,0,0,0-5.65137-20.57129l-1.68424.45931a21.33368,21.33368,0,0,0-15.71517,21.05583C150.807,379.87516,198.56966,426.66667,256,426.66667s105.193-46.79151,106.47135-104.30591a21.33368,21.33368,0,0,0-15.71517-21.05583l-2.86751-.78182a10.685,10.685,0,0,0-2.81282-.37858Z" style="fill:#e45e00"/><rect x="213.33333" y="234.66667" width="85.33333" height="128" rx="42.66662" ry="42.66662" style="fill:#69341c"/><path d="M277.33333,362.66667A21.33272,21.33272,0,0,1,298.66667,384v9.49479a85.06679,85.06679,0,0,0,42.47656-71.60807L256,298.66667v42.66666A21.33356,21.33356,0,0,0,277.33333,362.66667Z" style="fill:#5b2c06"/><rect x="170.66667" y="85.33333" width="170.66667" height="234.66658" rx="85.33325" ry="85.33325" style="fill:#69341c"/><path d="M170.66667,170.66667v64a84.82563,84.82563,0,0,0,27.58854,62.48047,84.44414,84.44414,0,0,0,100.41146-83.81381v-64a84.82449,84.82449,0,0,0-27.58724-62.48047,84.44537,84.44537,0,0,0-100.41276,83.81381Z" style="fill:#764126"/><circle cx="288" cy="202.66667" r="10.66667" style="fill:#3d180b"/><path d="M256,21.33333c106.66667,0,106.66667,149.33334,106.66667,149.33334H149.33333S149.33333,21.33333,256,21.33333Z" style="fill:#ffd432"/><path d="M256,64a283.01287,283.01287,0,0,0-63.11453,7.0668C178.826,74.28714,166.99105,84.087,162.24993,97.70906c-2.32464,6.67911-4.231,13.33952-5.7942,19.76755-6.58062,27.05937,13.55142,53.19006,41.39947,53.19006H314.1448c27.84805,0,47.98009-26.13069,41.39947-53.19006-1.56325-6.428-3.46956-13.08844-5.7942-19.76755C345.009,84.087,333.174,74.28714,319.11453,71.0668A283.01287,283.01287,0,0,0,256,64Z" style="fill:#4d2100"/><path d="M355.84415,118.7241c-1.54-6.4828-3.42663-13.21774-5.73846-19.984A42.69085,42.69085,0,0,0,319.207,71.08757q-.213-.04884-.42715-.0975a56.31047,56.31047,0,0,0-24.77521.00309q-.20787.04725-.4147.09468a42.70529,42.70529,0,0,0-30.90462,27.67293c-2.30914,6.76083-4.19381,13.49021-5.73243,19.9678-6.31508,26.58649,14.37053,51.9382,41.69673,51.93818h15.49886C341.4767,170.66677,362.16023,145.31238,355.84415,118.7241Z" style="fill:#3d180b"/><circle cx="224" cy="202.66667" r="10.66667" style="fill:#3d180b"/><ellipse cx="213.33333" cy="64" rx="26.97886" ry="13.48943" transform="translate(17.22905 169.59461) rotate(-45)" style="fill:#ffe754"/><circle cx="224" cy="53.33333" r="10.66667" style="fill:#fff8c6"/><rect x="234.66667" y="256" width="42.66667" height="21.33333" rx="10.66666" ry="10.66666" style="fill:#ffef7d"/><rect x="234.66667" y="213.33333" width="42.66667" height="21.33333" rx="10.66666" ry="10.66666" style="fill:#69341c"/><path d="M384,320a21.33272,21.33272,0,0,0-21.33333,21.33333l-21.33334,85.33334S320,448,256,448s-85.33333-21.33333-85.33333-21.33333l-21.33334-85.33334a21.33333,21.33333,0,1,0-42.66666,0L85.33333,490.66667H426.66667L405.33333,341.33333A21.33272,21.33272,0,0,0,384,320Z" style="fill:#f4ac03"/><path d="M431.28385,350.61361a21.35118,21.35118,0,0,0-21.15267,24.30477l13.888,97.21622a21.33342,21.33342,0,0,0,42.235-6.05485L452.376,368.9327a21.33877,21.33877,0,0,0-21.09213-18.31909Z" style="fill:#64aef7"/><path d="M138.66667,330.66667A10.66678,10.66678,0,0,0,128,341.33333a21.32764,21.32764,0,0,0,.637,5.17416l21.33334,85.33333a21.33321,21.33321,0,0,0,5.61133,9.91081c4.60579,4.60563,31.09342,27.5817,100.41829,27.5817,51.42773,0,79.47363-13.0236,91.61426-20.78678a10.66675,10.66675,0,0,0-11.46061-17.99365c-8.08985,5.1805-26.36524,14.00553-59.73405,16.66552l-.00586.00049c-.0765.00619-.14519.01156-.222.01758l-.01562.0013-.22071.01726-.00911.00065c-.0765.006-.15072.01172-.22754.01757h-.00033c-.11718.009-.23274.01775-.35026.02653l-.00032.00017-.2334.01741h-.00195c-.15463.01156-.31315.02311-.46843.03435l-.00228.00016c-.11458.0083-.23112.0166-.34635.02474l-.00977.00065c-.07454.00521-.15462.0109-.22916.016l-.00684.00049c-.07487.00521-.15137.01058-.22624.01562l-.01627.00114c-.07487.00521-.15039.01026-.22526.0153l-.00879.00065-.22559.01514-.02116.0013-.10123.00684-.00619.00032-.11458.00749-.00912.00065-.113.00732-.00065.00017q-.23632.01538-.474.03027l-.01074.00065-.10482.00651-.01237.00082-.10579.00667-.02409.00146-.10352.00635-.00586.00033-.11068.00683-.02376.00147-.0931.00553-.01627.00114-.22852.01367-.01432.00082-.22005.013-.02832.00163-.1071.00618-.00879.00049-.10482.006-.02018.00114c-.07292.00423-.14941.00863-.22266.0127l-.02246.0013-.10026.00569-.01237.00066-.11067.00618-.02116.00114-.097.00537-.0166.001-.10775.00586-.028.00146-.0905.00488-.0205.00114c-.07715.00424-.15137.00814-.22852.01221l-.01563.00081-.23177.01221-.01367.00065c-.07747.00407-.1556.00814-.23307.012l-.01172.00065-.1071.00537-.014.00065-.11459.00586-.01237.00049-.10351.00521-.01693.00081-.11426.0057-.013.00065-.09733.00472-.02864.0013c-.07455.00358-.14584.00716-.22038.01058l-.028.0013c-.071.00342-.15006.00716-.22135.01042l-.03158.00146-.10449.00489-.0026.00016-.11589.00521-.0179.00081-.11263.00521h-.00228l-.11719.00521-.02018.001-.10872.00489-.00359.00016-.12011.00521-.01237.00049-.10808.00472-.01334.00048c-.0791.00342-.15788.00684-.237.01009l-.0153.00066c-.07878.00341-.15918.00667-.23828.00992l-.01172.00049-.1123.00456-.00879.00033-.1198.00488-.00911.00032-.11361.00456-.01009.00033-.11686.00472-.01888.00065-.096.00374-.02539.001-.11654.00456-.00423.00016-.11067.00407-.02181.00081-.2308.00863-.02409.00081c-.08008.00293-.15332.0057-.23307.00846l-.01986.00082-.23372.00814-.02409.00081-.10189.00358-.0153.00049-.11718.00391-.01791.00065-.10514.00358-.015.00049-.11751.00374-.01888.00065-.09863.00326-.026.00081-.22787.00732-.03418.001-.08984.00277-.03516.00114-.09863.00293-.03516.00113-.09017.00277-.02376.00065-.11068.00326-.03092.00081-.08789.00261-.0332.001-.10678.00309-.03483.001-.0817.00228-.03548.001-.109.00309-.02832.00065-.08757.00244-.03613.001-.11263.00293-.00651.00016-.10449.00277-.03842.001-.09733.00245-.01595.00048-.112.00277-.03385.00081-.09408.00245-.02181.00048-.1123.00277-.03125.00065-.09017.00212-.03125.00081-.1084.00244-.0332.00082-.09668.00228-.01758.00032-.12109.00277-.01172.00016-.11068.00244-.02018.00049-.23958.00505-.0267.00048-.10156.00212-.0192.00033-.11491.00227-.02963.00066-.09407.00179-.026.00048-.11361.00212-.02865.00049-.09375.00179-.03059.00049-.112.00211-.03028.00049-.08659.00147-.03678.00065-.11556.00195-.013.00016-.10514.00179-.03028.00049c-.07552.0013-.15429.00244-.22981.00358l-.04265.00065-.09668.00147-.0166.00032-.11751.00163-.028.00049-.10709.00146-.0127.00017-.11881.00162-.02735.00033-.10221.0013-.02051.00033-.11654.00146-.03157.00033-.09245.00114-.0293.00032-.11556.00147-.02766.00032-.09441.001-.03222.00033c-.08041.001-.15853.00179-.23893.0026l-.027.00016-.11426.00114-.00749.00016-.12272.00114-.02344.00017-.10221.00081-.02474.00033-.11393.001-.03516.00017-.08561.00065-.042.00032-.11035.00082-.0293.00032-.09212.00065-.03483.00017-.11491.00065-.026.00016-.09571.00065-.03418.00016-.23763.0013-.03515.00017-.10482.00049h-.01563l-.11718.00048-.03776.00017-.09473.00032h-.02279l-.11816.00049h-.03093l-.10058.00033h-.02474l-.11784.00032h-.03158l-.09277.00016h-.03353l-.11719.00017h-.02343l-.099.00016H256c-64,0-85.33333-21.33333-85.33333-21.33333l-21.33334-85.33334h0a10.66677,10.66677,0,0,0-10.66666-10.66666Z" style="fill:#df8d00"/><path d="M396.10742,341.41463a10.77793,10.77793,0,0,0-1.52181.10856,10.66683,10.66683,0,0,0-9.0511,12.068l18.10188,126.71362a10.66862,10.66862,0,0,0,10.54623,9.15951,10.77647,10.77647,0,0,0,1.52181-.10857,10.667,10.667,0,0,0,9.0511-12.06787h0L406.65332,350.5743a10.66792,10.66792,0,0,0-10.5459-9.15967Z" style="fill:#df8d00"/><circle cx="128" cy="448" r="21.33333" style="fill:#006ce2"/><circle cx="117.33333" cy="437.33333" r="10.66667" style="fill:#46a4f2"/><circle cx="384" cy="448" r="21.33333" style="fill:#006ce2"/><circle cx="373.33333" cy="437.33333" r="10.66667" style="fill:#46a4f2"/><path d="M256,106.66667c-106.03906,0-192,38.20442-192,85.33333,0,11.32552,5.07292,22.11068,14.08724,31.9987,28.49479-31.26042,97.35547-53.332,177.91276-53.332s149.418,22.07161,177.91276,53.332C442.92708,214.11068,448,203.32552,448,192,448,144.87109,362.03906,106.66667,256,106.66667Z" style="fill:#f4ac03"/><path d="M256,106.66667h-.193l-.13379.00008-.06315.00008-.09831.00008-.06771.00008-.0957.00016-.07194.00009-.09343.00016-.0664.00016-.09473.00016-.07259.00017-.0957.00024-.06381.00016-.09277.00033-.0778.00016-.08008.00033-.07975.00024-.09993.00033-.06153.00024-.32031.00139-.07031.00032-.098.00049-.05859.00024-.10156.00057-.06966.00041-.09408.00049-.07422.00041-.0804.00048-.08691.00057-.07943.00049-.07813.00049-.08366.00057-.0804.00057-.08529.00057-.07584.00057-.08627.00065-.07649.00057-.08073.00065-.11556.0009-.124.00105-.05468.00049-.1071.0009-.08008.00073-.07715.00073-.08756.00082-.07813.00073-.07714.00073-.085.00081-.08138.00082-.0791.00081-.07975.00082-.08529.00089-.07714.00081-.09017.00106-.06674.00073-.10546.00114-.05762.00065-.10091.00123-.06446.00073-.08658.00106-.11947.00146-.11491.00147-.06185.00081-.09733.00122-.07682.00106-.08594.00114-.07454.001-.08724.00122-.07487.001-.08952.0013-.07292.00106-.08594.00122-.07714.00114-.084.00122-.08138.00122-.07454.00114-.08627.0013-.07617.00122-.08561.00131-.0778.00122-.08105.0013-.12761.00212-.04557.00073-.14844.00252-.0472.00081-.11295.00188-.06381.00114-.09733.0017-.07389.00131-.08333.00146-.08236.00155-.07715.00138-.08756.00163-.0739.00138-.0817.00155-.08464.00163-.07585.00138-.08789.00171-.07161.00146-.09342.00179-.06967.00139-.08951.00187-.07227.00146-.07487.00147-.16536.0035-.07553.00154-.08463.00179-.07422.00163-.08171.00171-.08365.00187-.07292.00155-.08757.002-.07324.00163-.08952.002-.07519.00171-.08008.00188-.08333.00187-.07455.00179-.08919.002-.0651.00155-.09375.00228-.06511.00154-.09765.00236-.02865.00065c-.13412.00326-.2627.00651-.39681.00985l-.04232.00106-.10124.0026-.057.00147-.10319.00268-.05371.00139-.11.00293-.0472.00122-.10221.00268-.0612.00163-.10026.00277-.05339.00138-.10742.00293-.04687.0013-.111.0031-.04947.00138-.10482.00293-.06022.00171-.10092.00285-.03287.001c-.12077.00342-.24414.007-.36524.01058l-.07129.00212-.08658.00252-.07032.00212-.0944.00284-.0638.002-.099.003-.056.00171-.099.003-.0664.002-.09082.00285-.06478.002-.0944.003-.06739.00211-.09082.00293-.06738.00212-.09082.00293-.07161.00236-.08789.00285-.055.00179c-.11426.00382-.234.00773-.3483.01163l-.06674.0022-.09147.00318-.06608.00219-.09212.00318-.06576.00228-.09375.00325-.06608.00228-.08886.00317-.06934.00244-.0944.00334-.06022.00212-.097.0035-.05924.00211-.10059.00366-.05534.002-.10058.00366-.04525.00171c-.13314.00488-.27539.01017-.40853.01513l-.01042.00041-.09928.00375-.0625.00244-.10254.0039-.05045.00187-.10026.00391-.06283.00244-.09115.00358-.067.00261-.08887.0035-.07194.00284-.08952.0035-.06152.00245-.09766.0039-.05859.00236-.10091.00407-.0446.00187-.11458.00464-.014.00057c-.14551.00594-.29395.01213-.43913.01823l-.00358.00008-.10449.0044-.05827.00252-.10091.00423-.05274.00228-.10416.00448-.05176.00219-.10645.00464-.05273.00228-.09538.00415-.06673.00293-.09407.00407-.06283.00277-.08984.004-.06934.0031-.09277.00415-.06283.00284-.09049.00407-.06576.00293c-.17643.008-.34147.01555-.5179.02377l-.03646.00171-.11426.00537-.03939.00179-.11393.00537-.04232.002-.11946.00562-.02962.00146-.11784.00562-.0459.00219-.11426.00554-.02767.0013-.12988.00635-.0127.00057c-.28939.01408-.57942.02848-.86849.04321l-.03483.00171-.12011.00618-.03353.00171-.11361.00578-.0446.00236-.112.00578-.041.00212-.11361.00594-.03776.002-.1237.00651-.01985.001-.12826.00675-.0332.00179c-.28841.0153-.568.03044-.85612.04623l-.028.00154-.13639.00757-.00976.00049-.13086.00732-.03125.00171-.11394.00643-.04589.00252-.1058.00594-.05176.00293-.10807.00619-.03288.00187-.125.00708-.013.00081c-.28776.01644-.585.03378-.87207.05079l-.02344.00138-.13313.00789-.01628.001-.13249.008-.02018.00123-.137.00821-.00944.00057-.13672.00831-.01953.00122q-.58936.03576-1.17871.07324l-.00847.00057-.14225.00911-.00716.00041-.13672.00879-.01921.00122-.138.00895-.00456.00025-.1416.00919-.01595.00106c-.38541.02506-.78743.05176-1.1722.07788l-.01432.001-.1377.00936-.01171.00081-.138.00952-.01139.00073c-33.2526,2.2819-63.67936,8.35425-88.99186,17.195l-.00716.00252c-.45313.15829-.89811.31511-1.348.47526l-.00717.00253-.10677.038-.0052.00187-.10775.03841-.00488.00163c-.25749.092-.51563.18457-.77214.277l-.0127.00464-.09407.03393-.02214.00806-.09212.03328-.02083.00757-.08757.03166-.03418.01237-.08105.02946-.0293.01058-.08659.03149-.026.00944-.09049.03288-.0127.00456c-.167.06087-.34114.12443-.50781.18554l-.04785.01766-.06641.02426-.04753.01757-.06868.02515-.04557.01685-.0739.0271-.04036.01489-.071.0262-.04525.01669-.07259.02685-.04134.01522-.07064.02612-.04688.01742-.07.02588-.0446.01652-.06738.02506-.04948.01831-.17188.064-.00521.00187-.08724.03255-.02473.00928-.06869.02563-.05078.019-.07.02621-.03906.01448-.07227.0271-.04785.018-.06347.02376-.05144.01937-.05859.02189-.06413.02417-.05208.01961-.057.02133-.05989.02254-.05957.02254-.05371.02026-.06967.02629-.04427.01668-.08235.03117-.0573.02173-.08854.03353-.0498.019-.06576.0249-.04134.01571-.07877.02995-.03386.013-.08105.03076-.03744.01424-.07617.029-.04557.0175-.06966.02653-.043.01644-.07357.02824-.0446.017-.069.02653-.04459.01709-.07162.0275-.04492.01717c-.15365.05917-.30632.11792-.45964.17725l-.026.01009-.09179.03548-.02572.01009-.08529.03305-.03645.01416-.08008.031-.03679.01432-.07584.02955-.03809.01481-.08529.03328-.02766.01082-.09115.03557-.02246.00879-.10417.04077-.01041.004c-.15756.06168-.31218.12239-.46941.18424l-.00195.00081-.11035.04346-.01888.00757-.09733.03841-.01758.00684-.09538.03776-.02441.00976-.099.03907-.01009.004-.10352.0411-.01562.00627q-.46582.18493-.929.37142a.02109.02109,0,0,0-.0026.001q-8.63331,3.47388-16.27995,7.39152a10.66665,10.66665,0,1,0,9.72917,18.9856C154.23633,137.87817,203.57812,128,256,128a10.66667,10.66667,0,1,0,0-21.33333Zm49.027,2.88248a10.6673,10.6673,0,0,0-1.26139,21.25806c56.681,6.82218,103.19173,25.89274,118.49218,48.58439A10.66663,10.66663,0,0,0,439.973,167.50553a74.4421,74.4421,0,0,0-13.51009-14.81266l-.00163-.0013c-.08952-.07642-.17708-.15112-.26692-.22738l-.00228-.00187c-.08692-.07389-.17546-.14876-.263-.22249l-.0127-.01066c-.085-.07137-.1735-.14584-.25879-.217l-.012-.01026-.06185-.05167-.00228-.0018c-.06543-.0546-.12826-.107-.194-.16153l-.01563-.01286-.05957-.04956-.00944-.00782c-.06282-.05208-.124-.10245-.18717-.15454l-.01921-.01587-.05468-.04492-.02084-.01717c-.05436-.04492-.11751-.09668-.1722-.14152l-.02929-.02384-.05079-.04159-.02506-.02034-.05339-.04371-.014-.01139-.1097-.08919-.02214-.018-.05045-.041-.02833-.02287-.0511-.04142-.02409-.01961-.10124-.08163-.02213-.01807-.05111-.04109-.028-.02238-.05079-.04094-.02864-.023-.0905-.07259-.03125-.02506-.04622-.03695-.03288-.02629-.0485-.03873-.03516-.02808-.04492-.03564-.07324-.05835-.04069-.03239-.04-.0319-.04427-.03508-.03744-.02954-.04622-.03654-.04557-.03613-.06608-.05225-.04167-.03271-.04525-.03557-.03873-.03051-.04395-.03451-.03906-.03076-.08073-.06323-.03451-.0271-.04655-.03638-.03808-.02954-.04492-.03524-.0433-.03369-.03776-.02946-.07584-.05892-.04037-.03133-.04687-.03646-.03646-.02824-.055-.04264-.02864-.02214-.08171-.06315-.02929-.02238-.05437-.04207-.03873-.0297-.05013-.03866-.03321-.02531-.07422-.05688-.0371-.02849-.05567-.04272-.03483-.02669-.05273-.04-.03288-.02523-.07682-.05843-.01823-.01392-.0739-.05623-.03222-.0245-.05762-.04345-.0293-.02238-.06543-.0494-.02343-.01782-.08366-.06315-.02735-.02059-.06087-.0459-.029-.02181-.07162-.05379-.01627-.012-.08724-.06535-.02344-.01774-.06575-.04907-.0267-.0201-.06608-.04932-.02506-.01855-.08757-.06527-.01172-.00871-.07584-.05631-.02637-.0197-.07161-.05314-.01726-.01261c-.06087-.04517-.12011-.089-.18131-.134l-.02149-.01571-.07129-.05273-.02246-.01636c-.06119-.04509-.12076-.08887-.18229-.13387l-.015-.011-.08073-.05892-.015-.01107-.08431-.0616-.00911-.00659-.0931-.06771-.014-.01025-.07812-.05665-.02149-.0157-.08235-.05973-.00749-.00554-.09668-.06982-.00358-.00269-.09049-.06535-.01368-.00984-.084-.06039-.01172-.00838c-.06217-.04476-.127-.09131-.18945-.136l-.0166-.01188-.08269-.05932-.01074-.00765-.19531-.13916-.00456-.00342-.08854-.06291-.015-.01074-.19369-.13713-.00521-.0035-.09049-.06412-.0127-.00887-.09147-.06446-.00488-.00333c-.06511-.046-.13119-.09237-.19662-.13827l-.00976-.00675q-.14893-.10437-.2985-.20858l-.00326-.0022c-18.30892-12.74756-44.02474-23.18734-74.456-30.12353-.00521-.00122.00065.00016-.00489-.00106-.22233-.0507-.44271-.10075-.66569-.151l-.01855-.00415c-.166-.03752-.33106-.07463-.49772-.1119l-.00651-.00155-.16537-.037-.00163-.00032-.3317-.074-.01953-.00431-.151-.03353-.012-.00268c-.11361-.02523-.21842-.04834-.332-.07349l-.014-.00309-.14648-.03223-.02539-.00561-.31966-.07023-.03711-.00806-.124-.02718-.03776-.0083-.14941-.03255-.00716-.00155-.16732-.03646-.00911-.00195-.14747-.03207-.03255-.007-.14713-.0319-.01172-.0026c-.111-.02393-.21647-.04671-.32748-.07056l-.02734-.00594-.141-.03027-.02279-.00488c-.10742-.023-.21777-.04672-.32519-.06967l-.02865-.0061-.13769-.02938-.0267-.00569c-.10742-.02287-.21582-.0459-.32356-.06869l-.03125-.00667-.13021-.02751-.03744-.008-.31771-.067-.03678-.00773-.1263-.02653-.03841-.00806-.14518-.03043-.01237-.00253-.16211-.03393-.03125-.00651-.127-.02645-.04752-.00985-.12565-.0262-.02963-.00619-.16243-.03361-.0153-.00317-.14063-.02914-.0498-.01025-.10579-.02181-.05632-.01155-.151-.03109-.02409-.005-.13216-.0271-.056-.01147-.10449-.0214-.05469-.01115-.11231-.023-.06933-.01408-.125-.02547-.06413-.013-.08854-.018-.07194-.01465-.09245-.01871-.06315-.01278-.13932-.02816-.08073-.01619-.07487-.01514-.07552-.01514-.084-.01692-.07519-.01506-.13933-.02791-.06868-.01376-.08333-.01668-.07911-.01571-.07845-.0157-.07845-.01555-.07877-.0157-.14388-.02848-.06576-.01311-.08593-.017-.06934-.01367-.08854-.01749-.058-.01148-.1595-.03133-.06869-.01351-.08365-.01644-.07162-.01408-.08821-.01717-.054-.01058-.1862-.03637-.0446-.00871-.08658-.01685-.06869-.01343-.09082-.01765-.055-.01067-.33268-.06429-.04721-.00911-.099-.019-.04851-.00936-.34017-.06527-.04329-.00822-.10352-.01977-.04622-.00879-.10384-.01986-.02767-.00521-.22461-.04272-.02539-.0048-.11393-.02157-.0293-.00553-.11719-.02222-.02116-.004-.235-.04419-.01888-.00358-.11231-.02108-.0332-.00626-.11491-.02149-.02278-.00431-.38282-.07145-.00814-.00147-.13151-.02441-.00325-.00057c-7.639-1.41764-15.53418-2.6228-23.63574-3.59757a10.77887,10.77887,0,0,0-1.26172-.07439Z" style="fill:#ffd432"/><path d="M256,149.33333c-71.0179,0-136.59017,16.55656-175.40625,44.28882a10.66669,10.66669,0,1,0,12.40169,17.35832q1.86036-1.3291,3.8265-2.62565l.001-.00057c.10254-.06763.20215-.13306.305-.2006l.00456-.00285.11556-.0756.00748-.005.18034-.11759.00912-.00611.109-.07088.01432-.00936.11426-.074.00423-.00277.06022-.03914.00619-.00391.11132-.072.01856-.012.10547-.068.01106-.00708c.06218-.04.11882-.0765.18132-.11654l.01042-.00667.10872-.06982.0153-.00977.11263-.0721.00684-.00423.05794-.03711.02409-.01538.09017-.05746.03255-.02051.08366-.05322.03385-.02157.05143-.03263.04-.02547.07813-.04932.0319-.02018.08333-.05273.03255-.02067.09213-.058.02506-.01587.054-.03393.03613-.02279.0765-.048.043-.02686.0664-.04175.04948-.03092.04525-.02832.07259-.04533.04362-.0271.05013-.03133.05957-.03719.05436-.03377.04167-.0258.07357-.04574.04394-.02718.0612-.03808.05046-.03125.055-.03386.04883-.03027.06706-.04134.041-.02539.07552-.04655.04069-.02491.05664-.03491.04948-.03035.0638-.03915.03907-.02384.07747-.04753.03906-.02376.06706-.041.0446-.02726.06445-.03914.0332-.02018.082-.05.03483-.02116.08334-.05054.03092-.01863.06966-.0424.03093-.01856.08235-.04988.03126-.01889.08365-.05045.03418-.02067.07585-.04574.03288-.01969.07454-.04484.02962-.01774.08594-.05152.0319-.019.08627-.05168.02767-.01668.07552-.04492.02343-.014.09017-.05387.027-.016.08984-.05355.0267-.01587.09017-.05355.01237-.00716.09082-.05387.02409-.01433.09244-.05468.02344-.01384.096-.05664.01562-.00911.08692-.05127.02051-.01213.09375-.055.02441-.01433.09473-.0555.01855-.011.09929-.05811.00325-.00179.10156-.05932.01823-.01075.097-.05664.02051-.01188.10026-.05827.00781-.00455.09961-.05787.012-.00708.10189-.05892.0166-.00968.09994-.05778.01692-.00968c.06934-.04021.1416-.08171.21127-.12183l.01074-.00627.10449-.06.01367-.0079.10612-.06087.00163-.00089.10742-.06161.00879-.00505.10645-.06079.01139-.00643.10872-.062.00228-.0013.22526-.12817.00651-.00358c.11231-.06381.22754-.129.3405-.19271l.00521-.003.10905-.06136.01074-.006q.16943-.09546.33952-.19059l.00586-.00334.11295-.063.00261-.00155.23014-.12834.00228-.00114.11393-.06331.00456-.00268c.11425-.06324.23307-.12907.34733-.19222l.00293-.00155c26.36425-14.55013,63.22558-25.17228,105.5-29.5787l.00195-.00016c.624-.065,1.2513-.129,1.8776-.19132l.01237-.00122q1.31886-.13112,2.64323-.25424l.00358-.00024c.819-.07609,1.64681-.15047,2.47006-.22184l.00293-.00025.17968-.01554.02149-.00187c.12109-.01042.24772-.02132.36881-.03166l.00228-.00016c.50716-.0433,1.01921-.086,1.528-.12752l.0013-.00017c.25683-.02091.50716-.04109.764-.0616l.0039-.00033c.1263-.01.25391-.02018.38021-.03011l.00195-.00016.1875-.01473.00847-.00065.18685-.01457.0013-.00008c.1263-.00985.24967-.01937.376-.02913l.0127-.001.18424-.01408.00652-.00049c.18717-.01432.38281-.02913.57031-.04321l.00553-.00041c.25326-.019.50944-.038.763-.05656l.01009-.00073c.12663-.00928.24447-.01782.3711-.027l.014-.001.18457-.01327.00586-.00049c.127-.00911.25261-.01806.37956-.027l.00391-.00032.18294-.01294.01725-.00114.18067-.0127.01172-.00081.18229-.01269.00455-.00033.17709-.01229.02669-.00179.17285-.01188.02116-.00147c.1224-.00838.24642-.01684.36914-.02514l.00716-.00049.181-.01221.02051-.0013.18066-.01212.00749-.00049c.1224-.00814.25423-.01693.37728-.025l.00944-.00057.1862-.0122.00814-.00057c.123-.00806.248-.01612.37076-.024l.01791-.00114.17611-.01131.02441-.00155.17838-.01139.00814-.00049c.12305-.00781.25586-.01619.37891-.02384l.00716-.00049c.18913-.0118.38737-.024.57682-.03565l.00358-.00016.19108-.01164.00456-.00032.19076-.01148.00358-.00024c.12793-.00765.25423-.01522.38216-.02279l.00846-.00049c.18978-.01123.38021-.02237.57-.03336l.016-.001.18262-.0105.013-.00073c.12825-.00732.25228-.0144.38053-.02165l.00326-.00016.1875-.01058.01334-.00073c.19011-.01066.37956-.02116.57-.03149l.014-.00082.18359-.01.014-.00073.18555-.01.00618-.00033.179-.0096.0179-.00089.1722-.00912.03613-.00195.17416-.00912.00683-.0004.18164-.00944.01237-.00065.17839-.0092.02441-.00122.17709-.00912.02018-.001.182-.00928.00293-.00008.18164-.00911.01985-.00106.17969-.00887.02083-.00106.17806-.00879.01986-.001.17122-.00838.015-.00073.17676-.00855.028-.0013.17676-.00846.01725-.00082.17416-.0083.01432-.00065.18034-.00854.0205-.0009.17351-.008.03353-.00163.17545-.00806.00684-.00032.17871-.00814.01823-.00082.179-.008.02312-.00106.17936-.00806.016-.00065c.12467-.00553.24186-.01074.36621-.01611l.02865-.0013.17545-.00757.02376-.00106.17969-.00765.00912-.00041.17643-.00748.01986-.00082.17252-.00724.03451-.00147.1748-.00724.01758-.00073.167-.00684.02442-.001.17578-.00716.02571-.001.17351-.007.0319-.00122c.11523-.00464.235-.00936.35026-.01383l.03776-.00147.167-.00651.03353-.00122.17448-.00667.0205-.00082.17351-.00659.01269-.00041.17936-.00675.02767-.001.17872-.00659.01627-.00065.17806-.00643.0127-.00049.17252-.00618.03418-.00122.16569-.00586.04069-.00147.1722-.006.01465-.00049.15658-.00545.04459-.00155.16407-.00553.03613-.0013.17285-.00578.02409-.00081c.12077-.004.24251-.00806.36328-.012l.02767-.00089.1735-.00562.03028-.001.17708-.00562.015-.00049.17481-.00545.0179-.00057.17741-.00553.0306-.0009.17611-.00537.02115-.00065.16895-.00505.01953-.00057.18229-.00537.01953-.00057.17676-.00512.0332-.001c.12077-.0035.23666-.00676.35775-.01017l.03028-.00082.17415-.00488.028-.00073.17579-.0048.02669-.00074.1709-.00455.01269-.00033.17481-.00464.03808-.001.16927-.0044.02963-.00073c.11653-.00293.24316-.00619.3597-.009l.03287-.00082.1722-.00423.03125-.00073.17872-.00432.01074-.00024.18261-.00431.01205-.00025.18555-.00431.01855-.00041.18555-.00423.01432-.00032.3763-.0083.02214-.00041.18261-.00391.01693-.00041.38021-.00781.01367-.00024.18034-.00358.02962-.00057.17741-.0035.02051-.00041.18587-.0035h.00033l.18717-.0035.02181-.0004.17969-.00318.02572-.00049.18294-.00325.00749-.00008.16992-.00293.03613-.00065.17415-.00285.02767-.00049.17969-.00293.01856-.00024.18359-.00293.00521-.00008.18229-.00277.0293-.00049.18554-.00277h.00423c.12663-.00187.25847-.00374.38542-.00553l.01888-.00024.181-.00245.028-.00032.17773-.00236.02246-.00025.17513-.00219.01367-.00017.1836-.00227.02474-.00025.179-.00211.02474-.00033.36589-.004.0319-.00032.17318-.00179.03483-.00033.17382-.00171.02474-.00024.17383-.00163.01335-.00016.17708-.00155.03972-.00032.1722-.00147.02343-.00024.37728-.00293.015-.00008.18652-.00131.02051-.00016.18815-.00122.00358-.00008.18685-.00114.01758-.00008.18424-.00106.02214-.00008.18619-.001.01172-.00008.18555-.00089.01009-.00009.18067-.00073.03059-.00016.18-.00073h.02116l.18847-.00065h.0013l.18653-.00057.02213-.00009.17806-.00048h.03321l.17871-.00041h.0153l.17545-.00033h.02149l.1761-.00024h.03451l.1735-.00008.03353-.00008H256l.21224.00008h.01628l.2028.00008.02506.00008.19661.00024h.02995l.19759.00041h.0267l.19661.00049.02995.00008.19889.00057h.02149l.20377.00073.01823.00008c.44173.00155.88542.00383,1.3265.00668l.0026.00008q11.92725.0785,23.47233.79l.00944.00057.19629.012.03223.002.18.01115.04688.00293.16211.01009.06868.00431.13119.00822.09863.00627.082.0052.16048.01026.03744.00236c.1735.01115.348.02238.52148.03369q.294.01917.58464.02238.26807.033.54.05257c12.17675.82756,23.96517,2.16333,35.27213,3.95858l.00521.00081c.14453.023.29037.04623.43457.06926l.00684.00114c.09635.01538.195.03125.291.04671l.0013.00016.29037.04679.00814.00131.14127.02286.00065.00017.28744.04663.012.002c.0918.0149.18815.03068.27963.04566l.0192.00309.12793.021.01042.0017.27474.04525.02864.00464.2666.04419.03451.0057.10482.01741.02832.00464.13151.022.02441.004.10645.01782.04232.007.10351.01734.026.00439.12533.021.04329.00732.08561.0144.05079.00847.12076.02034.0306.00521.10026.01693.0433.00732.0944.016.05729.00969.09538.01627.06575.01115.05437.00928.07389.01261.0192.00318.16081.0275.0472.00806.0739.0127.04264.00732c.09114.01554.17871.03068.26953.04631l.027.00463c.097.01669.195.03361.29166.05038l.00554.001c36.78418,6.36971,68.05013,17.64274,89.76725,32.00878a10.66671,10.66671,0,0,0,11.77018-17.79264c-33.403-22.09619-83.25846-36.407-140.38248-40.29647q-.30909-.02112-.61491-.02441-.3042-.03723-.61361-.05754c-9.69857-.633-19.62207-.954-29.49414-.954Z" style="fill:#cc7006"/></g></svg>