<svg xmlns="http://www.w3.org/2000/svg" xmlns:xlink="http://www.w3.org/1999/xlink" width="6912" zoomAndPan="magnify" viewBox="0 0 5184 2592.000001" height="3456" preserveAspectRatio="xMidYMid meet" version="1.0"><defs><clipPath id="17d9471b7f"><path d="M 4538 1612.742188 L 5183 1612.742188 L 5183 2591 L 4538 2591 Z M 4538 1612.742188 " clip-rule="nonzero"/></clipPath><clipPath id="a9bf8915a4"><path d="M 1 0 L 1197 0 L 1197 1144 L 1 1144 Z M 1 0 " clip-rule="nonzero"/></clipPath><clipPath id="a6da4ecd85"><path d="M 1 547 L 381 547 L 381 1398 L 1 1398 Z M 1 547 " clip-rule="nonzero"/></clipPath><clipPath id="f7b705dd76"><path d="M 3877 1571 L 5183 1571 L 5183 2591 L 3877 2591 Z M 3877 1571 " clip-rule="nonzero"/></clipPath><clipPath id="2d5c02d4de"><path d="M 4400 1482 L 5183 1482 L 5183 2384 L 4400 2384 Z M 4400 1482 " clip-rule="nonzero"/></clipPath><clipPath id="182f677d79"><path d="M 1 1618 L 927 1618 L 927 2591 L 1 2591 Z M 1 1618 " clip-rule="nonzero"/></clipPath><clipPath id="11a5e47183"><path d="M 36 1673 L 935 1673 L 935 2591 L 36 2591 Z M 36 1673 " clip-rule="nonzero"/></clipPath></defs><path fill="#ffffff" d="M 1 0 L 5183 0 L 5183 2591 L 1 2591 Z M 1 0 " fill-opacity="1" fill-rule="nonzero"/><path fill="#023035" d="M 1 0 L 5183 0 L 5183 2591 L 1 2591 Z M 1 0 " fill-opacity="1" fill-rule="nonzero"/><g clip-path="url(#17d9471b7f)"><path fill="#7a8b68" d="M 4569.414062 2648.820312 C 4549.5625 2616.9375 4531.519531 2582.164062 4540.539062 2544.480469 C 4547.757812 2514.058594 4578.4375 2490.871094 4607.308594 2470.578125 C 4632.582031 2454.636719 4659.648438 2440.144531 4688.523438 2431.457031 C 4722.8125 2419.863281 4755.292969 2414.0625 4787.777344 2399.566406 C 4831.089844 2380.734375 4870.796875 2356.097656 4910.496094 2331.464844 C 4939.375 2312.628906 4973.660156 2293.785156 4997.117188 2270.605469 C 5022.378906 2245.964844 5033.214844 2212.632812 5044.042969 2182.210938 C 5054.871094 2147.425781 5065.695312 2108.296875 5063.890625 2070.628906 C 5063.890625 2050.332031 5053.0625 2031.496094 5045.851562 2011.210938 C 5035.019531 1986.582031 5029.601562 1960.492188 5024.1875 1935.859375 C 5020.574219 1911.222656 5013.367188 1888.039062 5009.753906 1863.402344 C 5006.144531 1841.675781 5009.753906 1818.484375 5015.164062 1796.746094 C 5022.378906 1773.558594 5029.601562 1748.925781 5042.238281 1728.640625 C 5053.0625 1712.703125 5067.5 1698.207031 5081.933594 1683.714844 C 5094.566406 1672.128906 5107.203125 1657.632812 5119.835938 1646.035156 C 5130.660156 1638.789062 5143.296875 1633 5155.929688 1628.648438 C 5179.390625 1621.402344 5201.042969 1612.707031 5226.308594 1612.707031 L 5226.308594 2648.820312 Z M 4569.414062 2648.820312 " fill-opacity="1" fill-rule="nonzero"/></g><g clip-path="url(#a9bf8915a4)"><path fill="#ffd6ff" d="M -54.992188 1143.175781 C -137.421875 1143.175781 -231.289062 1116.320312 -282.660156 1039.023438 C -342.671875 949.113281 -316.285156 833.28125 -295.269531 772.097656 C -283.128906 736.367188 -267.484375 701.570312 -252.539062 667.941406 C -231.992188 621.9375 -210.976562 574.296875 -198.367188 525.253906 C -177.117188 441.652344 -189.492188 373.460938 -239.464844 296.863281 C -286.164062 225.167969 -282.660156 144.601562 -273.089844 75.007812 C -249.503906 -94.535156 -152.367188 -246.328125 -12.960938 -330.632812 C 30.9375 -357.257812 144.1875 -414.003906 245.0625 -363.5625 C 292.699219 -339.742188 325.855469 -297.238281 357.847656 -256.136719 C 390.539062 -214.335938 421.359375 -174.871094 465.726562 -153.851562 C 513.828125 -131.433594 567.535156 -135.167969 624.511719 -139.140625 C 648.796875 -140.773438 673.78125 -142.410156 698.066406 -142.175781 C 806.179688 -140.074219 913.589844 -90.796875 985.746094 -10.464844 C 1057.898438 69.871094 1095.261719 182.199219 1085.6875 289.855469 C 1082.882812 320.917969 1076.34375 352.210938 1070.273438 382.335938 C 1059.066406 436.746094 1048.324219 488.125 1057.429688 539.734375 C 1066.773438 591.34375 1095.726562 638.285156 1123.980469 683.589844 C 1131.453125 695.734375 1139.160156 707.875 1146.398438 720.019531 C 1194.03125 800.820312 1207.574219 868.078125 1188.195312 925.527344 C 1159.707031 1009.132812 1069.339844 1046.027344 1000.6875 1052.101562 C 940.445312 1057.472656 880.902344 1046.261719 822.992188 1035.519531 C 806.644531 1032.484375 790.300781 1029.449219 773.953125 1026.644531 C 604.429688 998.855469 427.898438 1011 263.507812 1061.675781 C 237.589844 1069.617188 211.671875 1078.722656 185.75 1087.597656 C 121.070312 1110.015625 54.289062 1133.371094 -15.296875 1140.84375 C -28.140625 1142.476562 -41.449219 1143.175781 -54.992188 1143.175781 Z M 156.097656 -360.527344 C 90.015625 -360.527344 28.136719 -328.53125 -1.054688 -310.785156 C -134.386719 -229.984375 -227.320312 -84.492188 -249.972656 78.277344 C -259.078125 143.433594 -262.582031 218.863281 -220.082031 284.019531 C -166.84375 365.519531 -153.300781 441.652344 -175.949219 531.09375 C -189.027344 582.003906 -210.507812 630.578125 -231.289062 677.515625 C -246 710.679688 -261.414062 745.242188 -273.320312 779.804688 C -292.9375 836.785156 -317.6875 944.675781 -263.28125 1026.179688 C -209.109375 1107.449219 -100.992188 1126.832031 -17.867188 1117.957031 C 49.152344 1110.714844 114.765625 1087.832031 178.046875 1065.878906 C 204.199219 1056.769531 230.117188 1047.664062 256.503906 1039.488281 C 424.164062 987.644531 604.429688 975.503906 777.457031 1003.757812 C 794.035156 1006.5625 810.617188 1009.597656 826.960938 1012.632812 C 883.234375 1023.144531 941.378906 1034.117188 998.355469 1028.980469 C 1065.136719 1023.144531 1142.660156 986.476562 1166.011719 918.054688 C 1183.292969 867.378906 1170.214844 806.425781 1126.316406 731.929688 C 1119.3125 719.785156 1111.839844 707.875 1104.367188 695.964844 C 1074.945312 648.792969 1044.589844 599.984375 1034.546875 543.9375 C 1024.507812 487.890625 1036.183594 431.84375 1047.390625 377.664062 C 1053.460938 348.238281 1059.765625 317.648438 1062.570312 287.988281 C 1071.441406 186.636719 1036.417969 81.078125 968.464844 5.417969 C 900.515625 -70.246094 799.40625 -116.488281 697.597656 -118.589844 C 674.246094 -119.054688 649.730469 -117.421875 625.914062 -115.785156 C 568.46875 -111.816406 509.160156 -107.613281 455.453125 -132.835938 C 405.949219 -156.1875 371.855469 -199.625 338.933594 -241.894531 C 306.941406 -282.761719 277.054688 -321.292969 234.089844 -342.777344 C 208.867188 -355.621094 182.015625 -360.527344 156.097656 -360.527344 Z M 156.097656 -360.527344 " fill-opacity="1" fill-rule="nonzero"/></g><path fill="#e7c6ff" d="M 742.199219 445.386719 C 679.617188 445.386719 616.804688 435.113281 555.394531 410.824219 C 503.320312 390.273438 432.335938 350.574219 389.371094 278.414062 C 349.441406 211.390625 345.9375 128.71875 380.261719 67.769531 C 397.308594 37.644531 422.058594 13.824219 446.113281 -9.0625 C 460.589844 -22.839844 475.535156 -37.320312 488.375 -52.5 C 512.425781 -81.457031 516.398438 -111.582031 520.601562 -143.808594 C 523.402344 -165.292969 526.4375 -187.714844 535.3125 -210.601562 C 557.960938 -268.980469 618.671875 -331.335938 665.609375 -364.730469 C 724.683594 -406.765625 820.890625 -430.117188 891.875 -382.246094 C 925.5 -359.59375 947.449219 -325.496094 968.699219 -292.335938 C 986.445312 -264.777344 1003.257812 -238.625 1026.375 -218.539062 C 1068.640625 -181.875 1128.652344 -169.5 1186.5625 -157.355469 C 1257.78125 -142.410156 1331.101562 -127.230469 1374.535156 -67.210938 C 1422.167969 -1.121094 1406.757812 88.085938 1370.097656 147.402344 C 1331.101562 210.457031 1268.988281 254.125 1207.578125 291.726562 C 1082.417969 368.089844 913.824219 445.386719 742.199219 445.386719 Z M 679.382812 -345.8125 C 633.851562 -313.351562 577.34375 -253.804688 557.261719 -202.191406 C 549.320312 -181.875 546.519531 -160.859375 543.949219 -140.773438 C 539.515625 -106.679688 534.84375 -71.648438 506.589844 -37.554688 C 493.046875 -21.207031 477.402344 -6.492188 462.457031 7.984375 C 438.640625 30.871094 415.988281 52.355469 400.8125 79.445312 C 370.457031 133.15625 373.957031 206.71875 409.453125 266.738281 C 448.914062 333.292969 515.230469 370.191406 564.03125 389.574219 C 784.929688 476.914062 1029.410156 373.925781 1195.667969 271.875 C 1254.511719 235.675781 1314.054688 194.109375 1350.480469 135.257812 C 1382.941406 82.714844 1397.183594 4.015625 1355.851562 -53.433594 C 1317.792969 -105.976562 1251.941406 -119.757812 1182.125 -134.234375 C 1121.179688 -146.847656 1058.367188 -160.15625 1011.429688 -200.558594 C 985.746094 -222.742188 967.296875 -251.699219 949.316406 -279.492188 C 928.535156 -311.953125 908.921875 -342.542969 879.265625 -362.628906 C 817.152344 -404.898438 732.15625 -383.414062 679.382812 -345.8125 Z M 679.382812 -345.8125 " fill-opacity="1" fill-rule="nonzero"/><g clip-path="url(#a6da4ecd85)"><path fill="#e7c6ff" d="M -259.078125 1397.726562 C -313.953125 1397.726562 -370.460938 1379.277344 -417.863281 1343.546875 C -483.242188 1294.273438 -530.179688 1215.570312 -549.558594 1121.925781 C -575.710938 996.285156 -510.097656 714.882812 -369.058594 598.117188 C -305.078125 545.105469 -232.691406 533.429688 -159.835938 563.789062 C -75.542969 598.816406 -19.5 675.648438 28.601562 753.414062 L 43.546875 777.703125 C 83.941406 843.792969 125.507812 912.214844 187.386719 957.054688 C 205.601562 970.132812 225.679688 981.574219 245.296875 992.550781 C 268.878906 1005.859375 293.398438 1019.40625 315.347656 1036.921875 C 354.8125 1068.214844 391.703125 1121.925781 377.226562 1178.90625 C 359.246094 1249.199219 274.484375 1276.523438 202.796875 1272.320312 C 182.949219 1271.152344 162.867188 1268.582031 143.722656 1266.015625 C 96.550781 1259.710938 51.953125 1253.871094 9.6875 1267.183594 C -25.339844 1278.15625 -54.292969 1300.8125 -85.117188 1324.863281 C -109.867188 1344.246094 -135.554688 1364.332031 -164.976562 1377.875 C -194.398438 1391.1875 -226.386719 1397.726562 -259.078125 1397.726562 Z M -238.761719 570.558594 C -278.925781 570.558594 -317.6875 585.738281 -354.347656 616.332031 C -489.316406 727.960938 -552.128906 997.21875 -526.910156 1117.253906 C -508.460938 1205.53125 -464.796875 1279.09375 -403.851562 1325.097656 C -336.136719 1376.007812 -244.132812 1388.851562 -175.015625 1356.625 C -148.164062 1344.011719 -123.410156 1324.863281 -99.59375 1306.414062 C -68.535156 1282.128906 -36.3125 1257.140625 2.683594 1244.996094 C 49.851562 1230.285156 99.121094 1236.824219 146.757812 1243.128906 C 165.671875 1245.695312 185.285156 1248.265625 204.199219 1249.433594 C 266.546875 1252.9375 339.867188 1230.984375 354.578125 1173.535156 C 366.253906 1127.53125 332.859375 1081.292969 300.871094 1055.835938 C 280.554688 1039.722656 257.90625 1026.878906 234.085938 1013.566406 C 214.007812 1002.359375 192.992188 990.683594 173.84375 976.667969 C 108.226562 929.03125 65.261719 858.738281 23.933594 790.546875 L 8.988281 766.257812 C -37.011719 691.761719 -90.253906 618.433594 -168.476562 585.972656 C -192.761719 575.464844 -215.878906 570.558594 -238.761719 570.558594 Z M -238.761719 570.558594 " fill-opacity="1" fill-rule="nonzero"/></g><g clip-path="url(#f7b705dd76)"><path fill="#ffd6ff" d="M 4320.277344 3333.210938 C 4227.769531 3333.210938 4135.523438 3305.0625 4060.476562 3249.285156 C 3918.976562 3144.507812 3853.050781 2952.9375 3900.214844 2783.265625 C 3911.679688 2742.082031 3929.402344 2701.945312 3946.339844 2663.371094 C 3975.265625 2597.949219 4002.625 2536.179688 4002.363281 2468.675781 C 4002.105469 2399.605469 3972.917969 2336.792969 3942.167969 2270.328125 C 3922.105469 2227.324219 3901.519531 2182.753906 3889.269531 2136.101562 C 3842.625 1957.824219 3935.65625 1746.707031 4105.296875 1645.320312 C 4261.386719 1552.011719 4471.417969 1546.539062 4653.824219 1630.464844 C 4778.125 1687.804688 4846.398438 1773.8125 4918.578125 1864.777344 C 4958.1875 1914.558594 4998.839844 1965.90625 5049.914062 2012.558594 C 5123.398438 2079.804688 5246.914062 2103.261719 5366.261719 2126.195312 C 5450.953125 2142.355469 5538.246094 2159.035156 5606.519531 2191.355469 C 5799.613281 2282.839844 5939.289062 2430.359375 5989.839844 2596.125 C 6049.773438 2793.167969 5968.992188 3014.1875 5805.347656 3098.894531 C 5648.734375 3180.214844 5469.191406 3131.996094 5295.644531 3085.605469 C 5127.308594 3040.511719 4953.238281 2993.859375 4805.746094 3069.183594 C 4754.148438 3095.507812 4711.675781 3134.082031 4666.855469 3174.742188 C 4631.15625 3207.0625 4594.410156 3240.421875 4552.71875 3266.746094 C 4483.140625 3311.316406 4401.839844 3333.210938 4320.277344 3333.210938 Z M 4385.945312 1597.101562 C 4290.050781 1597.101562 4197.019531 1620.820312 4118.585938 1667.472656 C 3958.324219 1763.128906 3870.507812 1961.734375 3914.285156 2129.324219 C 3926.011719 2173.632812 3946.078125 2217.160156 3965.621094 2259.121094 C 3996.371094 2325.324219 4028.164062 2393.609375 4028.421875 2468.414062 C 4028.683594 2541.390625 3998.976562 2608.636719 3970.3125 2673.796875 C 3953.636719 2711.589844 3936.4375 2750.683594 3925.492188 2790.039062 C 3881.714844 2947.207031 3945.035156 3131.476562 4075.847656 3228.433594 C 4206.664062 3325.390625 4401.320312 3332.425781 4538.90625 3245.113281 C 4578.515625 3219.832031 4614.476562 3187.253906 4649.394531 3155.714844 C 4693.695312 3115.578125 4739.296875 3074.136719 4794.019531 3046.246094 C 4950.371094 2966.230469 5129.390625 3014.1875 5302.417969 3060.582031 C 5471.277344 3105.933594 5645.871094 3152.585938 5793.359375 3075.960938 C 5946.0625 2996.726562 6021.371094 2789.257812 5964.824219 2603.683594 C 5916.355469 2444.957031 5781.632812 2303.167969 5595.316406 2214.8125 C 5529.910156 2183.796875 5448.085938 2168.160156 5361.3125 2151.738281 C 5238.316406 2128.28125 5111.152344 2104.042969 5032.195312 2031.847656 C 4979.554688 1983.886719 4938.121094 1931.5 4897.992188 1880.9375 C 4827.632812 1792.320312 4761.1875 1708.65625 4642.621094 1654.183594 C 4560.273438 1616.128906 4471.675781 1597.101562 4385.945312 1597.101562 Z M 4385.945312 1597.101562 " fill-opacity="1" fill-rule="nonzero"/></g><g clip-path="url(#2d5c02d4de)"><path fill="#e7c6ff" d="M 5165.089844 2383.707031 C 5161.703125 2383.707031 5158.316406 2383.707031 5154.929688 2383.445312 C 5083.269531 2379.277344 5030.628906 2329.492188 4979.816406 2281.277344 C 4945.417969 2248.695312 4909.980469 2215.074219 4869.066406 2196.308594 C 4820.078125 2173.632812 4765.355469 2172.070312 4707.503906 2170.246094 C 4651.742188 2168.679688 4593.890625 2167.117188 4541.253906 2144.703125 C 4485.226562 2120.722656 4443.792969 2075.894531 4421.125 2014.644531 C 4380.992188 1906.738281 4405.226562 1772.511719 4446.921875 1687.542969 C 4536.824219 1504.316406 4732.261719 1444.628906 5043.917969 1505.097656 C 5146.328125 1524.90625 5262.550781 1547.582031 5351.667969 1618.214844 C 5442.875 1690.410156 5493.6875 1807.4375 5484.308594 1923.421875 C 5477.269531 2009.429688 5438.183594 2091.011719 5403.785156 2162.6875 C 5357.921875 2258.339844 5283.65625 2383.707031 5165.089844 2383.707031 Z M 4832.066406 1508.484375 C 4652 1508.484375 4532.652344 1571.558594 4470.113281 1699.011719 C 4430.765625 1779.027344 4407.832031 1904.914062 4445.359375 2005.519531 C 4465.945312 2060.515625 4501.382812 2099.351562 4551.414062 2120.722656 C 4599.363281 2141.3125 4652.261719 2142.617188 4708.027344 2144.179688 C 4765.875 2145.746094 4825.8125 2147.570312 4879.75 2172.589844 C 4924.570312 2193.441406 4961.574219 2228.367188 4997.535156 2262.25 C 5047.308594 2309.164062 5094.210938 2353.472656 5156.230469 2357.121094 C 5239.359375 2362.59375 5310.496094 2296.652344 5380.335938 2151.21875 C 5415.511719 2077.976562 5451.734375 2002.394531 5458.25 1921.074219 C 5466.847656 1815.253906 5418.640625 1704.222656 5335.511719 1638.28125 C 5251.085938 1571.558594 5138.511719 1549.664062 5038.96875 1530.378906 C 4962.878906 1516.042969 4893.824219 1508.484375 4832.066406 1508.484375 Z M 4832.066406 1508.484375 " fill-opacity="1" fill-rule="nonzero"/></g><g clip-path="url(#182f677d79)"><path fill="#f0caa4" d="M 642.714844 1621.460938 C 558.425781 1635.992188 482.855469 1692.667969 446.523438 1769.683594 C 423.273438 1817.636719 416.007812 1869.953125 400.019531 1920.8125 C 384.035156 1971.671875 359.328125 2022.535156 312.824219 2048.691406 C 225.628906 2099.550781 106.460938 2041.425781 16.359375 2086.472656 C -60.664062 2125.707031 -85.371094 2228.882812 -67.933594 2313.164062 C -41.773438 2435.230469 57.050781 2538.402344 177.671875 2568.917969 C 298.292969 2600.890625 434.898438 2558.746094 516.28125 2464.292969 C 552.613281 2422.152344 580.226562 2371.289062 626.730469 2342.226562 C 705.207031 2292.820312 824.375 2313.164062 879.597656 2239.054688 C 923.195312 2182.378906 901.398438 2099.550781 869.425781 2035.613281 C 837.453125 1971.671875 795.308594 1906.28125 801.121094 1835.078125 C 805.480469 1779.855469 882.503906 1721.730469 846.171875 1670.871094 C 809.839844 1620.007812 697.941406 1612.742188 642.714844 1621.460938 Z M 182.03125 1915 C 132.617188 1917.90625 129.710938 1845.25 135.527344 1814.730469 C 139.886719 1792.933594 147.152344 1769.683594 163.136719 1753.699219 C 177.671875 1736.261719 200.921875 1726.089844 224.175781 1730.449219 C 261.960938 1739.167969 277.945312 1788.574219 264.867188 1824.902344 C 254.695312 1848.15625 211.09375 1913.546875 182.03125 1915 Z M 838.90625 2613.96875 C 789.496094 2616.875 786.589844 2544.214844 792.402344 2513.699219 C 796.761719 2491.902344 804.027344 2468.652344 820.015625 2452.667969 C 834.546875 2435.230469 857.800781 2425.058594 881.050781 2429.417969 C 918.835938 2438.136719 934.820312 2487.542969 921.742188 2523.871094 C 913.023438 2547.121094 867.972656 2612.515625 838.90625 2613.96875 Z M 838.90625 2613.96875 " fill-opacity="1" fill-rule="nonzero"/></g><g clip-path="url(#11a5e47183)"><path fill="#af8862" d="M 402.925781 2648.84375 C 411.644531 2648.84375 420.367188 2648.84375 429.085938 2647.390625 C 513.375 2640.125 587.492188 2586.359375 610.742188 2518.058594 C 628.183594 2465.746094 615.105469 2410.527344 603.476562 2356.757812 C 600.570312 2345.132812 597.664062 2332.054688 596.210938 2320.429688 C 587.492188 2273.929688 580.226562 2188.191406 636.902344 2146.050781 C 671.78125 2119.894531 718.285156 2118.441406 764.789062 2116.988281 C 774.964844 2116.988281 785.136719 2116.988281 795.308594 2115.535156 C 854.890625 2112.628906 923.195312 2087.925781 934.820312 2031.253906 L 920.289062 2028.347656 C 910.117188 2077.753906 846.171875 2098.097656 795.308594 2101.003906 C 785.136719 2101.003906 774.964844 2102.457031 764.789062 2102.457031 C 716.832031 2103.910156 667.421875 2105.363281 629.636719 2134.425781 C 565.691406 2182.378906 572.957031 2272.476562 583.132812 2323.335938 C 586.039062 2334.960938 588.945312 2348.039062 590.398438 2359.664062 C 602.023438 2410.527344 613.648438 2464.292969 599.117188 2513.699219 C 578.773438 2576.1875 509.015625 2625.59375 430.539062 2632.859375 C 363.6875 2638.671875 291.023438 2619.78125 215.457031 2576.1875 C 161.683594 2544.214844 90.472656 2490.449219 62.863281 2413.433594 C 36.703125 2339.320312 61.410156 2255.039062 120.992188 2217.257812 C 158.777344 2194.003906 202.375 2189.644531 250.332031 2185.285156 C 292.476562 2180.925781 336.078125 2176.566406 375.316406 2157.675781 C 446.523438 2121.347656 479.949219 2045.785156 503.203125 1976.03125 L 509.015625 1957.140625 C 530.8125 1893.203125 552.613281 1827.808594 602.023438 1784.214844 C 649.980469 1742.074219 722.644531 1724.636719 785.136719 1742.074219 C 847.625 1759.511719 899.945312 1810.371094 917.382812 1869.953125 L 931.914062 1865.59375 C 913.023438 1800.199219 857.800781 1746.433594 789.496094 1727.542969 C 721.191406 1708.652344 644.167969 1726.089844 591.851562 1772.589844 C 539.535156 1819.089844 516.28125 1887.390625 494.484375 1952.78125 L 488.667969 1970.21875 C 465.417969 2037.066406 433.445312 2111.175781 368.046875 2144.597656 C 331.714844 2162.035156 289.570312 2166.394531 248.878906 2170.753906 C 202.375 2175.113281 154.417969 2180.925781 113.726562 2205.632812 C 46.875 2246.320312 19.265625 2337.867188 48.328125 2417.792969 C 71.582031 2483.183594 126.804688 2541.308594 206.734375 2589.265625 C 275.039062 2628.5 340.4375 2648.84375 402.925781 2648.84375 Z M 109.367188 1859.78125 C 89.019531 1836.53125 87.566406 1788.574219 91.925781 1765.324219 C 97.742188 1737.714844 106.460938 1715.917969 120.992188 1699.933594 C 138.433594 1679.589844 166.042969 1669.417969 187.84375 1675.230469 C 205.28125 1678.136719 218.363281 1689.761719 228.535156 1707.199219 C 240.160156 1728.996094 243.066406 1756.605469 234.347656 1779.855469 C 225.628906 1801.652344 180.578125 1872.859375 145.699219 1875.765625 C 144.246094 1875.765625 142.792969 1875.765625 142.792969 1875.765625 C 129.710938 1875.765625 118.085938 1869.953125 109.367188 1859.78125 Z M 221.269531 1775.496094 C 228.535156 1756.605469 225.628906 1731.902344 216.910156 1714.464844 C 211.09375 1705.746094 202.375 1694.121094 186.390625 1689.761719 C 168.949219 1685.402344 147.152344 1694.121094 132.621094 1710.105469 C 120.992188 1723.183594 112.273438 1742.074219 107.914062 1768.230469 C 103.554688 1791.480469 105.007812 1832.167969 120.992188 1851.0625 C 126.804688 1858.328125 135.527344 1861.234375 145.699219 1861.234375 C 168.949219 1859.78125 211.09375 1800.199219 221.269531 1775.496094 Z M 766.242188 2560.199219 C 745.898438 2536.949219 744.445312 2488.996094 748.804688 2465.746094 C 754.617188 2438.136719 763.335938 2416.339844 777.871094 2400.355469 C 795.308594 2380.007812 822.921875 2369.835938 844.71875 2375.648438 C 862.160156 2378.554688 875.238281 2390.183594 885.410156 2407.621094 C 897.039062 2429.417969 899.945312 2457.027344 891.222656 2480.277344 C 882.503906 2502.074219 837.453125 2573.28125 802.574219 2576.1875 C 801.121094 2576.1875 799.667969 2576.1875 799.667969 2576.1875 C 786.589844 2574.734375 774.964844 2568.921875 766.242188 2560.199219 Z M 878.144531 2474.464844 C 885.410156 2455.574219 882.503906 2430.871094 873.785156 2413.433594 C 867.972656 2404.714844 859.253906 2393.089844 843.265625 2388.730469 C 825.828125 2384.371094 804.027344 2393.089844 789.496094 2409.074219 C 777.871094 2422.152344 769.148438 2441.042969 764.789062 2467.199219 C 760.429688 2490.449219 761.882812 2531.136719 777.871094 2550.027344 C 783.683594 2557.292969 792.402344 2560.199219 802.574219 2560.199219 C 827.28125 2558.746094 869.425781 2500.621094 878.144531 2474.464844 Z M 878.144531 2474.464844 " fill-opacity="1" fill-rule="nonzero"/></g></svg>