<?xml version="1.0" standalone="no"?>
<!DOCTYPE svg PUBLIC "-//W3C//DTD SVG 20010904//EN"
 "http://www.w3.org/TR/2001/REC-SVG-20010904/DTD/svg10.dtd">
<svg version="1.0" xmlns="http://www.w3.org/2000/svg"
 width="1290.000000pt" height="840.000000pt" viewBox="0 0 1290.000000 840.000000"
 preserveAspectRatio="xMidYMid meet">

<g transform="translate(0.000000,840.000000) scale(0.100000,-0.100000)"
fill="#000000" stroke="none">
<path d="M0 4200 l0 -4200 6450 0 6450 0 0 4200 0 4200 -6450 0 -6450 0 0
-4200z m4395 1094 c25 -13 51 -39 70 -69 l30 -48 0 -946 0 -946 -23 -42 c-12
-24 -41 -55 -64 -70 l-42 -28 -860 -3 -861 -2 -45 22 c-26 14 -57 41 -75 66
l-30 44 -3 935 c-2 642 1 947 8 974 13 48 76 114 122 128 20 6 366 9 883 8
841 -2 850 -2 890 -23z m3795 -686 l0 -212 33 32 c42 41 105 62 181 62 116 -1
195 -51 246 -154 51 -103 43 -238 -20 -324 -93 -128 -275 -158 -396 -66 l-44
34 0 -35 0 -35 -55 0 -55 0 0 455 0 455 55 0 55 0 0 -212z m1388 -50 l3 -78
74 0 75 0 0 -50 0 -50 -75 0 -75 0 0 -168 c0 -183 6 -205 56 -215 14 -2 41 -1
60 3 l34 8 0 -49 c0 -59 -7 -64 -100 -64 -78 1 -122 21 -147 68 -13 26 -17 70
-21 225 l-5 192 -58 0 -59 0 0 50 0 50 60 0 60 0 0 73 c0 41 3 77 7 81 4 4 30
6 58 4 l50 -3 3 -77z m-4293 -92 c28 -12 57 -31 65 -41 14 -17 15 -16 20 16 5
33 6 34 58 37 l52 3 0 -323 c0 -303 -2 -326 -21 -368 -26 -59 -72 -106 -134
-138 -107 -55 -308 -36 -398 38 l-37 32 35 43 36 43 50 -34 c128 -86 280 -69
336 36 18 33 23 59 23 112 l0 70 -30 -30 c-102 -103 -310 -73 -402 57 -111
157 -45 394 126 455 65 23 162 20 221 -8z m693 -33 l-3 -58 -56 -1 c-75 -2
-116 -25 -140 -77 -16 -36 -19 -67 -19 -214 l0 -173 -55 0 -55 0 0 285 0 285
55 0 55 0 0 -41 0 -42 21 27 c32 41 87 65 147 66 l53 0 -3 -57z m456 46 c25
-7 58 -30 92 -63 59 -60 84 -123 84 -213 l0 -53 -225 0 -225 0 0 -24 c0 -36
40 -87 89 -113 75 -39 158 -28 228 31 l32 27 36 -28 c19 -15 35 -31 35 -35 0
-16 -58 -62 -110 -86 -46 -22 -69 -27 -140 -26 -72 0 -93 4 -136 26 -56 29
-93 68 -127 132 -30 57 -32 211 -2 271 31 63 105 131 161 149 59 18 154 20
208 5z m717 -23 c84 -54 128 -139 129 -248 l0 -58 -225 0 -225 0 0 -24 c0 -36
40 -87 89 -113 75 -39 171 -26 233 34 l26 25 36 -28 c20 -16 36 -32 36 -36 0
-16 -58 -62 -110 -86 -46 -22 -69 -27 -140 -26 -72 0 -93 4 -136 27 -181 94
-208 368 -50 503 56 48 114 64 212 61 69 -3 88 -8 125 -31z m652 20 c43 -17
93 -76 106 -123 6 -21 11 -129 11 -240 l0 -203 -55 0 -55 0 0 185 c0 197 -6
231 -49 269 -13 12 -41 21 -74 24 -42 3 -58 -1 -87 -20 -64 -43 -75 -80 -78
-280 l-4 -178 -54 0 -54 0 0 285 0 285 55 0 55 0 0 -42 0 -42 33 32 c17 17 48
38 67 46 44 19 140 20 183 2z m2429 2 c56 -17 121 -78 147 -139 12 -28 25 -82
28 -120 l6 -69 -233 0 c-208 0 -231 -2 -226 -16 3 -9 6 -22 6 -29 0 -24 53
-77 95 -96 75 -35 155 -22 212 33 l32 31 41 -28 c22 -15 40 -31 40 -34 0 -4
-15 -21 -32 -39 -73 -70 -205 -99 -314 -67 -47 13 -69 27 -110 69 -158 162
-93 443 116 507 39 12 149 10 192 -3z m-1271 -218 c46 -120 87 -216 90 -212 4
4 39 98 79 208 40 111 76 207 80 213 4 8 28 11 63 9 l56 -3 -148 -377 c-84
-215 -159 -392 -176 -413 -35 -47 -78 -65 -154 -65 -85 0 -88 2 -81 58 l5 47
46 -3 c29 -2 59 2 78 12 17 9 31 18 31 19 0 1 13 34 29 74 l30 72 -100 243
c-56 134 -109 264 -120 291 l-19 47 64 0 64 0 83 -220z"/>
<path d="M3480 4883 c-18 -22 -21 -37 -17 -73 13 -115 167 -138 167 -25 0 100
-98 164 -150 98z"/>
<path d="M3682 4868 c-19 -19 -14 -82 8 -106 27 -29 56 -28 76 3 38 58 -37
150 -84 103z"/>
<path d="M3815 4814 c-42 -42 13 -142 64 -115 30 16 29 82 -1 111 -26 24 -41
25 -63 4z"/>
<path d="M3932 4748 c-28 -28 -5 -108 32 -108 20 0 46 34 46 62 0 44 -50 74
-78 46z"/>
<path d="M3630 4682 c-53 -141 -65 -302 -30 -415 28 -89 89 -156 189 -207 42
-22 90 -48 107 -60 l31 -20 6 38 c17 100 -36 262 -124 379 -42 56 -48 73 -25
73 40 0 156 -219 177 -332 16 -86 0 -181 -41 -257 -35 -63 -36 -71 -12 -71 14
0 32 27 66 97 87 178 134 354 121 458 -9 70 -57 166 -107 210 -41 37 -170 103
-280 144 l-57 20 -21 -57z"/>
<path d="M4019 4666 c-24 -52 17 -109 61 -86 23 12 28 78 8 98 -21 21 -57 14
-69 -12z"/>
<path d="M3156 4598 c-32 -45 -12 -143 33 -168 32 -16 69 -12 91 13 30 31 24
116 -10 152 -31 33 -92 35 -114 3z"/>
<path d="M3047 4462 c-36 -39 -2 -122 48 -122 48 0 61 75 20 115 -29 30 -46
31 -68 7z"/>
<path d="M3172 4378 c-15 -19 -79 -151 -103 -211 -92 -231 7 -405 321 -563
115 -57 201 -87 213 -75 11 11 1 31 -17 31 -33 0 -138 65 -184 113 -82 87
-133 213 -148 368 -6 66 -5 71 12 67 16 -3 20 -16 26 -80 9 -99 22 -147 63
-233 29 -60 108 -158 118 -144 2 2 10 27 19 54 9 28 29 82 43 120 35 92 32
185 -10 272 -37 76 -177 216 -261 261 -69 36 -77 37 -92 20z"/>
<path d="M2982 4338 c-19 -19 -14 -76 8 -98 39 -39 80 -19 80 37 0 55 -56 93
-88 61z"/>
<path d="M2931 4206 c-18 -22 -6 -62 24 -82 51 -33 94 15 58 65 -23 30 -64 39
-82 17z"/>
<path d="M2898 4085 c-10 -22 -8 -30 9 -53 22 -30 57 -40 79 -22 21 18 17 48
-11 75 -31 32 -62 32 -77 0z"/>
<path d="M8293 4369 c-75 -37 -113 -132 -92 -229 13 -60 38 -94 92 -121 78
-40 182 -21 230 42 53 71 57 165 11 246 -44 77 -154 105 -241 62z"/>
<path d="M5097 4369 c-109 -58 -130 -244 -36 -323 67 -57 183 -58 246 -3 46
40 63 82 63 151 0 68 -12 102 -53 144 -52 54 -150 68 -220 31z"/>
<path d="M6239 4377 c-41 -28 -79 -82 -79 -113 l0 -24 169 0 169 0 -9 41 c-5
22 -16 51 -25 64 -37 57 -162 75 -225 32z"/>
<path d="M6930 4389 c-50 -20 -100 -84 -100 -129 0 -19 5 -20 169 -20 l169 0
-9 41 c-13 54 -34 84 -74 103 -37 18 -116 20 -155 5z"/>
<path d="M10045 4381 c-36 -22 -85 -77 -85 -96 0 -7 -3 -20 -6 -29 -5 -14 13
-16 166 -16 l173 0 -6 36 c-13 79 -70 124 -157 124 -36 0 -66 -6 -85 -19z"/>
</g>
</svg>
