<svg xmlns="http://www.w3.org/2000/svg" viewBox="0 0 512 512"><title>Artboard 114</title><g id="Male_Farmer" data-name="Male Farmer"><ellipse cx="256" cy="192" rx="192" ry="85.33333" style="fill:#5b2c06"/><path d="M117.59342,205.95215a21.33621,21.33621,0,0,0-10.23567,40.0651,190.53428,190.53428,0,0,0,19.33073,9.061l.00488.00211.10189.04126.00521.00212.10286.04158.00033.00008c.21321.0861.42187.17009.63606.2557l.00814.00334.10124.04053.00521.00211.09928.03955.01563.00627c.2054.082.42024.16732.6263.24886l.01107.00431.09537.03776.01563.00627.0918.03613.02311.00912.09049.03564.00879.0035c.17969.07072.35254.13851.53255.209l.0013.00041.10222.04.00944.00366.09342.03638.02312.009.09244.036.012.00472.09733.03792.01139.0044c.13574.05265.2806.10889.41667.16138l.01139.00439.08626.03328.0293.01132.07389.02848.0472.01815.07064.0271.03646.01408.07975.03068.03256.01237.08235.03165.02181.00839c.1364.05224.26563.10156.402.15364l.02181.00822.07585.02889.04394.01676.07324.02784.04.01521.07259.02751.04265.0162.07552.02864.04.01506.07129.027.04817.01822.15951.06014.01986.00749.07812.02946.03418.01294.06869.02572.05436.0205.06022.02255.05306.02.06445.02408.055.02068.06413.024.04753.01774.069.0258.04948.01847.06836.02556.03841.01432.1543.05746.03287.0122.06608.02458.05144.019.06933.0258.0472.0175.06543.02425.05436.02.06283.02327.05827.02165.056.02067.06087.02238.0625.023.05436.02.06022.02222.097.03564.03516.01294.10644.03906.02865.01042.08366.03076.05533.02026.06706.0245.04981.01815.07128.026.04623.01693.07617.02783.0472.01709.06511.02376.056.02043.08073.02929.03549.01286.12011.04362.02214.008.096.03475.05273.019.0625.0227.0638.023.05892.02116.05274.019.07129.02572.0498.018.07031.02514.05013.01807.07162.02563.04915.01774.11263.04029a.03145.03145,0,0,0,.00391.00138l.12239.04387.03028.01082.09049.03231.04655.01652.06966.02482.056.01994.068.02425.05241.01863.06608.02344.055.01953.06868.02442.05209.01839.07389.0262.04525.016.10156.036.028.00985.11.03874.04916.01741.07226.02539.04948.01742.07064.02482.057.02.06641.02336.04883.01708.07617.0267.0472.01652.08626.03011.0306.01074.09864.03442.02734.00953.24349.08479.03743.013.08724.03027.041.01424.07617.02637.05111.01774.07715.02669.043.01489.08269.02849.03841.01326.09668.03337.026.00895.111.03825.013.00439.12631.04346.00748.0026.11589.03972.0306.0105.09049.031.04069.01392.08171.02791.04687.016.083.02832.0332.0114.09571.03255.03125.01066.10416.0354.01823.00618q.18994.06457.38021.12883l.01758.00594.11035.03727.01856.00627.10286.03475.02962.00993.10547.03548.01628.00545.11914.04.00618.00211c.17318.05811.34278.11483.5166.17269l.00847.00285.11881.03955.01335.00448.11035.0367.02441.00814.109.03621.01433.00464.12272.04069.00423.0013c.17415.0577.3457.11426.52051.17172l.00521.00179.12435.04077.00813.00268.11328.03711.02344.00773.11426.03728.00977.00325c.26237.08578.5192.16919.78255.25448l.00748.00236.11849.03833.01628.00529q.45751.14758.918.29435l.0013.00041.12956.04142.00325.001c.2653.08439.528.16756.79427.25138.00489.00155-.0013-.00033.00358.00122l.26042.08179.00586.00187a334.06681,334.06681,0,0,0,56.67774,12.15885l.0026.00041q3.688.47863,7.4349.89274l.00032.00008q1.14063.126,2.28646.24593v.00008l.16211.01693.0039.00041.15625.01627.0101.001.15234.01579.01042.00114.1582.01627.00228.00033c.21875.02246.43652.04476.6556.067.00586.00057-.00554-.00057.00065,0l.16113.01635c.00619.00057-.00032-.00008.00553.00057l.1517.0153.0166.00163q.65186.06555,1.30534.12915l.00521.00049q1.729.16821,3.46744.32226h0l.16211.01433.00782.00073c.442.039.87793.07674,1.32128.11442l.00554.00049.16146.01367.00325.00024.16048.01351.00619.00057c.222.01864.44043.03687.66243.05518l.00456.00041.15918.0131.01107.00089.14974.01229.01823.00147c.32975.02693.66146.05363.99186.07983.00586.00049-.00358-.00024.00228.00024l.15657.01237.01921.00147.14128.01115.02832.0022.1429.01123.01562.00122.15853.01229c.00619.00048-.001-.00009.00521.0004.11133.00863.2181.01693.32975.02547l.01791.00139.15169.01163.00391.00033.154.01172.02767.002.13737.01042.027.00212.13379.01009.03191.00236.13736.01033.02507.00187c.21647.0162.43685.03248.65365.04834l.03092.00228.13119.00961.03645.0026.12761.00928.03385.00244.13184.00952.03288.00236.14127.01017.01856.0013c.16438.0118.32812.02336.49251.035l.03157.0022.13119.00919.03711.00261.12532.0087.03874.00269.12663.00879.03841.00268.12695.00879.03353.00228c.21745.01489.44011.03.65755.04468l.02344.00155.13705.00919.0345.00228.12988.00863.03842.00252.12239.00814.04232.00276.12207.00806.04264.00277.14388.00936.01335.00089.33431.02165.00651.00041.14746.00944.05371.00341.11231.00716.04817.0031.11328.00716.05046.00317.11458.00725.04818.003.12663.00789.03125.00195c.16536.01026.32877.02035.49446.03044l.027.00171.13249.00806.0498.003.11263.00683.04883.00293.11556.00692.04883.00293.127.00757.0293.00171.13249.00789.03743.0022c.16244.0096.32878.01928.49121.02872l.03744.0022.11523.00659.06739.00391.098.00562.05989.00341.10873.00611.04752.00276.13151.00741.029.00163.13249.0074.03548.002c.10938.00618.22006.01228.32976.01831l.0153.00081.14322.00789.05176.00285.10677.00578.06381.0035.10612.0057.04654.00252.12012.00643.0485.0026.11882.00635.04134.0022.12175.00643.04655.00244.32128.01676.05176.00269.11166.00578.06022.00309.09668.005.069.0035.09961.005.06185.00309.097.00488.06706.00342.10709.00537.05144.00252.13574.00676.02539.0013.3291.01611.04069.002.125.006.04037.00195.12076.00586.05437.00261.11295.00537.04557.00211.12175.00578.04492.00212.14583.00683.01205.00057c.1709.0079.33431.01546.50521.0232l.0192.00089.14681.00667.02963.00131.12662.00569.05111.00228.11784.00521.04557.002.125.00546.03744.00171.1403.0061.02539.00106c.11393.005.2207.00952.33463.0144l.01335.00057.15169.00643.03353.00146.127.00529.04981.00212.111.00456.0599.00252.11165.00456.0459.002.12825.00521.03679.00146q.252.01026.50325.02019c.00651.00024-.00032,0,.00586.00024l.1556.0061.03678.00139.12533.00488.05273.002.10515.00407.06185.00236.11035.00415.05273.002.11133.00415.05436.002.14356.00537.01725.00066.16894.00618.01107.00041.14974.00545.05339.00195.109.00391.0625.00228.10384.00366.05631.002.11166.00391.05436.00187.12142.00423.03906.00139.14421.005.02018.00065c.11458.004.22168.00757.33659.0114l.02409.00081.14127.00472.04037.0013.12239.00407.05274.00171.1123.00366.05827.00187.098.0031.07162.00228.099.00317.06153.002.1416.0044.0166.00049c.11133.00349.22168.00683.333.01025l.05078.00146.11556.0035.05143.00155.11361.00334.05762.00171.10709.00309.06022.00179.10059.00293.06738.00187.11361.00325.04427.00131.1403.0039.027.00074.16471.00455.04264.00114.1198.00326.06412.00179.10092.00268.07194.002.08789.00227.07714.002.0892.00236.07584.00195.08594.0022.07747.002.09506.00244.068.00171.11589.00285.04687.00114.16374.00407.03548.00081.12923.0031.05436.0013.113.00268.05176.00122.11426.00261.05631.0013.11361.0026.0498.00114.11458.00261.05665.00122.11946.00268.04362.001.13965.003.05371.00114.13574.00293.06673.00138.09441.002.07747.00163.08952.00179.07129.00146.096.00187.0677.00139.09864.00195.07031.00138.08691.00163.07976.00155.08821.00171.07552.00138.15821.00293.05761.00106.1058.00187.068.00122.09929.00179.0677.00114.099.00171.06446.00114.10123.00171.07064.00114.08952.00154.0765.00122.08756.00139.07878.0013.10188.00154.05892.001.16146.00244.05078.00073.11849.00179.05664.00082.10385.00154.07063.001.09994.00147.06413.00081.09635.00138.07682.001.08431.00114.08138.00106.08269.00114.08105.001.10677.00139.0765.00089.141.00171.05989.00073.1071.00131.05892.00065.11.00122.06184.00073.10092.00106.06738.00073.10156.00106.06576.00073.10286.001.06185.00065.11.00106.05794.00057.16406.00154.012.00008.15332.00139.05143.00048.11588.001.06218.00049.099.00081.07324.00057.09538.00074.07.00056.10059.00074.06315.0004.10807.00082.0599.0004.11.00066.05761.0004.16407.00106.02669.00008.14192.00082.04558.00032.11849.00057.06315.00033.09961.00048.07552.00041.08887.00041.07454.00032.09635.00041.071.00025.09277.0004.0752.00025.08593.00032.11459.00033.12662.0004.04916.00009.11719.00032.05957.00016.1097.00025.06152.00008.10124.00016.07.00017.10026.00008.068.00008.09635.00016h.07032l.10807.00008.05729.00008H256l.25521-.00008h.03l.24056-.00024.04362-.00008.2399-.00033.03614-.00008.24837-.00057h.01465l.2487-.00073.02181-.00008.24479-.00082.03939-.00016c.08138-.00024.16308-.00057.24414-.001l.03027-.00008.25293-.00122.01139-.00008q.26514-.00122.53028-.00293l.01562-.00008.26367-.00171.00782-.00008q7.24853-.04968,14.36067-.33464.293-.01172.584-.03117.29052-.00452.58333-.01692l.01823-.00074.03776-.00162.10807-.00464.055-.00236.09212-.004.06771-.00293L275,276.92074l.07812-.00342.07325-.00318.07682-.00341.06348-.00277.08951-.004.05665-.00252.09407-.00423.04785-.00212.0944-.00431.0612-.00277.084-.00382.06054-.00277.08529-.00391.06608-.003.082-.00382.06055-.00277.08366-.00391.07226-.00333.07552-.00358.06413-.003.084-.004.07324-.00342.07031-.00334.10091-.00488.04557-.00212.29428-.01424.05078-.00252.09895-.0048.044-.00212.10254-.00512.05631-.00277.09278-.00456.05208-.0026.0944-.00472.0599-.003.08691-.0044.05892-.00293.08757-.00447.07031-.00358.07422-.00375.06868-.0035.07976-.00415.06933-.00358.08008-.00415.0612-.00317.08886-.00456.06023-.00317.09212-.00481.05078-.00268.09407-.005.0573-.003.10286-.00545.03744-.002.09668-.00513.06217-.00334.08236-.00447.05892-.00318.11165-.006.03451-.00187.27473-.01506.04883-.00268c.09375-.00521.17285-.00952.2666-.01481l.0472-.00261.10157-.00569.05859-.00326.08138-.00464.07585-.00423.07454-.00423.06511-.00374.082-.00464.057-.00326.09766-.00561.04655-.00269.09342-.00545.06055-.0035.08919-.00513.05632-.00333.09277-.00538.04883-.00292.10417-.00611.04524-.00268.0892-.00521.06315-.00375.09017-.00537.05338-.00317.10254-.00619.04-.00236.11914-.00724.02735-.00163.11686-.00708.0319-.002.14355-.00871.001-.00008c.14974-.00911.29818-.01831.44759-.02759l.01042-.00065.13965-.0087.0039-.00025.14291-.00895.0192-.00122.12663-.008.026-.00162.12272-.00782.02637-.00171.12435-.00789.01693-.00114.13053-.00838.02213-.00138.12468-.00806.02409-.00155.11881-.00773.03516-.00228.12012-.00781.01985-.0013.12077-.008.03483-.00228.11361-.00748.03125-.002.10775-.00716.04589-.003.11719-.00781.02116-.00147.11849-.00789.03451-.00236.111-.00741.03483-.00236.09863-.00667.05176-.0035c.19857-.01351.38867-.02661.58724-.04036l.00879-.00057.28711-.02.01237-.0009.13606-.00952.01335-.001.1263-.00887.03353-.00244.11719-.0083.02865-.002.11132-.0079.04134-.003.1084-.00773.03679-.00268.1084-.00782.03613-.0026.12142-.00879.02083-.00147.125-.00911.02246-.00163.13054-.00952.015-.00114.1276-.00936.02116-.00154c.39551-.02914.78386-.05827,1.17871-.08855l.00847-.00056.2845-.0219.0166-.0013.12924-.01.0192-.00146.1224-.00952.0358-.00277.109-.00855.03483-.00276.10743-.00839.04362-.00341.10872-.00863.03-.00236.10807-.00854.0472-.00375.10189-.00814.03646-.00293.13086-.01041.00846-.00065c.59082-.04737,1.17643-.09554,1.7653-.14527l.00423-.00032.14063-.01188.01009-.0009.13216-.01123.0179-.00155.13477-.01147.00586-.00049c.68652-.05876,1.36491-.11849,2.0485-.18042l.01432-.0013.127-.01148.02571-.00236.127-.01155.00748-.00065.138-.0127.00879-.00081.138-.01262.00717-.00065.13346-.01237.01725-.00154.13347-.01237.00781-.00073.14062-.013.00391-.0004.14258-.01335.00325-.00024.137-.01286.01106-.00106c.63347-.05941,1.26237-.12,1.89323-.18213l.00033-.00008c12.95931-1.27751,25.42448-3.1368,37.25228-5.51351l.00162-.00032c.66472-.13355,1.3239-.26807,1.98438-.40487l.00553-.00114.12338-.02555.01106-.00236c.70443-.14608,1.39746-.29224,2.097-.44206l.00814-.00171.38639-.083.00358-.00073.126-.02726.00521-.00106q2.22608-.48046,4.41666-.98478l.00163-.00041.25033-.05778.01367-.00309.11751-.02718.00846-.002.11882-.02758.00976-.0022.123-.02856.00293-.00074.12044-.028.01042-.00244.12272-.02857.00358-.00081.38412-.08985.00065-.00016c.17122-.04012.34049-.08.51172-.12044l.01074-.00252.11849-.02808.00195-.00041.12435-.02954.00912-.00211.11751-.02784.01432-.00341.10449-.02482.03939-.00944.08789-.02092.03321-.00789.0944-.02255.03255-.00781.0931-.02222.03222-.00773.09245-.02213.03581-.00855.097-.02327.02279-.00554.09929-.02384.0332-.008.08626-.02076.04069-.00984.0752-.01815.05468-.0131.08952-.02173.027-.00651.09994-.02417.02864-.00692c.24935-.06047.50033-.12158.749-.18254l.04265-.01033.08463-.02083.04037-.00993.07943-.01945.0485-.012.08105-.01993.04037-.00993.08138-.0201.04231-.01042.0879-.02173.0358-.00879.082-.02034.04786-.0118.07845-.01945.04427-.011.0778-.01929.04752-.0118.07943-.01977.0446-.01115.07389-.01831.05241-.0131.071-.01766.05306-.01327.07357-.01847.04753-.0118.08528-.0214.03906-.00977.09017-.02262.03256-.00822.24674-.062.04655-.01172.0778-.0197.03516-.00887.09016-.0227.03191-.00814.09407-.02376.02376-.00611.09929-.02514.0345-.00879.08659-.022.04362-.01106.07585-.01929.05664-.01449.06445-.01635.05892-.01514.05957-.01514.071-.01814.05045-.01286.06543-.01677.06087-.01562.06185-.01579.0638-.01644.055-.01416.06282-.01611.06673-.01725.04818-.01237.07324-.01888.04558-.01172.0778-.02.04882-.0127.068-.01758.05045-.0131.195-.05054.03711-.0096.14323-.03727.06217-.0162.09571-.025.02018-.00521.08105-.02116.0433-.01131.09017-.0236.02571-.00675.083-.02173.04264-.01123.08594-.02246.02832-.00749.0905-.02376.03418-.00895.08007-.02108.042-.01107.07064-.01872.057-.015.07031-.01856.03972-.01049.08268-.0219.042-.01106.0765-.02035.04232-.01123.07747-.02059.04492-.01188.0791-.02108.029-.00765.09375-.0249.02213-.006.097-.0258.02278-.0061.09278-.02482.03743-.01c.30176-.08073.59766-.16032.89844-.24178l.014-.00383.10449-.02832.013-.00358.10058-.02726.01986-.00537.0957-.026.02637-.00717.083-.02262.04-.0109.084-.02295.03125-.00847.08757-.02392.02995-.00822.09212-.02523.02539-.007.08594-.02352.03938-.01074.08529-.02352.02474-.00675.09245-.02539.02279-.00627.21549-.05941.00911-.0026c.30632-.08456.61329-.16984.91862-.25521l.00749-.00212.11328-.03165c.00521-.00147-.0039.001.0013-.00041l.1058-.02962.01562-.00448.10515-.02946.00879-.00244.10156-.02856.02083-.00586.10091-.02849.01075-.00293.10319-.02913.01692-.0048.10612-.03h0l.11556-.03263.0013-.00033a234.56546,234.56546,0,0,0,39.57813-14.88411,21.3333,21.3333,0,1,0-18.8597-38.27206c-26.6696,13.14217-65.67871,21.69-107.02441,23.45174q-.26514.01135-.528.029c-.17448.00269-.35124.00757-.52669.01457q-7.74658.30909-15.67969.311c-50.15007,0-98.09473-9.76766-128.25228-26.12867a21.23382,21.23382,0,0,0-10.1543-2.58585Z" style="fill:#4d2100"/><path d="M256,298.66667,84.214,345.5174a85.33332,85.33332,0,0,0-62.88065,82.32651V448A42.66667,42.66667,0,0,0,64,490.66667H448A42.66667,42.66667,0,0,0,490.66667,448V427.84391A85.33332,85.33332,0,0,0,427.786,345.5174Z" style="fill:#004ed6"/><rect x="149.33333" y="384" width="64" height="64" rx="21.33333" ry="21.33333" style="fill:#0026b6"/><path d="M170.66665,426.66665l0,0a30.16986,30.16986,0,0,0,42.66662,0l12.49681-12.49681a30.16985,30.16985,0,0,1,21.33331-8.83655h0a30.16986,30.16986,0,0,1,30.16986,30.16986v24.99362a30.16986,30.16986,0,0,0,30.16986,30.16986h24.99362a30.16986,30.16986,0,0,0,30.16986-30.16986V417.8301a30.16982,30.16982,0,0,0-8.83655-21.33331l-24.99357-24.99358a30.16989,30.16989,0,0,0-21.33331-8.83654H204.49676a30.16989,30.16989,0,0,0-21.33331,8.83654L170.66665,384A30.16985,30.16985,0,0,0,170.66665,426.66665Z" style="fill:#0026b6"/><rect x="298.66667" y="384" width="64" height="64" rx="21.33333" ry="21.33333" transform="translate(661.33333 832) rotate(-180)" style="fill:#001386"/><circle cx="192" cy="405.33333" r="21.33333" style="fill:#001386"/><path d="M287.2733,422.7511a10.67015,10.67015,0,0,0-10.4174,8.4248q-.12387.57562-.27859,1.14l-.00039.00146-.03458.12468-.00063.00228-.00849.03015-.00057.002-.02663.09351-.00006.00016-.00822.02856-.00177.00611-.008.02759-.001.00362-.02568.08756-.002.00676-.00759.02559-.003.01-.02448.08158-.00248.00822-.00692.02275-.00425.014-.00665.02181-.00385.01253-.01361.04423-.00272.00883-.00645.02079-.00527.01693-.006.01937-.00464.01485-.00657.021-.00228.0072-.0141.04464-.0047.01481-.007.02193-.00411.01286-.00686.0214-.0048.01489-.01094.0339-.00625.01928-.00572.01762-.00565.01726-.00625.01912-.00586.01786-.00594.018-.01068.03231-.00563.017-.00621.01864-.00586.01754-.00622.01855-.00609.01811-.01127.03345-.00228.00667-.0095.028-.00521.01526-.00781.02287-.00466.01359-.00873.02539-.00364.01054-.01214.03512-.00369.01058-.009.02587-.00464.01323-.00881.02515-.0037.01053-.0107.03032-.00633.01786-.0083.02336-.00478.01343-.0081.02262-.0049.01371-.01076.02991-.00206.00574-.01284.03548-.0038.01041-.01026.02816-.00274.00753-.0118.03223-.002.00549-.02689.07279-.004.01058-.0108.02893-.00267.00713-.02818.07482-.00152.004-.01235.03251-.003.00786-.0283.07381-.00145.00378-.01322.0341-.00208.00537-.01253.03223-.00218.00557-.02976.07585-.00081.002-.01412.03565-.00139.00346-.04573.11421-.00112.00277-.01512.03727-.00008.00021c-.04742.11674-.09564.23238-.14506.34806l-.00028.00065a21.40377,21.40377,0,0,1-12.16991,11.61865,10.66664,10.66664,0,0,0,7.49872,19.97193,42.474,42.474,0,0,0,26.75649-30.96875A10.67607,10.67607,0,0,0,287.2733,422.7511Z" style="fill:#0026b6"/><path d="M269.92059,383.8541l-27.9763.11578a24.3014,24.3014,0,0,0-13.34073,4.05546L208.40939,401.4324a24.30141,24.30141,0,0,1-37.74272-20.24574V341.33333a42.66665,42.66665,0,0,1,42.66666-42.66666h85.33334a42.66665,42.66665,0,0,1,42.66666,42.66666v39.74914a24.30141,24.30141,0,0,1-37.78141,20.22l-20.05076-13.36716A24.30134,24.30134,0,0,0,269.92059,383.8541Z" style="fill:#006ce2"/><rect x="192" y="298.66667" width="128" height="64" rx="31.99997" ry="31.99997" style="fill:#004ed6"/><path d="M352,170.66667h10.6667a0,0,0,0,1,0,0v64a0,0,0,0,1,0,0H352a32,32,0,0,1-32-32v-.00006A32,32,0,0,1,352,170.66667Z" transform="translate(682.66667 405.33333) rotate(180)" style="fill:#f4ac03"/><path d="M181.3333,170.66667H192a0,0,0,0,1,0,0v64a0,0,0,0,1,0,0H181.3333a32,32,0,0,1-32-32v-.00006A32,32,0,0,1,181.3333,170.66667Z" style="fill:#f4ac03"/><rect x="213.33333" y="234.66667" width="85.33333" height="128" rx="42.66662" ry="42.66662" style="fill:#df8d00"/><rect x="170.66667" y="85.33333" width="170.66667" height="234.66658" rx="85.33325" ry="85.33325" style="fill:#f4ac03"/><path d="M170.66667,170.66667v64a84.82563,84.82563,0,0,0,27.58854,62.48047,84.44414,84.44414,0,0,0,100.41146-83.81381v-64a84.82449,84.82449,0,0,0-27.58724-62.48047,84.44537,84.44537,0,0,0-100.41276,83.81381Z" style="fill:#ffd432"/><rect x="170.66667" y="149.33333" width="21.33333" height="127.99999" rx="10.66666" ry="10.66666" style="fill:#ae2b00"/><path d="M362.66667,288a31.99992,31.99992,0,0,0-32-32,31.6475,31.6475,0,0,0-14.42188,3.582,85.293,85.293,0,0,0-120.48958,0A31.6475,31.6475,0,0,0,181.33333,256a31.92026,31.92026,0,0,0-10.47526,62.10026c-.01432.64714-.1914,1.2487-.1914,1.89974a42.60691,42.60691,0,0,0,25.16927,38.83073A42.20091,42.20091,0,0,0,256,378.082a42.20091,42.20091,0,0,0,60.16406-19.2513A42.60691,42.60691,0,0,0,341.33333,320c0-.651-.17708-1.2526-.1914-1.89974A31.90177,31.90177,0,0,0,362.66667,288ZM245.33333,256h21.33334a10.66667,10.66667,0,0,1,0,21.33333H245.33333a10.66667,10.66667,0,0,1,0-21.33333Z" style="fill:#ae2b00"/><path d="M256,234.66667h-.07064q-.63965.0006-1.27669.01041a10.57972,10.57972,0,0,0-10.34928,10.73519,10.7539,10.7539,0,0,0,10.737,10.59391l.07357-.00024L256,256h0a63.58318,63.58318,0,0,1,45.18132,18.68864,21.33148,21.33148,0,0,0,24.74023,3.90592c.3763-.19157.76172-.368,1.15657-.525a10.66669,10.66669,0,1,0-7.87565-19.82642l-.01985.0079-.02539.01009-.02051.0083-.03255.01294-.01042.00431q-1.38622.55628-2.71289,1.2264l-.00391.002-.04069.0205-.00976.005-.03614.01823-.04557.02327A85.05533,85.05533,0,0,0,256,234.66667Z" style="fill:#8e1600"/><path d="M298.66667,277.33333l-.07129.00008h-.02149l-.05078.00017-.02148.00008-.05078.00024-.02019.00008-.0524.00033-.01986.00016-.05274.00041-.01855.00008-.05469.00057-.01627.00016-.0573.00065-.01367.00017-.05859.00073-.01465.00016-.05729.00082-.0153.00024-.05567.0009-.0179.00032-.05143.0009-.02214.0004-.04069.00074-.0358.00073-.01954.0004c-.21907.00464-.43977.01091-.65787.0188a10.49245,10.49245,0,0,0-9.98275,10.79411,10.84273,10.84273,0,0,0,10.807,10.52q.07323,0,.14648-.001l.59766-.00813h0a21.28016,21.28016,0,0,1,20.29622,14.72575,10.66679,10.66679,0,0,0,20.29167-6.58554q-.24171-.74352-.50944-1.47509l-.00163-.00391c-.05925-.16211-.11979-.32487-.18132-.486l-.00065-.00171c-.0306-.08122-.06152-.16121-.09277-.24219l-.00033-.00049c-.03125-.081-.06217-.16015-.09407-.24088l-.0013-.00326-.02312-.05867h0l-.07194-.1805-.001-.002c-.03223-.08056-.06413-.15893-.09668-.23917l-.001-.00179c-.06478-.15927-.13118-.31853-.19791-.47681l-.00261-.00611-.02246-.05289-.0026-.00562c-.02474-.05851-.04948-.11645-.07455-.17488l-.00228-.00505-.02311-.05395-.00195-.00407c-.02507-.05835-.05111-.11776-.0765-.176l-.001-.00219-.02506-.05705-.00065-.00187-.02539-.05754-.00065-.00122c-.02539-.05811-.05176-.11743-.0778-.17537l-.002-.00432-.02474-.05582-.001-.00171-.05274-.11752-.00032-.00048-.02572-.05656-.002-.00489-.02539-.05566-.00033-.00081c-.07194-.15731-.14388-.31267-.21745-.46892l-.00065-.00179c-.03613-.07682-.07324-.1547-.1097-.23128l-.00162-.0035c-.11166-.23356-.22461-.46427-.3405-.69547v-.00017q-.23145-.4624-.47363-.918l-.00033-.00057c-.04036-.07592-.0804-.15071-.12142-.2264l-.001-.002-.02963-.05477-.00065-.00122q-.75243-1.3899-1.60254-2.71558V297.003c-.09277-.14429-.18554-.28752-.27994-.43058l-.00033-.00073a42.79522,42.79522,0,0,0-20.99381-16.64917l-.00131-.00041q-.85741-.314-1.73144-.59188l-.00033-.00008-.06185-.01961-.00065-.00025c-.0625-.01977-.123-.03873-.18587-.05818l-.00488-.00155-.057-.01774-.00423-.0013c-.14649-.04525-.29069-.089-.43783-.13273l-.00065-.00017-.06087-.01814-.00293-.0009q-.124-.03661-.2487-.07267l-.00455-.00139-.0599-.01717-.0013-.00049-.126-.03588-.00065-.00025-.06087-.01725-.00391-.00106c-.083-.02344-.167-.04687-.25032-.06982l-.00293-.00082-.06023-.01652-.0026-.00073c-.06348-.01742-.12533-.03418-.1888-.05127l-.00228-.00057-.06022-.01619-.00326-.0009c-.0638-.017-.12435-.033-.18815-.04972l-.00456-.0013-.05794-.01506-.00553-.00146c-.06087-.01595-.12533-.03256-.18685-.04818l-.00684-.00179-.056-.01424-.00586-.00155c-.168-.04264-.33951-.08512-.50846-.12573l-.00456-.00106c-.06282-.01522-.1276-.0306-.19043-.04549l-.001-.00016-.05957-.014-.00814-.00195-.06022-.014-.00033-.00008c-.06315-.01473-.12793-.02954-.19108-.04395l-.00488-.00114c-.08333-.019-.17025-.03841-.25391-.05688l-.00521-.00122-.05826-.01286-.00554-.00114c-.06347-.01392-.12467-.02718-.18815-.04085l-.00976-.002-.05534-.01188-.00684-.00138-.1263-.0267-.00456-.001-.056-.01172-.01269-.00261-.05209-.01082-.00911-.00187-.05957-.01221L307.265,278.2l-.12565-.02547-.00976-.00195-.05534-.01115-.00716-.00139-.06218-.01236h0l-.12825-.02523-.00651-.00122-.05534-.01075-.01042-.002-.05762-.01107-.00423-.00081-.12695-.02417-.00814-.00147-.05566-.01049-.00814-.00155-.06022-.01115-.00228-.00041-.12858-.0236-.00586-.001-.05632-.01018-.01041-.002-.05339-.0096-.01009-.00179-.12565-.02222-.00879-.00155-.05566-.00968-.00847-.00147-.055-.00952-.00944-.00163-.12695-.02164-.00586-.001-.05664-.00952-.01074-.00179-.05176-.00863-.0127-.00211-.126-.02067-.00651-.00106L305.5,277.8776l-.01139-.00179-.05306-.00854-.00977-.00155-.12858-.02026-.00228-.00033-.05957-.00927-.01107-.00171-.05045-.00773-.01563-.00236-.124-.0188-.00944-.00139-.05371-.00805-.01335-.002-.04915-.00724-.015-.00211-.05794-.00847-.00325-.00049-.06576-.00944-.001-.00016-.06087-.00863-.012-.0017-.04948-.007-.01693-.00236-.054-.00749-.00651-.0009-.06381-.00887-.00651-.00081-.05664-.00773-.01334-.00179-.04818-.00643-.01725-.00236-.04981-.00659-.01269-.00171-.0625-.00814-.00521-.00073-.05632-.00724-.01692-.0022-.04428-.0057-.02181-.00277-.04459-.00561-.01563-.002-.1263-.01563-.01172-.00146-.0485-.00594-.01953-.00228-.04525-.00546-.01725-.00211-.12337-.01449-.01791-.002-.04362-.005-.02213-.00252-.0433-.00488-.01757-.002-.05567-.00618-.00716-.00082-.06022-.00667-.02214-.00236-.03873-.00423-.02474-.00269-.03874-.00415-.02376-.00252-.04851-.00513-.012-.0013-.06055-.00626-.01985-.002-.042-.00431-.02376-.00236-.04-.00407-.02116-.00212-.05176-.00512-.01009-.001-.06217-.0061-.016-.00155-.04525-.00431-.02213-.00212-.04232-.004-.01986-.00187-.05273-.00488-.00879-.00082-.0625-.00569-.0166-.00155-.04493-.004-.02311-.002-.04069-.00358-.02116-.00187-.04817-.00415-.01433-.00122-.06315-.00538-.00683-.00056-.05534-.00464-.0166-.00139-.04883-.0039-.01595-.00131-.05274-.00423-.01009-.00081-.06478-.00513-.00455-.00032-.05664-.00432-.02019-.00154-.04362-.00334-.01985-.00146-.04623-.00342-.01692-.00122-.06381-.00456h0l-.06087-.00431-.01986-.00139-.04427-.00309-.01985-.0013-.04558-.00309-.01757-.00114-.06316-.00415-.00227-.00017-.05957-.00382-.01921-.00122-.04557-.00285-.01791-.00114-.05013-.003-.01334-.00081-.12663-.00749-.01823-.001-.04557-.0026-.02051-.00114-.04362-.00236-.02018-.00106-.058-.00309-.00423-.00025-.06217-.00317-.02051-.00106-.04264-.00211-.02279-.00114-.04-.002-.02409-.00114-.05143-.00236-.01009-.00048-.06185-.00277-.01986-.0009-.04362-.00187-.02181-.001-.04394-.00179-.01921-.00082-.05208-.00211-.01172-.00049-.0612-.00236-.02148-.00082-.042-.00154-.02311-.00082-.0407-.00146-.02376-.0009-.04525-.00146-.01692-.00065-.06153-.002-.01855-.00057-.04557-.00138-.02116-.00065-.04265-.0013-.02213-.00057-.04427-.00122-.01986-.00057-.06055-.00163-.01953-.00049-.04329-.00106-.02344-.00048-.04134-.001-.02311-.00049-.0472-.00106-.01465-.00032-.06283-.00122-.01627-.00033-.04753-.00081-.02213-.00041-.04134-.00065-.02247-.00041-.04752-.00065-.016-.00024-.0625-.0009-.015-.00016-.04882-.00057-.02051-.00024-.04427-.00041-.02214-.00024c-.13476-.00123-.2679-.00188-.403-.00188Z" style="fill:#8e1600"/><rect x="234.66667" y="277.33333" width="42.66667" height="21.33333" rx="10.66666" ry="10.66666" style="fill:#8e1600"/><path d="M213.33333,277.33333l-.07129.00008h-.02148l-.05078.00017-.02149.00008-.05078.00024-.02018.00008-.05241.00033-.01985.00016-.05274.00041-.01855.00008-.05469.00057-.01628.00016-.05729.00065-.01367.00017-.05859.00073-.01465.00016-.05729.00082-.0153.00024-.05567.0009-.0179.00032-.05143.0009-.02214.0004-.04069.00074-.03581.00073-.01953.0004c-.21907.00464-.43978.01091-.65788.0188a10.49245,10.49245,0,0,0-9.98274,10.79411,10.84272,10.84272,0,0,0,10.807,10.52q.07325,0,.14649-.001l.59765-.00813h0a21.33333,21.33333,0,1,1-11.39681,39.37386,10.66663,10.66663,0,0,0-11.42806,18.01408,42.41677,42.41677,0,0,0,14.39226,5.77889l.00423.00081c.06054.01213.12142.02425.182.036l.00554.00114.13541.02621.002.0004.04557.00871.0013.00024.13672.026.00521.0009.13021.02425.01172.0022.04.00732.00879.00163.0817.01481.00553.00106.042.00749.00944.0017.1289.023.01009.00179.041.00717.01074.00187.07194.01253.01628.00285.03743.00643.0166.00285.11947.02026.01888.00317.03776.00627.00554.001.0791.0131.014.00228.03549.00586.0205.00333.12012.01945.015.00244.03808.006.01693.00268.06468.01026.01995.00309.03549.00553.02115.00326.071.011.00879.00131.03678.00561.02018.00309.03483.00521.02279.0035.05729.00855.02344.0035.0319.00472.02669.0039.0459.00667.03483.00513.02865.00415.02767.004.03027.00431.03613.00513.04134.00586.02963.00415.03092.00439.028.00383.03971.00553.03874.00537.02734.00375.03385.00455.02572.00342.04069.00554.03906.0052.02865.00383.02832.00366.0345.00456.03386.00439.042.00546.02734.0035.03028.0039.028.00358.05209.00659.02343.00285.03516.0044.02734.00342.03549.00439.02767.00334.04589.00561.02767.00334.03223.00382.02734.00334.05144.006.02636.00309.03125.00367.029.00333.03093.00358.04232.00489.03678.00415.02767.00309.02962.00334.0293.00325.05111.00562.02473.00268.03516.00391.02637.00285.03483.00366.04036.00431.03483.00366.02865.003.03125.00326.02832.00293.04981.00513.02994.003.02963.00293.02734.00276.04.004.03092.00309.04167.004.02539.00244.03678.00358.02181.002.05534.00529.02084.002.03938.00358.02312.0022.05045.00456.01563.00138.04817.00431.02442.0022.03808.00334.02181.00195.05534.0048.02051.00171.04036.00342.02181.00187.04916.00407.02051.00171.04752.0039.02051.00163.04427.0035.016.0013.05827.00456.0166.0013.0446.00342.02018.00155.05892.00447.00228.00017.05827.00423.01627.00122.05339.00382.00781.00057.0612.00432.01432.001.04883.00342.0153.001.05989.00407.01009.00065.05111.00333.01888.00131.0459.00293.0153.001.05924.00366.0153.001.04818.00293.01563.001.06152.00366.00293.00016.05664.00326.01888.00106.05143.00292.00879.00049.06185.00334.01335.00073.04882.00261.01661.00089.05826.003.01563.00074.0472.00236.0179.00089.05013.00244.01172.00057.0599.00277.01562.00073.04818.00212.01628.00073.06054.00268.00782.00033.05371.00228.0166.00065.05371.0022.00846.00032.06022.00228.01693.00065.04948.00187.012.00041.0625.00228.00944.00032.05274.0018.0166.00057.05339.0017.00879.00025.06087.00187.0153.00049.0485.00146.016.00041.06087.00171.01009.00024.05046.00131.01953.00048.05176.00131.00944.00024.05989.00138.01888.00041.04493.001.01725.00032.0599.00122.01269.00025.05078.00089.0166.00033.058.00089.00358.00008.06087.0009.0179.00024.04525.00065.01921.00025.05892.00073.014.00008.04916.00057.01627.00016.12337.001.01823.00008.04883.00025.01335.00008.06022.00024.0166.00008.04655.00009h.01921l.06054.00008h0a42.66667,42.66667,0,0,0,0-85.33334Z" style="fill:#8e1600"/><path d="M181.33333,320a31.99991,31.99991,0,0,0,32-32v-.08285l-.00032-.05159v-.015l-.00033-.065v-.012l-.00065-.0533V287.702l-.00065-.06454v-.00081l-.001-.06389v-.01839l-.001-.0507v-.0153l-.00131-.06266-.00032-.01766-.00065-.04907-.00065-.01929-.0013-.06331v-.00472l-.00131-.06014-.00065-.01783-.0013-.05224-.00033-.01408-.00162-.06364-.00065-.01554-.00131-.0503-.00065-.01806-.002-.06356-.00033-.008-.00195-.05607-.00065-.02075-.00195-.05111-.00065-.01245-.00228-.0629-.00065-.01864-.002-.04785-.001-.01888-.00261-.06348-.00032-.00586-.00261-.05859-.001-.0179-.00228-.05152-.001-.0144-.00293-.06307-.001-.01571-.0026-.04891-.001-.01985-.00325-.06153-.00065-.012-.00293-.05208-.0013-.02116-.00293-.05062-.00065-.01253-.00391-.06267-.0013-.01774-.00293-.04866-.00131-.01783-.0039-.06217-.001-.01261-.00358-.05176-.0013-.0197-.00326-.04907-.0013-.016-.00423-.061-.00163-.01888-.00325-.04631-.00163-.01977-.00456-.06071-.0013-.01595-.00358-.04753-.00195-.0223-.00391-.04923-.0013-.01351-.00488-.06071-.002-.021-.00358-.04386-.00195-.02165-.00521-.05981-.0013-.01595-.00423-.04688-.00228-.02222-.00456-.04939-.001-.0136-.00586-.06119-.002-.01913-.00423-.04557-.002-.01978-.00619-.0603-.00163-.0157-.00455-.04786-.00228-.02148-.00488-.04793-.00163-.01522-.00619-.05811-.0026-.02474-.00423-.03947-.00293-.02433-.00619-.0564-.0026-.0236-.00423-.03922-.00293-.02482-.00521-.04411-.00261-.02393-.00618-.05224-.00293-.02442-.00456-.03849-.00293-.02433-.00683-.05713-.00261-.0223-.00488-.03914-.00358-.027-.00521-.04248-.00325-.02409-.00619-.05062-.00358-.026-.00488-.03792-.00326-.02474-.00749-.05542-.00358-.02686-.00455-.03361-.00391-.02986-.00456-.03313-.00618-.04443-.00521-.03743-.00391-.02873-.00455-.03141-.00424-.03036-.00781-.05282-.0039-.02807-.00489-.033-.00455-.03019-.00521-.03573-.00586-.03922-.00586-.03858-.00423-.02832-.00554-.03524-.0039-.02653-.00847-.05371-.00423-.02783-.00521-.0332-.00455-.0284-.00554-.035-.00749-.046-.0052-.03312-.00489-.0297-.00553-.03231-.00456-.02775-.00879-.05339-.00488-.02905-.00521-.03084-.00521-.03117-.00586-.03345-.00781-.04655-.00553-.0306-.00554-.03206-.0052-.02905-.00586-.035-.00847-.04712-.00586-.03214-.00488-.02718-.00586-.03272-.00488-.02677-.01009-.05542-.00521-.02791-.00619-.03264-.00488-.02636-.00618-.03272-.00944-.0507-.00586-.03027-.00586-.03-.00586-.0306-.00651-.03329-.00944-.04858-.00521-.02759-.00684-.03336-.0052-.027-.00879-.04452-.00749-.03743-.00651-.03223-.00586-.02783-.00619-.03044-.00683-.0332-.01009-.0498-.00586-.02694-.00684-.033-.00521-.02555-.013-.06145-.00423-.0201-.00781-.03694-.00423-.01978-.00847-.038-.00325-.01563-.01465-.068-.00456-.02043-.00814-.037-.00423-.0192-.01725-.07723-.00163-.00757-.00879-.039-.0039-.017-.00879-.03906-.00261-.011-.01692-.07381-.00423-.01856-.00879-.038-.00358-.01571c-.00977-.04134-.01986-.08512-.02995-.12638l-.00358-.01554-.0306-.12777-.00326-.01318-.00944-.03956-.0039-.016-.03125-.12654-.00326-.01335-.03288-.13029-.0026-.01034-.01074-.04191-.00228-.00952-.03386-.1311-.00325-.01188c-.01172-.04484-.02344-.09-.03548-.13477l-.001-.00374-.01237-.04623-.00032-.00146c-.0127-.04777-.02507-.09375-.03809-.14144l-.00033-.00146c-.01269-.04663-.02571-.09359-.03873-.14014l-.00065-.00293q-.02589-.09363-.05274-.18717l-.001-.00407A32.08028,32.08028,0,0,0,195.9349,259.5179a10.66674,10.66674,0,0,0-9.73373,18.9834,10.67136,10.67136,0,0,1-4.86784,20.16537,10.66666,10.66666,0,0,0,0,21.33333Z" style="fill:#8e1600"/><path d="M330.66667,256l-.056.00008h-.01888l-.03809.00016-.02213.00009-.03484.00016-.02148.00016-.03841.00025-.01888.00016-.05632.00049-.00325.00008-.05274.00057-.01692.00024-.04069.00049-.01888.00033-.03744.00056-.02018.00033-.0446.00073-.01106.00025-.05762.001-.00814.00017-.04818.00106-.01692.0004-.04037.0009-.01823.00049-.04264.001-.013.00041-.05436.00147-.00293.00008-.05827.00171-.00912.00032-.04687.00147-.0166.00057-.04265.00138-.01432.00049-.04557.00163-.01172.0004-.11621.00456-.00716.00024-.04981.00212-.01172.00049-.04655.002-.01237.00057-.05338.00244-.00228.00017-.11947.00577-.0026.00017-.05469.00285-.00781.0004-.05306.00285-.00488.00024c-.05925.00334-.11882.00676-.17774.01034l-.00293.00016-.054.00342-.00814.00049-.05208.00334-.00619.0004c-.05892.00383-.11784.00781-.17708.01205l-.00228.00016-.05664.00415-.00293.00016a30.26221,30.26221,0,0,0-4.14063.59457A10.66671,10.66671,0,0,0,328.835,277.53a8.6822,8.6822,0,0,1,1.83171-.1967,10.58722,10.58722,0,0,1,3.457,20.621,21.33366,21.33366,0,0,0-14.3099,20.61694c.01758.79573.0752,1.576.165,2.37109a21.37908,21.37908,0,0,1-12.59473,18.44556,21.33174,21.33174,0,0,0-10.66276,10.66284,21.36043,21.36043,0,0,1-19.388,12.61589,20.93565,20.93565,0,0,1-10.60123-3.02189,21.3337,21.3337,0,0,0-21.4642,0,21.86553,21.86553,0,0,1-7.79817,2.81583,10.66667,10.66667,0,1,0,3.11849,21.10417l.12272-.01831.01367-.00212c.084-.01269.16732-.02555.2513-.03873l.00456-.00074a42.49979,42.49979,0,0,0,11.88021-3.75268l.00228-.00106c.07584-.0367.151-.07324.22656-.11027l.0026-.0013.16537-.08146.00618-.0031.05241-.026.00781-.004.16081-.08033.00716-.00358.05176-.02612.00814-.00407c.05241-.02637.10384-.05257.15625-.0791l.01367-.00708.04785-.02442.0127-.00651.10221-.0524.00163-.00082.04557-.02352.01953-.01.043-.0223.02083-.01074.08464-.04411.01367-.00716.043-.0223.02279-.012.041-.02156.02311-.01213.07227-.038.026-.01376.03809-.02018.02767-.01473.03776-.01994.03092-.01668.05925-.03158.0332-.01774.03353-.01806.03418-.01831.03222-.01726.04916-.02661.04-.02165.03646-.01977.03222-.01758.03548-.01929.03093-.01684.05957-.03263.02864-.01571.03776-.02075.03093-.01717.03841-.02108.027-.01506.06152-.03393.02572-.01433.04134-.02311.02767-.01546.0446-.0249.02115-.01188.06283-.03524.02441-.01367.0433-.02442.02539-.0144.04818-.02726.01822-.01034.06381-.03621.02181-.01254.04524-.026.02409-.01359.05632-.0323.00911-.00538.06511-.03743.02116-.01213.04687-.02726.02181-.01261.06543-.038h0a42.20106,42.20106,0,0,0,60.16406-19.25138A42.607,42.607,0,0,0,341.33333,320h0l-.09635-.991a7.49614,7.49614,0,0,1-.09408-.87752v-.00106l-.00065-.01473v-.00032l-.00032-.01514h0A31.92026,31.92026,0,0,0,330.66667,256Z" style="fill:#8e1600"/><path d="M320,149.33333h42.66667a0,0,0,0,1,0,0v21.33335A21.33331,21.33331,0,0,1,341.33335,192h0A21.33331,21.33331,0,0,1,320,170.66669V149.33333A0,0,0,0,1,320,149.33333Z" style="fill:#8e1600"/><rect x="320" y="149.33333" width="21.33333" height="127.99999" rx="10.66666" ry="10.66666" style="fill:#8e1600"/><path d="M149.33333,149.33333H192a0,0,0,0,1,0,0v21.33335A21.33331,21.33331,0,0,1,170.66669,192h0a21.33331,21.33331,0,0,1-21.33331-21.33331V149.33333A0,0,0,0,1,149.33333,149.33333Z" style="fill:#ae2b00"/><circle cx="288" cy="202.66667" r="10.66667" style="fill:#004ed6"/><circle cx="224" cy="202.66667" r="10.66667" style="fill:#004ed6"/><rect x="234.66667" y="256" width="42.66667" height="21.33333" rx="10.66666" ry="10.66666" style="fill:#fff8c6"/><rect x="234.66667" y="213.33333" width="42.66667" height="21.33333" rx="10.66666" ry="10.66666" style="fill:#f4ac03"/><circle cx="256" cy="426.66667" r="21.33333" style="fill:#0a86e3"/><path d="M234.66667,490.66667a21.33333,21.33333,0,1,1,42.66666,0Z" style="fill:#0a86e3"/><circle cx="245.33333" cy="416" r="10.66667" style="fill:#71b9f5"/><circle cx="245.33333" cy="480" r="10.66667" style="fill:#71b9f5"/><path d="M256,21.33333c106.66667,0,106.66667,149.33334,106.66667,149.33334H149.33333S149.33333,21.33333,256,21.33333Z" style="fill:#764126"/><path d="M256,64a283.01287,283.01287,0,0,0-63.11453,7.0668C178.826,74.28714,166.99105,84.087,162.24993,97.70906c-2.32464,6.67911-4.231,13.33952-5.7942,19.76755-6.58062,27.05937,13.55142,53.19006,41.39947,53.19006H314.1448c27.84805,0,47.98009-26.13069,41.39947-53.19006-1.56325-6.428-3.46956-13.08844-5.7942-19.76755C345.009,84.087,333.174,74.28714,319.11453,71.0668A283.01287,283.01287,0,0,0,256,64Z" style="fill:#4d2100"/><path d="M355.84415,118.7241c-1.54-6.4828-3.42663-13.21774-5.73846-19.984A42.69085,42.69085,0,0,0,319.207,71.08757q-.213-.04884-.42715-.0975a56.31047,56.31047,0,0,0-24.77521.00309q-.20787.04725-.4147.09468a42.70529,42.70529,0,0,0-30.90462,27.67293c-2.30914,6.76083-4.19381,13.49021-5.73243,19.9678-6.31508,26.58649,14.37053,51.9382,41.69673,51.93818h15.49886C341.4767,170.66677,362.16023,145.31238,355.84415,118.7241Z" style="fill:#3d180b"/><path d="M256,106.66667c-106.03906,0-192,38.20442-192,85.33333,0,11.32552,5.07292,22.11068,14.08724,31.9987,28.49479-31.26042,97.35547-53.332,177.91276-53.332s149.418,22.07161,177.91276,53.332C442.92708,214.11068,448,203.32552,448,192,448,144.87109,362.03906,106.66667,256,106.66667Z" style="fill:#69341c"/><path d="M256,106.66667h-.193l-.13379.00008-.06315.00008-.09831.00008-.06771.00008-.0957.00016-.07194.00009-.09343.00016-.0664.00016-.09473.00016-.07259.00017-.0957.00024-.06381.00016-.09277.00033-.0778.00016-.08008.00033-.07975.00024-.09993.00033-.06153.00024-.32031.00139-.07031.00032-.098.00049-.05859.00024-.10156.00057-.06966.00041-.09408.00049-.07422.00041-.0804.00048-.08691.00057-.07943.00049-.07813.00049-.08366.00057-.0804.00057-.08529.00057-.07584.00057-.08627.00065-.07649.00057-.08073.00065-.11556.0009-.124.00105-.05468.00049-.1071.0009-.08008.00073-.07715.00073-.08756.00082-.07813.00073-.07714.00073-.085.00081-.08138.00082-.0791.00081-.07975.00082-.08529.00089-.07714.00081-.09017.00106-.06674.00073-.10546.00114-.05762.00065-.10091.00123-.06446.00073-.08658.00106-.11947.00146-.11491.00147-.06185.00081-.09733.00122-.07682.00106-.08594.00114-.07454.001-.08724.00122-.07487.001-.08952.0013-.07292.00106-.08594.00122-.07714.00114-.084.00122-.08138.00122-.07454.00114-.08627.0013-.07617.00122-.08561.00131-.0778.00122-.08105.0013-.12761.00212-.04557.00073-.14844.00252-.0472.00081-.11295.00188-.06381.00114-.09733.0017-.07389.00131-.08333.00146-.08236.00155-.07715.00138-.08756.00163-.0739.00138-.0817.00155-.08464.00163-.07585.00138-.08789.00171-.07161.00146-.09342.00179-.06967.00139-.08951.00187-.07227.00146-.07487.00147-.16536.0035-.07553.00154-.08463.00179-.07422.00163-.08171.00171-.08365.00187-.07292.00155-.08757.002-.07324.00163-.08952.002-.07519.00171-.08008.00188-.08333.00187-.07455.00179-.08919.002-.0651.00155-.09375.00228-.06511.00154-.09765.00236-.02865.00065c-.13412.00326-.2627.00651-.39681.00985l-.04232.00106-.10124.0026-.057.00147-.10319.00268-.05371.00139-.11.00293-.0472.00122-.10221.00268-.0612.00163-.10026.00277-.05339.00138-.10742.00293-.04687.0013-.111.0031-.04947.00138-.10482.00293-.06022.00171-.10092.00285-.03287.001c-.12077.00342-.24414.007-.36524.01058l-.07129.00212-.08658.00252-.07032.00212-.0944.00284-.0638.002-.099.003-.056.00171-.099.003-.0664.002-.09082.00285-.06478.002-.0944.003-.06739.00211-.09082.00293-.06738.00212-.09082.00293-.07161.00236-.08789.00285-.055.00179c-.11426.00382-.234.00773-.3483.01163l-.06674.0022-.09147.00318-.06608.00219-.09212.00318-.06576.00228-.09375.00325-.06608.00228-.08886.00317-.06934.00244-.0944.00334-.06022.00212-.097.0035-.05924.00211-.10059.00366-.05534.002-.10058.00366-.04525.00171c-.13314.00488-.27539.01017-.40853.01513l-.01042.00041-.09928.00375-.0625.00244-.10254.0039-.05045.00187-.10026.00391-.06283.00244-.09115.00358-.067.00261-.08887.0035-.07194.00284-.08952.0035-.06152.00245-.09766.0039-.05859.00236-.10091.00407-.0446.00187-.11458.00464-.014.00057c-.14551.00594-.29395.01213-.43913.01823l-.00358.00008-.10449.0044-.05827.00252-.10091.00423-.05274.00228-.10416.00448-.05176.00219-.10645.00464-.05273.00228-.09538.00415-.06673.00293-.09407.00407-.06283.00277-.08984.004-.06934.0031-.09277.00415-.06283.00284-.09049.00407-.06576.00293c-.17643.008-.34147.01555-.5179.02377l-.03646.00171-.11426.00537-.03939.00179-.11393.00537-.04232.002-.11946.00562-.02962.00146-.11784.00562-.0459.00219-.11426.00554-.02767.0013-.12988.00635-.0127.00057c-.28939.01408-.57942.02848-.86849.04321l-.03483.00171-.12011.00618-.03353.00171-.11361.00578-.0446.00236-.112.00578-.041.00212-.11361.00594-.03776.002-.1237.00651-.01985.001-.12826.00675-.0332.00179c-.28841.0153-.568.03044-.85612.04623l-.028.00154-.13639.00757-.00976.00049-.13086.00732-.03125.00171-.11394.00643-.04589.00252-.1058.00594-.05176.00293-.10807.00619-.03288.00187-.125.00708-.013.00081c-.28776.01644-.585.03378-.87207.05079l-.02344.00138-.13313.00789-.01628.001-.13249.008-.02018.00123-.137.00821-.00944.00057-.13672.00831-.01953.00122q-.58936.03576-1.17871.07324l-.00847.00057-.14225.00911-.00716.00041-.13672.00879-.01921.00122-.138.00895-.00456.00025-.1416.00919-.01595.00106c-.38541.02506-.78743.05176-1.1722.07788l-.01432.001-.1377.00936-.01171.00081-.138.00952-.01139.00073c-33.2526,2.2819-63.67936,8.35425-88.99186,17.195l-.00716.00252c-.45313.15829-.89811.31511-1.348.47526l-.00717.00253-.10677.038-.0052.00187-.10775.03841-.00488.00163c-.25749.092-.51563.18457-.77214.277l-.0127.00464-.09407.03393-.02214.00806-.09212.03328-.02083.00757-.08757.03166-.03418.01237-.08105.02946-.0293.01058-.08659.03149-.026.00944-.09049.03288-.0127.00456c-.167.06087-.34114.12443-.50781.18554l-.04785.01766-.06641.02426-.04753.01757-.06868.02515-.04557.01685-.0739.0271-.04036.01489-.071.0262-.04525.01669-.07259.02685-.04134.01522-.07064.02612-.04688.01742-.07.02588-.0446.01652-.06738.02506-.04948.01831-.17188.064-.00521.00187-.08724.03255-.02473.00928-.06869.02563-.05078.019-.07.02621-.03906.01448-.07227.0271-.04785.018-.06347.02376-.05144.01937-.05859.02189-.06413.02417-.05208.01961-.057.02133-.05989.02254-.05957.02254-.05371.02026-.06967.02629-.04427.01668-.08235.03117-.0573.02173-.08854.03353-.0498.019-.06576.0249-.04134.01571-.07877.02995-.03386.013-.08105.03076-.03744.01424-.07617.029-.04557.0175-.06966.02653-.043.01644-.07357.02824-.0446.017-.069.02653-.04459.01709-.07162.0275-.04492.01717c-.15365.05917-.30632.11792-.45964.17725l-.026.01009-.09179.03548-.02572.01009-.08529.03305-.03645.01416-.08008.031-.03679.01432-.07584.02955-.03809.01481-.08529.03328-.02766.01082-.09115.03557-.02246.00879-.10417.04077-.01041.004c-.15756.06168-.31218.12239-.46941.18424l-.00195.00081-.11035.04346-.01888.00757-.09733.03841-.01758.00684-.09538.03776-.02441.00976-.099.03907-.01009.004-.10352.0411-.01562.00627q-.46582.18493-.929.37142a.02109.02109,0,0,0-.0026.001q-8.63331,3.47388-16.27995,7.39152a10.66665,10.66665,0,1,0,9.72917,18.9856C154.23633,137.87817,203.57812,128,256,128a10.66667,10.66667,0,1,0,0-21.33333Zm49.027,2.88248a10.6673,10.6673,0,0,0-1.2614,21.25806c56.681,6.82218,103.19174,25.89274,118.49219,48.58439A10.66663,10.66663,0,0,0,439.973,167.50553a74.4421,74.4421,0,0,0-13.51009-14.81266l-.00163-.0013c-.08952-.07642-.17708-.15112-.26692-.22738l-.00228-.00187c-.08692-.07389-.17546-.14876-.263-.22249l-.0127-.01066c-.085-.07137-.1735-.14584-.25879-.217l-.012-.01026-.06185-.05167-.00228-.0018c-.06543-.0546-.12826-.107-.194-.16153l-.01563-.01286-.05957-.04956-.00944-.00782c-.06282-.05208-.124-.10245-.18717-.15454l-.01921-.01587-.05468-.04492-.02084-.01717c-.05436-.04492-.11751-.09668-.1722-.14152l-.02929-.02384-.05079-.04159-.02506-.02034-.05339-.04371-.014-.01139-.1097-.08919-.02214-.018-.05045-.041-.02833-.02287-.0511-.04142-.02409-.01961-.10124-.08163-.02213-.01807-.05111-.04109-.028-.02238-.05079-.04094-.02864-.023-.0905-.07259-.03125-.02506-.04622-.03695-.03288-.02629-.0485-.03873-.03516-.02808-.04492-.03564-.07324-.05835-.04069-.03239-.04-.0319-.04427-.03508-.03744-.02954-.04622-.03654-.04557-.03613-.06608-.05225-.04167-.03271-.04525-.03557-.03873-.03051-.04395-.03451-.03906-.03076-.08073-.06323-.03451-.0271-.04655-.03638-.03808-.02954-.04492-.03524-.0433-.03369-.03776-.02946-.07584-.05892-.04037-.03133-.04687-.03646-.03646-.02824-.055-.04264-.02864-.02214-.08171-.06315-.02929-.02238-.05437-.04207-.03873-.0297-.05013-.03866-.03321-.02531-.07422-.05688-.0371-.02849-.05567-.04272-.03483-.02669-.05273-.04-.03288-.02523-.07682-.05843-.01823-.01392-.0739-.05623-.03222-.0245-.05762-.04345-.0293-.02238-.06543-.0494-.02343-.01782-.08366-.06315-.02735-.02059-.06087-.0459-.029-.02181-.07162-.05379-.01627-.012-.08724-.06535-.02344-.01774-.06575-.04907-.0267-.0201-.06608-.04932-.02506-.01855-.08757-.06527-.01172-.00871-.07584-.05631-.02637-.0197-.07161-.05314-.01726-.01261c-.06087-.04517-.12011-.089-.18131-.134l-.02149-.01571-.07129-.05273-.02246-.01636c-.06119-.04509-.12076-.08887-.18229-.13387l-.015-.011-.08073-.05892-.015-.01107-.08431-.0616-.00911-.00659-.0931-.06771-.014-.01025-.07812-.05665-.02149-.0157-.08235-.05973-.00749-.00554-.09668-.06982-.00358-.00269-.09049-.06535-.01368-.00984-.084-.06039-.01172-.00838c-.06217-.04476-.127-.09131-.18945-.136l-.0166-.01188-.08269-.05932-.01074-.00765-.19531-.13916-.00456-.00342-.08854-.06291-.015-.01074-.19369-.13713-.00521-.0035-.09049-.06412-.0127-.00887-.09147-.06446-.00488-.00333c-.06511-.046-.13119-.09237-.19662-.13827l-.00976-.00675q-.14893-.10437-.2985-.20858l-.00326-.0022c-18.30892-12.74756-44.02474-23.18734-74.456-30.12353-.00521-.00122.00065.00016-.00489-.00106-.22233-.0507-.44271-.10075-.66569-.151l-.01855-.00415c-.166-.03752-.33106-.07463-.49772-.1119l-.00651-.00155-.16537-.037-.00163-.00032-.3317-.074-.01953-.00431-.151-.03353-.012-.00268c-.11361-.02523-.21842-.04834-.332-.07349l-.014-.00309-.14648-.03223-.02539-.00561-.31966-.07023-.03711-.00806-.124-.02718-.03776-.0083-.14941-.03255-.00716-.00155-.16732-.03646-.00911-.00195-.14747-.03207-.03255-.007-.14713-.0319-.01172-.0026c-.111-.02393-.21647-.04671-.32748-.07056l-.02734-.00594-.141-.03027-.02279-.00488c-.10742-.023-.21777-.04672-.32519-.06967l-.02865-.0061-.13769-.02938-.0267-.00569c-.10742-.02287-.21582-.0459-.32356-.06869l-.03125-.00667-.13021-.02751-.03744-.008-.31771-.067-.03678-.00773-.1263-.02653-.03841-.00806-.14518-.03043-.01237-.00253-.16211-.03393-.03125-.00651-.127-.02645-.04752-.00985-.12565-.0262-.02963-.00619-.16243-.03361-.0153-.00317-.14063-.02914-.0498-.01025-.10579-.02181-.05632-.01155-.151-.03109-.02409-.005-.13216-.0271-.056-.01147-.10449-.0214-.05469-.01115-.11231-.023-.06933-.01408-.125-.02547-.06413-.013-.08854-.018-.07194-.01465-.09245-.01871-.06315-.01278-.13932-.02816-.08073-.01619-.07487-.01514-.07552-.01514-.084-.01692-.07519-.01506-.13933-.02791-.06868-.01376-.08333-.01668-.07911-.01571-.07845-.0157-.07845-.01555-.07877-.0157-.14388-.02848-.06576-.01311-.08593-.017-.06934-.01367-.08854-.01749-.058-.01148-.1595-.03133-.06869-.01351-.08365-.01644-.07162-.01408-.08821-.01717-.054-.01058-.1862-.03637-.0446-.00871-.08658-.01685-.06869-.01343-.09082-.01765-.055-.01067-.33268-.06429-.04721-.00911-.099-.019-.04851-.00936-.34017-.06527-.04329-.00822-.10352-.01977-.04622-.00879-.10384-.01986-.02767-.00521-.22461-.04272-.02539-.0048-.11393-.02157-.0293-.00553-.11719-.02222-.02116-.004-.235-.04419-.01888-.00358-.11231-.02108-.0332-.00626-.11491-.02149-.02278-.00431-.38282-.07145-.00814-.00147-.13151-.02441-.00325-.00057c-7.639-1.41764-15.53418-2.6228-23.63574-3.59757a10.77887,10.77887,0,0,0-1.26172-.07439Z" style="fill:#97623f"/><path d="M256,149.33333c-71.0179,0-136.59017,16.55656-175.40625,44.28882a10.66669,10.66669,0,1,0,12.40169,17.35832q1.86036-1.3291,3.8265-2.62565l.001-.00057c.10254-.06763.20215-.13306.305-.2006l.00456-.00285.11556-.0756.00748-.005.18034-.11759.00912-.00611.109-.07088.01432-.00936.11426-.074.00423-.00277.06022-.03914.00619-.00391.11132-.072.01856-.012.10547-.068.01106-.00708c.06218-.04.11882-.0765.18132-.11654l.01042-.00667.10872-.06982.0153-.00977.11263-.0721.00684-.00423.05794-.03711.02409-.01538.09017-.05746.03255-.02051.08366-.05322.03385-.02157.05143-.03263.04-.02547.07813-.04932.0319-.02018.08333-.05273.03255-.02067.09213-.058.02506-.01587.054-.03393.03613-.02279.0765-.048.043-.02686.0664-.04175.04948-.03092.04525-.02832.07259-.04533.04362-.0271.05013-.03133.05957-.03719.05436-.03377.04167-.0258.07357-.04574.04394-.02718.0612-.03808.05046-.03125.055-.03386.04883-.03027.06706-.04134.041-.02539.07552-.04655.04069-.02491.05664-.03491.04948-.03035.0638-.03915.03907-.02384.07747-.04753.03906-.02376.06706-.041.0446-.02726.06445-.03914.0332-.02018.082-.05.03483-.02116.08334-.05054.03092-.01863.06966-.0424.03093-.01856.08235-.04988.03126-.01889.08365-.05045.03418-.02067.07585-.04574.03288-.01969.07454-.04484.02962-.01774.08594-.05152.0319-.019.08627-.05168.02767-.01668.07552-.04492.02343-.014.09017-.05387.027-.016.08984-.05355.0267-.01587.09017-.05355.01237-.00716.09082-.05387.02409-.01433.09244-.05468.02344-.01384.096-.05664.01562-.00911.08692-.05127.02051-.01213.09375-.055.02441-.01433.09473-.0555.01855-.011.09929-.05811.00325-.00179.10156-.05932.01823-.01075.097-.05664.02051-.01188.10026-.05827.00781-.00455.09961-.05787.012-.00708.10189-.05892.0166-.00968.09994-.05778.01692-.00968c.06934-.04021.1416-.08171.21127-.12183l.01074-.00627.10449-.06.01367-.0079.10612-.06087.00163-.00089.10742-.06161.00879-.00505.10645-.06079.01139-.00643.10872-.062.00228-.0013.22526-.12817.00651-.00358c.11231-.06381.22754-.129.3405-.19271l.00521-.003.10905-.06136.01074-.006q.16943-.09546.33952-.19059l.00586-.00334.11295-.063.00261-.00155.23014-.12834.00228-.00114.11393-.06331.00456-.00268c.11425-.06324.23307-.12907.34733-.19222l.00293-.00155c26.36425-14.55013,63.22558-25.17228,105.5-29.5787l.00195-.00016c.624-.065,1.2513-.129,1.8776-.19132l.01237-.00122q1.31886-.13112,2.64323-.25424l.00358-.00024c.819-.07609,1.64681-.15047,2.47006-.22184l.00293-.00025.17968-.01554.02149-.00187c.12109-.01042.24772-.02132.36881-.03166l.00228-.00016c.50716-.0433,1.01921-.086,1.528-.12752l.0013-.00017c.25683-.02091.50716-.04109.764-.0616l.0039-.00033c.1263-.01.25391-.02018.38021-.03011l.00195-.00016.1875-.01473.00847-.00065.18685-.01457.0013-.00008c.1263-.00985.24967-.01937.376-.02913l.0127-.001.18424-.01408.00652-.00049c.18717-.01432.38281-.02913.57031-.04321l.00553-.00041c.25326-.019.50944-.038.763-.05656l.01009-.00073c.12663-.00928.24447-.01782.3711-.027l.014-.001.18457-.01327.00586-.00049c.127-.00911.25261-.01806.37956-.027l.00391-.00032.18294-.01294.01725-.00114.18067-.0127.01172-.00081.18229-.01269.00455-.00033.17709-.01229.02669-.00179.17285-.01188.02116-.00147c.1224-.00838.24642-.01684.36914-.02514l.00716-.00049.181-.01221.02051-.0013.18066-.01212.00749-.00049c.1224-.00814.25423-.01693.37728-.025l.00944-.00057.1862-.0122.00814-.00057c.123-.00806.248-.01612.37076-.024l.01791-.00114.17611-.01131.02441-.00155.17838-.01139.00814-.00049c.12305-.00781.25586-.01619.37891-.02384l.00716-.00049c.18913-.0118.38737-.024.57682-.03565l.00358-.00016.19108-.01164.00456-.00032.19076-.01148.00358-.00024c.12793-.00765.25423-.01522.38216-.02279l.00846-.00049c.18978-.01123.38021-.02237.57-.03336l.016-.001.18262-.0105.013-.00073c.12825-.00732.25228-.0144.38053-.02165l.00326-.00016.1875-.01058.01334-.00073c.19011-.01066.37956-.02116.57-.03149l.014-.00082.18359-.01.014-.00073.18555-.01.00618-.00033.179-.0096.0179-.00089.1722-.00912.03613-.00195.17416-.00912.00683-.0004.18164-.00944.01237-.00065.17839-.0092.02441-.00122.17709-.00912.02018-.001.182-.00928.00293-.00008.18164-.00911.01985-.00106.17969-.00887.02083-.00106.17806-.00879.01986-.001.17122-.00838.015-.00073.17676-.00855.028-.0013.17676-.00846.01725-.00082.17416-.0083.01432-.00065.18034-.00854.0205-.0009.17351-.008.03353-.00163.17545-.00806.00684-.00032.17871-.00814.01823-.00082.179-.008.02312-.00106.17936-.00806.016-.00065c.12467-.00553.24186-.01074.36621-.01611l.02865-.0013.17545-.00757.02376-.00106.17969-.00765.00912-.00041.17643-.00748.01986-.00082.17252-.00724.03451-.00147.1748-.00724.01758-.00073.167-.00684.02442-.001.17578-.00716.02571-.001.17351-.007.0319-.00122c.11523-.00464.235-.00936.35026-.01383l.03776-.00147.167-.00651.03353-.00122.17448-.00667.0205-.00082.17351-.00659.01269-.00041.17936-.00675.02767-.001.17872-.00659.01627-.00065.17806-.00643.0127-.00049.17252-.00618.03418-.00122.16569-.00586.04069-.00147.1722-.006.01465-.00049.15658-.00545.04459-.00155.16407-.00553.03613-.0013.17285-.00578.02409-.00081c.12077-.004.24251-.00806.36328-.012l.02767-.00089.1735-.00562.03028-.001.17708-.00562.015-.00049.17481-.00545.0179-.00057.17741-.00553.0306-.0009.17611-.00537.02115-.00065.16895-.00505.01953-.00057.18229-.00537.01953-.00057.17676-.00512.0332-.001c.12077-.0035.23666-.00676.35775-.01017l.03028-.00082.17415-.00488.028-.00073.17579-.0048.02669-.00074.1709-.00455.01269-.00033.17481-.00464.03808-.001.16927-.0044.02963-.00073c.11653-.00293.24316-.00619.3597-.009l.03287-.00082.1722-.00423.03125-.00073.17871-.00432.01075-.00024.18261-.00431.01205-.00025.18555-.00431.01855-.00041.18555-.00423.01432-.00032.3763-.0083.02214-.00041.18261-.00391.01693-.00041.38021-.00781.01367-.00024.18034-.00358.02962-.00057.17741-.0035.02051-.00041.18587-.0035h.00033l.18717-.0035.02181-.0004.17969-.00318.02572-.00049.18294-.00325.00749-.00008.16992-.00293.03613-.00065.17415-.00285.02767-.00049.17969-.00293.01856-.00024.18359-.00293.00521-.00008.18229-.00277.0293-.00049.18554-.00277h.00423c.12663-.00187.25847-.00374.38542-.00553l.01888-.00024.181-.00245.028-.00032.17773-.00236.02246-.00025.17513-.00219.01367-.00017.1836-.00227.02474-.00025.179-.00211.02474-.00033.36589-.004.0319-.00032.17318-.00179.03483-.00033.17382-.00171.02474-.00024.17383-.00163.01335-.00016.17708-.00155.03972-.00032.1722-.00147.02343-.00024.37728-.00293.015-.00008.18652-.00131.02051-.00016.18815-.00122.00358-.00008.18685-.00114.01758-.00008.18424-.00106.02214-.00008.18619-.001.01172-.00008.18555-.00089.01009-.00009.18067-.00073.03059-.00016.18-.00073h.02116l.18847-.00065h.0013l.18653-.00057.02213-.00009.17806-.00048h.03321l.17871-.00041h.0153l.17545-.00033h.02149l.1761-.00024h.03451l.1735-.00008.03353-.00008H256l.21224.00008h.01628l.2028.00008.02506.00008.19661.00024h.02995l.19759.00041h.0267l.19661.00049.02995.00008.19889.00057h.02149l.20377.00073.01823.00008c.44173.00155.88542.00383,1.3265.00668l.0026.00008q11.92725.0785,23.47233.79l.00944.00057.19629.012.03223.002.18.01115.04688.00293.16211.01009.06868.00431.13119.00822.09863.00627.082.0052.16048.01026.03744.00236c.1735.01115.348.02238.52148.03369q.294.01917.58464.02238.26807.033.54.05257c12.17675.82756,23.96517,2.16333,35.27213,3.95858l.00521.00081c.14453.023.29037.04623.43457.06926l.00684.00114c.09635.01538.195.03125.291.04671l.0013.00016.29037.04679.00814.00131.14127.02286.00065.00017.28744.04663.012.002c.0918.0149.18815.03068.27963.04566l.0192.00309.12793.021.01042.0017.27474.04525.02864.00464.2666.04419.03451.0057.10482.01741.02832.00464.13151.022.02441.004.10645.01782.04232.007.10351.01734.026.00439.12533.021.04329.00732.08561.0144.05079.00847.12076.02034.0306.00521.10026.01693.0433.00732.0944.016.05729.00969.09538.01627.06575.01115.05437.00928.07389.01261.0192.00318.16081.0275.0472.00806.0739.0127.04264.00732c.09114.01554.17871.03068.26953.04631l.027.00463c.097.01669.195.03361.29166.05038l.00554.001c36.78418,6.36971,68.05013,17.64274,89.76725,32.00878a10.66671,10.66671,0,0,0,11.77018-17.79264c-33.403-22.09619-83.25846-36.407-140.38248-40.29647q-.30909-.02112-.61491-.02441-.3042-.03723-.61361-.05754c-9.69857-.633-19.62207-.954-29.49414-.954Z" style="fill:#4d2100"/><rect x="85.33333" y="341.33333" width="64" height="64" rx="21.33333" ry="21.33333" style="fill:#0026b6"/><rect x="85.33333" y="426.66667" width="64" height="64" rx="21.33333" ry="21.33333" style="fill:#0026b6"/><path d="M63.99994,384H64a21.33333,21.33333,0,0,1,21.33333,21.33333v21.33333A21.33333,21.33333,0,0,1,64,448H42.66667a21.33333,21.33333,0,0,1-21.33333-21.33333v-.00006A42.6666,42.6666,0,0,1,63.99994,384Z" style="fill:#0026b6"/><rect x="362.66667" y="341.33333" width="64" height="64" rx="21.33333" ry="21.33333" transform="translate(789.33333 746.66667) rotate(-180)" style="fill:#0026b6"/><rect x="362.66667" y="426.66667" width="64" height="64" rx="21.33333" ry="21.33333" transform="translate(789.33333 917.33333) rotate(-180)" style="fill:#0026b6"/><path d="M448,384h21.33333a21.33333,21.33333,0,0,1,21.33333,21.33333v21.33333A21.33333,21.33333,0,0,1,469.33333,448h-.00006a42.6666,42.6666,0,0,1-42.6666-42.6666v-.00006A21.33333,21.33333,0,0,1,448,384Z" transform="translate(917.33333 832) rotate(-180)" style="fill:#0026b6"/><ellipse cx="213.33333" cy="64" rx="26.97886" ry="13.48943" transform="translate(17.22905 169.59461) rotate(-45)" style="fill:#97623f"/><circle cx="224" cy="53.33333" r="10.66667" style="fill:#a77554"/><path d="M384,320a21.33272,21.33272,0,0,0-21.33333,21.33333l-21.33334,85.33334S320,448,256,448s-85.33333-21.33333-85.33333-21.33333l-21.33334-85.33334a21.33333,21.33333,0,1,0-42.66666,0L85.33333,490.66667H426.66667L405.33333,341.33333A21.33272,21.33272,0,0,0,384,320Z" style="fill:#cc3c00"/><path d="M138.66667,330.66667A10.66678,10.66678,0,0,0,128,341.33333a21.32764,21.32764,0,0,0,.637,5.17416l21.33334,85.33333a21.33321,21.33321,0,0,0,5.61133,9.91081c4.60579,4.60563,31.09342,27.5817,100.41829,27.5817,51.42773,0,79.47363-13.0236,91.61426-20.78678a10.66675,10.66675,0,0,0-11.46061-17.99365c-8.08985,5.1805-26.36524,14.00553-59.73405,16.66552l-.00586.00049c-.0765.00619-.14519.01156-.222.01758l-.01562.0013-.22071.01726-.00911.00065c-.0765.006-.15072.01172-.22754.01757h-.00033c-.11718.009-.23274.01775-.35026.02653l-.00032.00017-.2334.01741h-.00195c-.15463.01156-.31315.02311-.46843.03435l-.00228.00016c-.11458.0083-.23112.0166-.34635.02474l-.00977.00065c-.07454.00521-.15462.0109-.22916.016l-.00684.00049c-.07487.00521-.15137.01058-.22624.01562l-.01627.00114c-.07487.00521-.15039.01026-.22526.0153l-.00879.00065-.22559.01514-.02116.0013-.10123.00684-.00619.00032-.11458.00749-.00912.00065-.113.00732-.00065.00017q-.23632.01538-.474.03027l-.01074.00065-.10482.00651-.01237.00082-.10579.00667-.02409.00146-.10352.00635-.00586.00033-.11068.00683-.02376.00147-.0931.00553-.01627.00114-.22852.01367-.01432.00082-.22005.013-.02832.00163-.1071.00618-.00879.00049-.10482.006-.02018.00114c-.07292.00423-.14941.00863-.22266.0127l-.02246.0013-.10026.00569-.01237.00066-.11067.00618-.02116.00114-.097.00537-.0166.001-.10775.00586-.028.00146-.0905.00488-.0205.00114c-.07715.00424-.15137.00814-.22852.01221l-.01563.00081-.23177.01221-.01367.00065c-.07747.00407-.1556.00814-.23307.012l-.01172.00065-.1071.00537-.014.00065-.11459.00586-.01237.00049-.10351.00521-.01693.00081-.11426.0057-.013.00065-.09733.00472-.02864.0013c-.07455.00358-.14584.00716-.22038.01058l-.028.0013c-.071.00342-.15006.00716-.22135.01042l-.03158.00146-.10449.00489-.0026.00016-.11589.00521-.0179.00081-.11263.00521h-.00228l-.11719.00521-.02018.001-.10872.00489-.00359.00016-.12011.00521-.01237.00049-.10808.00472-.01334.00048c-.0791.00342-.15788.00684-.237.01009l-.0153.00066c-.07878.00341-.15918.00667-.23828.00992l-.01172.00049-.1123.00456-.00879.00033-.1198.00488-.00911.00032-.11361.00456-.01009.00033-.11686.00472-.01888.00065-.096.00374-.02539.001-.11654.00456-.00423.00016-.11067.00407-.02181.00081-.2308.00863-.02409.00081c-.08008.00293-.15332.0057-.23307.00846l-.01986.00082-.23372.00814-.02409.00081-.10189.00358-.0153.00049-.11718.00391-.01791.00065-.10514.00358-.015.00049-.11751.00374-.01888.00065-.09863.00326-.026.00081-.22787.00732-.03418.001-.08984.00277-.03516.00114-.09863.00293-.03516.00113-.09017.00277-.02376.00065-.11068.00326-.03092.00081-.08789.00261-.0332.001-.10678.00309-.03483.001-.0817.00228-.03548.001-.109.00309-.02832.00065-.08757.00244-.03613.001-.11263.00293-.00651.00016-.10449.00277-.03842.001-.09733.00245-.01595.00048-.112.00277-.03385.00081-.09408.00245-.02181.00048-.1123.00277-.03125.00065-.09017.00212-.03125.00081-.1084.00244-.0332.00082-.09668.00228-.01758.00032-.12109.00277-.01172.00016-.11068.00244-.02018.00049-.23958.00505-.0267.00048-.10156.00212-.0192.00033-.11491.00227-.02963.00066-.09407.00179-.026.00048-.11361.00212-.02865.00049-.09375.00179-.03059.00049-.112.00211-.03028.00049-.08659.00147-.03678.00065-.11556.00195-.013.00016-.10514.00179-.03028.00049c-.07552.0013-.15429.00244-.22981.00358l-.04265.00065-.09668.00147-.0166.00032-.11751.00163-.028.00049-.10709.00146-.0127.00017-.11881.00162-.02735.00033-.10221.0013-.02051.00033-.11654.00146-.03157.00033-.09245.00114-.0293.00032-.11556.00147-.02766.00032-.09441.001-.03222.00033c-.08041.001-.15853.00179-.23893.0026l-.027.00016-.11426.00114-.00749.00016-.12272.00114-.02344.00017-.10221.00081-.02474.00033-.11393.001-.03516.00017-.08561.00065-.042.00032-.11035.00082-.0293.00032-.09212.00065-.03483.00017-.11491.00065-.026.00016-.09571.00065-.03418.00016-.23763.0013-.03515.00017-.10482.00049h-.01563l-.11718.00048-.03776.00017-.09473.00032h-.02279l-.11816.00049h-.03093l-.10058.00033h-.02474l-.11784.00032h-.03158l-.09277.00016h-.03353l-.11719.00017h-.02343l-.099.00016H256c-64,0-85.33333-21.33333-85.33333-21.33333l-21.33334-85.33334h0a10.66677,10.66677,0,0,0-10.66666-10.66666Z" style="fill:#ae2b00"/><path d="M396.10742,341.41463a10.77793,10.77793,0,0,0-1.52181.10856,10.66683,10.66683,0,0,0-9.0511,12.068l18.10188,126.71362a10.66862,10.66862,0,0,0,10.54623,9.15951,10.77647,10.77647,0,0,0,1.52181-.10857,10.667,10.667,0,0,0,9.0511-12.06787h0L406.65332,350.5743a10.66792,10.66792,0,0,0-10.5459-9.15967Z" style="fill:#ae2b00"/><circle cx="128" cy="448" r="21.33333" style="fill:#4d2100"/><circle cx="117.33333" cy="437.33333" r="10.66667" style="fill:#5b2c06"/><circle cx="384" cy="448" r="21.33333" style="fill:#4d2100"/><circle cx="373.33333" cy="437.33333" r="10.66667" style="fill:#5b2c06"/></g></svg>