<svg xmlns="http://www.w3.org/2000/svg" version="1.1" xmlns:xlink="http://www.w3.org/1999/xlink" xmlns:svgjs="http://svgjs.dev/svgjs" width="1440" height="560" preserveAspectRatio="none" viewBox="0 0 1440 560"><g mask="url(&quot;#SvgjsMask1002&quot;)" fill="none"><rect width="1440" height="560" x="0" y="0" fill="rgba(185, 207, 165, 1)"></rect><path d="M0,372.099C68.631,374.423,123.22,318.403,178.085,277.106C229.266,238.581,280.469,198.506,307.675,140.51C335.038,82.18,347.996,14.469,330.356,-47.498C313.545,-106.553,256.559,-141.116,214.716,-186.052C174.591,-229.144,144.937,-285.171,89.802,-305.838C33.141,-327.077,-28.694,-311.803,-87.942,-299.503C-151.842,-286.237,-228.455,-284.07,-267.377,-231.684C-306.295,-179.303,-273.015,-105.155,-280.502,-40.33C-287.707,22.057,-331.779,82.715,-310.511,141.806C-289,201.571,-221.516,227.462,-170.498,265.3C-115.52,306.075,-68.409,369.782,0,372.099" fill="#93b575"></path><path d="M1440 941.508C1520.743 954.463 1605.261 966.4649999999999 1680.2350000000001 933.813 1760.963 898.655 1832.143 835.876 1867.604 755.28 1902.878 675.111 1886.766 584.221 1872.04 497.882 1857.646 413.49 1837.692 328.63 1783.529 262.331 1728.487 194.957 1654.368 132.19299999999998 1567.644 125.28500000000003 1483.761 118.60300000000001 1422.742 202.56 1342.276 227.183 1263.187 251.385 1165.9279999999999 214.454 1102.557 267.604 1038.248 321.541 1033.151 416.778 1017.828 499.301 1001.912 585.016 965.9159999999999 681.452 1011.969 755.475 1058.1109999999999 829.642 1164.567 829.11 1244.677 863.928 1310.254 892.429 1369.4 930.1800000000001 1440 941.508" fill="#dfe9d6"></path></g><defs><mask id="SvgjsMask1002"><rect width="1440" height="560" fill="#ffffff"></rect></mask></defs></svg>